%TF.GenerationSoftware,KiCad,Pcbnew,(5.1.8)-1*%
%TF.CreationDate,2021-06-10T03:31:17+02:00*%
%TF.ProjectId,GD32F190-dev-brd,47443332-4631-4393-902d-6465762d6272,rev?*%
%TF.SameCoordinates,Original*%
%TF.FileFunction,Paste,Top*%
%TF.FilePolarity,Positive*%
%FSLAX46Y46*%
G04 Gerber Fmt 4.6, Leading zero omitted, Abs format (unit mm)*
G04 Created by KiCad (PCBNEW (5.1.8)-1) date 2021-06-10 03:31:17*
%MOMM*%
%LPD*%
G01*
G04 APERTURE LIST*
%ADD10R,0.650000X1.050000*%
%ADD11R,0.900000X0.800000*%
%ADD12R,2.000000X2.400000*%
%ADD13C,0.100000*%
%ADD14R,1.800000X1.900000*%
%ADD15R,2.300000X1.900000*%
%ADD16R,0.400000X1.400000*%
G04 APERTURE END LIST*
%TO.C,R7*%
G36*
G01*
X132865000Y-130065000D02*
X132865000Y-129515000D01*
G75*
G02*
X133065000Y-129315000I200000J0D01*
G01*
X133465000Y-129315000D01*
G75*
G02*
X133665000Y-129515000I0J-200000D01*
G01*
X133665000Y-130065000D01*
G75*
G02*
X133465000Y-130265000I-200000J0D01*
G01*
X133065000Y-130265000D01*
G75*
G02*
X132865000Y-130065000I0J200000D01*
G01*
G37*
G36*
G01*
X134515000Y-130065000D02*
X134515000Y-129515000D01*
G75*
G02*
X134715000Y-129315000I200000J0D01*
G01*
X135115000Y-129315000D01*
G75*
G02*
X135315000Y-129515000I0J-200000D01*
G01*
X135315000Y-130065000D01*
G75*
G02*
X135115000Y-130265000I-200000J0D01*
G01*
X134715000Y-130265000D01*
G75*
G02*
X134515000Y-130065000I0J200000D01*
G01*
G37*
%TD*%
%TO.C,C1*%
G36*
G01*
X122160000Y-132330000D02*
X122160000Y-132830000D01*
G75*
G02*
X121935000Y-133055000I-225000J0D01*
G01*
X121485000Y-133055000D01*
G75*
G02*
X121260000Y-132830000I0J225000D01*
G01*
X121260000Y-132330000D01*
G75*
G02*
X121485000Y-132105000I225000J0D01*
G01*
X121935000Y-132105000D01*
G75*
G02*
X122160000Y-132330000I0J-225000D01*
G01*
G37*
G36*
G01*
X123710000Y-132330000D02*
X123710000Y-132830000D01*
G75*
G02*
X123485000Y-133055000I-225000J0D01*
G01*
X123035000Y-133055000D01*
G75*
G02*
X122810000Y-132830000I0J225000D01*
G01*
X122810000Y-132330000D01*
G75*
G02*
X123035000Y-132105000I225000J0D01*
G01*
X123485000Y-132105000D01*
G75*
G02*
X123710000Y-132330000I0J-225000D01*
G01*
G37*
%TD*%
%TO.C,C2*%
G36*
G01*
X120120000Y-136435000D02*
X119620000Y-136435000D01*
G75*
G02*
X119395000Y-136210000I0J225000D01*
G01*
X119395000Y-135760000D01*
G75*
G02*
X119620000Y-135535000I225000J0D01*
G01*
X120120000Y-135535000D01*
G75*
G02*
X120345000Y-135760000I0J-225000D01*
G01*
X120345000Y-136210000D01*
G75*
G02*
X120120000Y-136435000I-225000J0D01*
G01*
G37*
G36*
G01*
X120120000Y-134885000D02*
X119620000Y-134885000D01*
G75*
G02*
X119395000Y-134660000I0J225000D01*
G01*
X119395000Y-134210000D01*
G75*
G02*
X119620000Y-133985000I225000J0D01*
G01*
X120120000Y-133985000D01*
G75*
G02*
X120345000Y-134210000I0J-225000D01*
G01*
X120345000Y-134660000D01*
G75*
G02*
X120120000Y-134885000I-225000J0D01*
G01*
G37*
%TD*%
%TO.C,C7*%
G36*
G01*
X129125000Y-112450000D02*
X128625000Y-112450000D01*
G75*
G02*
X128400000Y-112225000I0J225000D01*
G01*
X128400000Y-111775000D01*
G75*
G02*
X128625000Y-111550000I225000J0D01*
G01*
X129125000Y-111550000D01*
G75*
G02*
X129350000Y-111775000I0J-225000D01*
G01*
X129350000Y-112225000D01*
G75*
G02*
X129125000Y-112450000I-225000J0D01*
G01*
G37*
G36*
G01*
X129125000Y-114000000D02*
X128625000Y-114000000D01*
G75*
G02*
X128400000Y-113775000I0J225000D01*
G01*
X128400000Y-113325000D01*
G75*
G02*
X128625000Y-113100000I225000J0D01*
G01*
X129125000Y-113100000D01*
G75*
G02*
X129350000Y-113325000I0J-225000D01*
G01*
X129350000Y-113775000D01*
G75*
G02*
X129125000Y-114000000I-225000J0D01*
G01*
G37*
%TD*%
%TO.C,C8*%
G36*
G01*
X127800000Y-110975000D02*
X127800000Y-111475000D01*
G75*
G02*
X127575000Y-111700000I-225000J0D01*
G01*
X127125000Y-111700000D01*
G75*
G02*
X126900000Y-111475000I0J225000D01*
G01*
X126900000Y-110975000D01*
G75*
G02*
X127125000Y-110750000I225000J0D01*
G01*
X127575000Y-110750000D01*
G75*
G02*
X127800000Y-110975000I0J-225000D01*
G01*
G37*
G36*
G01*
X126250000Y-110975000D02*
X126250000Y-111475000D01*
G75*
G02*
X126025000Y-111700000I-225000J0D01*
G01*
X125575000Y-111700000D01*
G75*
G02*
X125350000Y-111475000I0J225000D01*
G01*
X125350000Y-110975000D01*
G75*
G02*
X125575000Y-110750000I225000J0D01*
G01*
X126025000Y-110750000D01*
G75*
G02*
X126250000Y-110975000I0J-225000D01*
G01*
G37*
%TD*%
%TO.C,C9*%
G36*
G01*
X112790000Y-114530000D02*
X112290000Y-114530000D01*
G75*
G02*
X112065000Y-114305000I0J225000D01*
G01*
X112065000Y-113855000D01*
G75*
G02*
X112290000Y-113630000I225000J0D01*
G01*
X112790000Y-113630000D01*
G75*
G02*
X113015000Y-113855000I0J-225000D01*
G01*
X113015000Y-114305000D01*
G75*
G02*
X112790000Y-114530000I-225000J0D01*
G01*
G37*
G36*
G01*
X112790000Y-112980000D02*
X112290000Y-112980000D01*
G75*
G02*
X112065000Y-112755000I0J225000D01*
G01*
X112065000Y-112305000D01*
G75*
G02*
X112290000Y-112080000I225000J0D01*
G01*
X112790000Y-112080000D01*
G75*
G02*
X113015000Y-112305000I0J-225000D01*
G01*
X113015000Y-112755000D01*
G75*
G02*
X112790000Y-112980000I-225000J0D01*
G01*
G37*
%TD*%
%TO.C,C10*%
G36*
G01*
X132433000Y-105740000D02*
X132433000Y-106240000D01*
G75*
G02*
X132208000Y-106465000I-225000J0D01*
G01*
X131758000Y-106465000D01*
G75*
G02*
X131533000Y-106240000I0J225000D01*
G01*
X131533000Y-105740000D01*
G75*
G02*
X131758000Y-105515000I225000J0D01*
G01*
X132208000Y-105515000D01*
G75*
G02*
X132433000Y-105740000I0J-225000D01*
G01*
G37*
G36*
G01*
X133983000Y-105740000D02*
X133983000Y-106240000D01*
G75*
G02*
X133758000Y-106465000I-225000J0D01*
G01*
X133308000Y-106465000D01*
G75*
G02*
X133083000Y-106240000I0J225000D01*
G01*
X133083000Y-105740000D01*
G75*
G02*
X133308000Y-105515000I225000J0D01*
G01*
X133758000Y-105515000D01*
G75*
G02*
X133983000Y-105740000I0J-225000D01*
G01*
G37*
%TD*%
%TO.C,C11*%
G36*
G01*
X128485000Y-106240000D02*
X128485000Y-105740000D01*
G75*
G02*
X128710000Y-105515000I225000J0D01*
G01*
X129160000Y-105515000D01*
G75*
G02*
X129385000Y-105740000I0J-225000D01*
G01*
X129385000Y-106240000D01*
G75*
G02*
X129160000Y-106465000I-225000J0D01*
G01*
X128710000Y-106465000D01*
G75*
G02*
X128485000Y-106240000I0J225000D01*
G01*
G37*
G36*
G01*
X130035000Y-106240000D02*
X130035000Y-105740000D01*
G75*
G02*
X130260000Y-105515000I225000J0D01*
G01*
X130710000Y-105515000D01*
G75*
G02*
X130935000Y-105740000I0J-225000D01*
G01*
X130935000Y-106240000D01*
G75*
G02*
X130710000Y-106465000I-225000J0D01*
G01*
X130260000Y-106465000D01*
G75*
G02*
X130035000Y-106240000I0J225000D01*
G01*
G37*
%TD*%
%TO.C,C12*%
G36*
G01*
X137330000Y-110770000D02*
X136830000Y-110770000D01*
G75*
G02*
X136605000Y-110545000I0J225000D01*
G01*
X136605000Y-110095000D01*
G75*
G02*
X136830000Y-109870000I225000J0D01*
G01*
X137330000Y-109870000D01*
G75*
G02*
X137555000Y-110095000I0J-225000D01*
G01*
X137555000Y-110545000D01*
G75*
G02*
X137330000Y-110770000I-225000J0D01*
G01*
G37*
G36*
G01*
X137330000Y-112320000D02*
X136830000Y-112320000D01*
G75*
G02*
X136605000Y-112095000I0J225000D01*
G01*
X136605000Y-111645000D01*
G75*
G02*
X136830000Y-111420000I225000J0D01*
G01*
X137330000Y-111420000D01*
G75*
G02*
X137555000Y-111645000I0J-225000D01*
G01*
X137555000Y-112095000D01*
G75*
G02*
X137330000Y-112320000I-225000J0D01*
G01*
G37*
%TD*%
%TO.C,C13*%
G36*
G01*
X135630000Y-110590000D02*
X135130000Y-110590000D01*
G75*
G02*
X134905000Y-110365000I0J225000D01*
G01*
X134905000Y-109915000D01*
G75*
G02*
X135130000Y-109690000I225000J0D01*
G01*
X135630000Y-109690000D01*
G75*
G02*
X135855000Y-109915000I0J-225000D01*
G01*
X135855000Y-110365000D01*
G75*
G02*
X135630000Y-110590000I-225000J0D01*
G01*
G37*
G36*
G01*
X135630000Y-109040000D02*
X135130000Y-109040000D01*
G75*
G02*
X134905000Y-108815000I0J225000D01*
G01*
X134905000Y-108365000D01*
G75*
G02*
X135130000Y-108140000I225000J0D01*
G01*
X135630000Y-108140000D01*
G75*
G02*
X135855000Y-108365000I0J-225000D01*
G01*
X135855000Y-108815000D01*
G75*
G02*
X135630000Y-109040000I-225000J0D01*
G01*
G37*
%TD*%
%TO.C,D1*%
G36*
G01*
X106720750Y-127091500D02*
X107233250Y-127091500D01*
G75*
G02*
X107452000Y-127310250I0J-218750D01*
G01*
X107452000Y-127747750D01*
G75*
G02*
X107233250Y-127966500I-218750J0D01*
G01*
X106720750Y-127966500D01*
G75*
G02*
X106502000Y-127747750I0J218750D01*
G01*
X106502000Y-127310250D01*
G75*
G02*
X106720750Y-127091500I218750J0D01*
G01*
G37*
G36*
G01*
X106720750Y-128666500D02*
X107233250Y-128666500D01*
G75*
G02*
X107452000Y-128885250I0J-218750D01*
G01*
X107452000Y-129322750D01*
G75*
G02*
X107233250Y-129541500I-218750J0D01*
G01*
X106720750Y-129541500D01*
G75*
G02*
X106502000Y-129322750I0J218750D01*
G01*
X106502000Y-128885250D01*
G75*
G02*
X106720750Y-128666500I218750J0D01*
G01*
G37*
%TD*%
%TO.C,D2*%
G36*
G01*
X115683750Y-128692000D02*
X116196250Y-128692000D01*
G75*
G02*
X116415000Y-128910750I0J-218750D01*
G01*
X116415000Y-129348250D01*
G75*
G02*
X116196250Y-129567000I-218750J0D01*
G01*
X115683750Y-129567000D01*
G75*
G02*
X115465000Y-129348250I0J218750D01*
G01*
X115465000Y-128910750D01*
G75*
G02*
X115683750Y-128692000I218750J0D01*
G01*
G37*
G36*
G01*
X115683750Y-127117000D02*
X116196250Y-127117000D01*
G75*
G02*
X116415000Y-127335750I0J-218750D01*
G01*
X116415000Y-127773250D01*
G75*
G02*
X116196250Y-127992000I-218750J0D01*
G01*
X115683750Y-127992000D01*
G75*
G02*
X115465000Y-127773250I0J218750D01*
G01*
X115465000Y-127335750D01*
G75*
G02*
X115683750Y-127117000I218750J0D01*
G01*
G37*
%TD*%
%TO.C,D3*%
G36*
G01*
X139187500Y-107353750D02*
X139187500Y-107866250D01*
G75*
G02*
X138968750Y-108085000I-218750J0D01*
G01*
X138531250Y-108085000D01*
G75*
G02*
X138312500Y-107866250I0J218750D01*
G01*
X138312500Y-107353750D01*
G75*
G02*
X138531250Y-107135000I218750J0D01*
G01*
X138968750Y-107135000D01*
G75*
G02*
X139187500Y-107353750I0J-218750D01*
G01*
G37*
G36*
G01*
X137612500Y-107353750D02*
X137612500Y-107866250D01*
G75*
G02*
X137393750Y-108085000I-218750J0D01*
G01*
X136956250Y-108085000D01*
G75*
G02*
X136737500Y-107866250I0J218750D01*
G01*
X136737500Y-107353750D01*
G75*
G02*
X136956250Y-107135000I218750J0D01*
G01*
X137393750Y-107135000D01*
G75*
G02*
X137612500Y-107353750I0J-218750D01*
G01*
G37*
%TD*%
%TO.C,FB1*%
G36*
G01*
X125491250Y-135130000D02*
X124728750Y-135130000D01*
G75*
G02*
X124510000Y-134911250I0J218750D01*
G01*
X124510000Y-134473750D01*
G75*
G02*
X124728750Y-134255000I218750J0D01*
G01*
X125491250Y-134255000D01*
G75*
G02*
X125710000Y-134473750I0J-218750D01*
G01*
X125710000Y-134911250D01*
G75*
G02*
X125491250Y-135130000I-218750J0D01*
G01*
G37*
G36*
G01*
X125491250Y-133005000D02*
X124728750Y-133005000D01*
G75*
G02*
X124510000Y-132786250I0J218750D01*
G01*
X124510000Y-132348750D01*
G75*
G02*
X124728750Y-132130000I218750J0D01*
G01*
X125491250Y-132130000D01*
G75*
G02*
X125710000Y-132348750I0J-218750D01*
G01*
X125710000Y-132786250D01*
G75*
G02*
X125491250Y-133005000I-218750J0D01*
G01*
G37*
%TD*%
%TO.C,L1*%
G36*
G01*
X125400000Y-113031250D02*
X125400000Y-112518750D01*
G75*
G02*
X125618750Y-112300000I218750J0D01*
G01*
X126056250Y-112300000D01*
G75*
G02*
X126275000Y-112518750I0J-218750D01*
G01*
X126275000Y-113031250D01*
G75*
G02*
X126056250Y-113250000I-218750J0D01*
G01*
X125618750Y-113250000D01*
G75*
G02*
X125400000Y-113031250I0J218750D01*
G01*
G37*
G36*
G01*
X126975000Y-113031250D02*
X126975000Y-112518750D01*
G75*
G02*
X127193750Y-112300000I218750J0D01*
G01*
X127631250Y-112300000D01*
G75*
G02*
X127850000Y-112518750I0J-218750D01*
G01*
X127850000Y-113031250D01*
G75*
G02*
X127631250Y-113250000I-218750J0D01*
G01*
X127193750Y-113250000D01*
G75*
G02*
X126975000Y-113031250I0J218750D01*
G01*
G37*
%TD*%
%TO.C,R1*%
G36*
G01*
X108325000Y-127075000D02*
X108875000Y-127075000D01*
G75*
G02*
X109075000Y-127275000I0J-200000D01*
G01*
X109075000Y-127675000D01*
G75*
G02*
X108875000Y-127875000I-200000J0D01*
G01*
X108325000Y-127875000D01*
G75*
G02*
X108125000Y-127675000I0J200000D01*
G01*
X108125000Y-127275000D01*
G75*
G02*
X108325000Y-127075000I200000J0D01*
G01*
G37*
G36*
G01*
X108325000Y-128725000D02*
X108875000Y-128725000D01*
G75*
G02*
X109075000Y-128925000I0J-200000D01*
G01*
X109075000Y-129325000D01*
G75*
G02*
X108875000Y-129525000I-200000J0D01*
G01*
X108325000Y-129525000D01*
G75*
G02*
X108125000Y-129325000I0J200000D01*
G01*
X108125000Y-128925000D01*
G75*
G02*
X108325000Y-128725000I200000J0D01*
G01*
G37*
%TD*%
%TO.C,R2*%
G36*
G01*
X113865000Y-128767000D02*
X114415000Y-128767000D01*
G75*
G02*
X114615000Y-128967000I0J-200000D01*
G01*
X114615000Y-129367000D01*
G75*
G02*
X114415000Y-129567000I-200000J0D01*
G01*
X113865000Y-129567000D01*
G75*
G02*
X113665000Y-129367000I0J200000D01*
G01*
X113665000Y-128967000D01*
G75*
G02*
X113865000Y-128767000I200000J0D01*
G01*
G37*
G36*
G01*
X113865000Y-127117000D02*
X114415000Y-127117000D01*
G75*
G02*
X114615000Y-127317000I0J-200000D01*
G01*
X114615000Y-127717000D01*
G75*
G02*
X114415000Y-127917000I-200000J0D01*
G01*
X113865000Y-127917000D01*
G75*
G02*
X113665000Y-127717000I0J200000D01*
G01*
X113665000Y-127317000D01*
G75*
G02*
X113865000Y-127117000I200000J0D01*
G01*
G37*
%TD*%
%TO.C,R3*%
G36*
G01*
X139495000Y-111110000D02*
X138945000Y-111110000D01*
G75*
G02*
X138745000Y-110910000I0J200000D01*
G01*
X138745000Y-110510000D01*
G75*
G02*
X138945000Y-110310000I200000J0D01*
G01*
X139495000Y-110310000D01*
G75*
G02*
X139695000Y-110510000I0J-200000D01*
G01*
X139695000Y-110910000D01*
G75*
G02*
X139495000Y-111110000I-200000J0D01*
G01*
G37*
G36*
G01*
X139495000Y-112760000D02*
X138945000Y-112760000D01*
G75*
G02*
X138745000Y-112560000I0J200000D01*
G01*
X138745000Y-112160000D01*
G75*
G02*
X138945000Y-111960000I200000J0D01*
G01*
X139495000Y-111960000D01*
G75*
G02*
X139695000Y-112160000I0J-200000D01*
G01*
X139695000Y-112560000D01*
G75*
G02*
X139495000Y-112760000I-200000J0D01*
G01*
G37*
%TD*%
%TO.C,R4*%
G36*
G01*
X109025000Y-116825000D02*
X108475000Y-116825000D01*
G75*
G02*
X108275000Y-116625000I0J200000D01*
G01*
X108275000Y-116225000D01*
G75*
G02*
X108475000Y-116025000I200000J0D01*
G01*
X109025000Y-116025000D01*
G75*
G02*
X109225000Y-116225000I0J-200000D01*
G01*
X109225000Y-116625000D01*
G75*
G02*
X109025000Y-116825000I-200000J0D01*
G01*
G37*
G36*
G01*
X109025000Y-118475000D02*
X108475000Y-118475000D01*
G75*
G02*
X108275000Y-118275000I0J200000D01*
G01*
X108275000Y-117875000D01*
G75*
G02*
X108475000Y-117675000I200000J0D01*
G01*
X109025000Y-117675000D01*
G75*
G02*
X109225000Y-117875000I0J-200000D01*
G01*
X109225000Y-118275000D01*
G75*
G02*
X109025000Y-118475000I-200000J0D01*
G01*
G37*
%TD*%
%TO.C,R5*%
G36*
G01*
X129935000Y-111945000D02*
X129935000Y-111395000D01*
G75*
G02*
X130135000Y-111195000I200000J0D01*
G01*
X130535000Y-111195000D01*
G75*
G02*
X130735000Y-111395000I0J-200000D01*
G01*
X130735000Y-111945000D01*
G75*
G02*
X130535000Y-112145000I-200000J0D01*
G01*
X130135000Y-112145000D01*
G75*
G02*
X129935000Y-111945000I0J200000D01*
G01*
G37*
G36*
G01*
X131585000Y-111945000D02*
X131585000Y-111395000D01*
G75*
G02*
X131785000Y-111195000I200000J0D01*
G01*
X132185000Y-111195000D01*
G75*
G02*
X132385000Y-111395000I0J-200000D01*
G01*
X132385000Y-111945000D01*
G75*
G02*
X132185000Y-112145000I-200000J0D01*
G01*
X131785000Y-112145000D01*
G75*
G02*
X131585000Y-111945000I0J200000D01*
G01*
G37*
%TD*%
%TO.C,R6*%
G36*
G01*
X121665000Y-109830000D02*
X121115000Y-109830000D01*
G75*
G02*
X120915000Y-109630000I0J200000D01*
G01*
X120915000Y-109230000D01*
G75*
G02*
X121115000Y-109030000I200000J0D01*
G01*
X121665000Y-109030000D01*
G75*
G02*
X121865000Y-109230000I0J-200000D01*
G01*
X121865000Y-109630000D01*
G75*
G02*
X121665000Y-109830000I-200000J0D01*
G01*
G37*
G36*
G01*
X121665000Y-108180000D02*
X121115000Y-108180000D01*
G75*
G02*
X120915000Y-107980000I0J200000D01*
G01*
X120915000Y-107580000D01*
G75*
G02*
X121115000Y-107380000I200000J0D01*
G01*
X121665000Y-107380000D01*
G75*
G02*
X121865000Y-107580000I0J-200000D01*
G01*
X121865000Y-107980000D01*
G75*
G02*
X121665000Y-108180000I-200000J0D01*
G01*
G37*
%TD*%
D10*
%TO.C,SW2*%
X110325000Y-110425000D03*
X110325000Y-114575000D03*
X108175000Y-110425000D03*
X108175000Y-114575000D03*
%TD*%
D11*
%TO.C,U1*%
X121460000Y-134300000D03*
X121460000Y-136200000D03*
X123460000Y-135250000D03*
%TD*%
%TO.C,U2*%
G36*
G01*
X132825000Y-114710000D02*
X132975000Y-114710000D01*
G75*
G02*
X133050000Y-114785000I0J-75000D01*
G01*
X133050000Y-116110000D01*
G75*
G02*
X132975000Y-116185000I-75000J0D01*
G01*
X132825000Y-116185000D01*
G75*
G02*
X132750000Y-116110000I0J75000D01*
G01*
X132750000Y-114785000D01*
G75*
G02*
X132825000Y-114710000I75000J0D01*
G01*
G37*
G36*
G01*
X132325000Y-114710000D02*
X132475000Y-114710000D01*
G75*
G02*
X132550000Y-114785000I0J-75000D01*
G01*
X132550000Y-116110000D01*
G75*
G02*
X132475000Y-116185000I-75000J0D01*
G01*
X132325000Y-116185000D01*
G75*
G02*
X132250000Y-116110000I0J75000D01*
G01*
X132250000Y-114785000D01*
G75*
G02*
X132325000Y-114710000I75000J0D01*
G01*
G37*
G36*
G01*
X131825000Y-114710000D02*
X131975000Y-114710000D01*
G75*
G02*
X132050000Y-114785000I0J-75000D01*
G01*
X132050000Y-116110000D01*
G75*
G02*
X131975000Y-116185000I-75000J0D01*
G01*
X131825000Y-116185000D01*
G75*
G02*
X131750000Y-116110000I0J75000D01*
G01*
X131750000Y-114785000D01*
G75*
G02*
X131825000Y-114710000I75000J0D01*
G01*
G37*
G36*
G01*
X131325000Y-114710000D02*
X131475000Y-114710000D01*
G75*
G02*
X131550000Y-114785000I0J-75000D01*
G01*
X131550000Y-116110000D01*
G75*
G02*
X131475000Y-116185000I-75000J0D01*
G01*
X131325000Y-116185000D01*
G75*
G02*
X131250000Y-116110000I0J75000D01*
G01*
X131250000Y-114785000D01*
G75*
G02*
X131325000Y-114710000I75000J0D01*
G01*
G37*
G36*
G01*
X130825000Y-114710000D02*
X130975000Y-114710000D01*
G75*
G02*
X131050000Y-114785000I0J-75000D01*
G01*
X131050000Y-116110000D01*
G75*
G02*
X130975000Y-116185000I-75000J0D01*
G01*
X130825000Y-116185000D01*
G75*
G02*
X130750000Y-116110000I0J75000D01*
G01*
X130750000Y-114785000D01*
G75*
G02*
X130825000Y-114710000I75000J0D01*
G01*
G37*
G36*
G01*
X130325000Y-114710000D02*
X130475000Y-114710000D01*
G75*
G02*
X130550000Y-114785000I0J-75000D01*
G01*
X130550000Y-116110000D01*
G75*
G02*
X130475000Y-116185000I-75000J0D01*
G01*
X130325000Y-116185000D01*
G75*
G02*
X130250000Y-116110000I0J75000D01*
G01*
X130250000Y-114785000D01*
G75*
G02*
X130325000Y-114710000I75000J0D01*
G01*
G37*
G36*
G01*
X129825000Y-114710000D02*
X129975000Y-114710000D01*
G75*
G02*
X130050000Y-114785000I0J-75000D01*
G01*
X130050000Y-116110000D01*
G75*
G02*
X129975000Y-116185000I-75000J0D01*
G01*
X129825000Y-116185000D01*
G75*
G02*
X129750000Y-116110000I0J75000D01*
G01*
X129750000Y-114785000D01*
G75*
G02*
X129825000Y-114710000I75000J0D01*
G01*
G37*
G36*
G01*
X129325000Y-114710000D02*
X129475000Y-114710000D01*
G75*
G02*
X129550000Y-114785000I0J-75000D01*
G01*
X129550000Y-116110000D01*
G75*
G02*
X129475000Y-116185000I-75000J0D01*
G01*
X129325000Y-116185000D01*
G75*
G02*
X129250000Y-116110000I0J75000D01*
G01*
X129250000Y-114785000D01*
G75*
G02*
X129325000Y-114710000I75000J0D01*
G01*
G37*
G36*
G01*
X128825000Y-114710000D02*
X128975000Y-114710000D01*
G75*
G02*
X129050000Y-114785000I0J-75000D01*
G01*
X129050000Y-116110000D01*
G75*
G02*
X128975000Y-116185000I-75000J0D01*
G01*
X128825000Y-116185000D01*
G75*
G02*
X128750000Y-116110000I0J75000D01*
G01*
X128750000Y-114785000D01*
G75*
G02*
X128825000Y-114710000I75000J0D01*
G01*
G37*
G36*
G01*
X128325000Y-114710000D02*
X128475000Y-114710000D01*
G75*
G02*
X128550000Y-114785000I0J-75000D01*
G01*
X128550000Y-116110000D01*
G75*
G02*
X128475000Y-116185000I-75000J0D01*
G01*
X128325000Y-116185000D01*
G75*
G02*
X128250000Y-116110000I0J75000D01*
G01*
X128250000Y-114785000D01*
G75*
G02*
X128325000Y-114710000I75000J0D01*
G01*
G37*
G36*
G01*
X127825000Y-114710000D02*
X127975000Y-114710000D01*
G75*
G02*
X128050000Y-114785000I0J-75000D01*
G01*
X128050000Y-116110000D01*
G75*
G02*
X127975000Y-116185000I-75000J0D01*
G01*
X127825000Y-116185000D01*
G75*
G02*
X127750000Y-116110000I0J75000D01*
G01*
X127750000Y-114785000D01*
G75*
G02*
X127825000Y-114710000I75000J0D01*
G01*
G37*
G36*
G01*
X127325000Y-114710000D02*
X127475000Y-114710000D01*
G75*
G02*
X127550000Y-114785000I0J-75000D01*
G01*
X127550000Y-116110000D01*
G75*
G02*
X127475000Y-116185000I-75000J0D01*
G01*
X127325000Y-116185000D01*
G75*
G02*
X127250000Y-116110000I0J75000D01*
G01*
X127250000Y-114785000D01*
G75*
G02*
X127325000Y-114710000I75000J0D01*
G01*
G37*
G36*
G01*
X125325000Y-116710000D02*
X126650000Y-116710000D01*
G75*
G02*
X126725000Y-116785000I0J-75000D01*
G01*
X126725000Y-116935000D01*
G75*
G02*
X126650000Y-117010000I-75000J0D01*
G01*
X125325000Y-117010000D01*
G75*
G02*
X125250000Y-116935000I0J75000D01*
G01*
X125250000Y-116785000D01*
G75*
G02*
X125325000Y-116710000I75000J0D01*
G01*
G37*
G36*
G01*
X125325000Y-117210000D02*
X126650000Y-117210000D01*
G75*
G02*
X126725000Y-117285000I0J-75000D01*
G01*
X126725000Y-117435000D01*
G75*
G02*
X126650000Y-117510000I-75000J0D01*
G01*
X125325000Y-117510000D01*
G75*
G02*
X125250000Y-117435000I0J75000D01*
G01*
X125250000Y-117285000D01*
G75*
G02*
X125325000Y-117210000I75000J0D01*
G01*
G37*
G36*
G01*
X125325000Y-117710000D02*
X126650000Y-117710000D01*
G75*
G02*
X126725000Y-117785000I0J-75000D01*
G01*
X126725000Y-117935000D01*
G75*
G02*
X126650000Y-118010000I-75000J0D01*
G01*
X125325000Y-118010000D01*
G75*
G02*
X125250000Y-117935000I0J75000D01*
G01*
X125250000Y-117785000D01*
G75*
G02*
X125325000Y-117710000I75000J0D01*
G01*
G37*
G36*
G01*
X125325000Y-118210000D02*
X126650000Y-118210000D01*
G75*
G02*
X126725000Y-118285000I0J-75000D01*
G01*
X126725000Y-118435000D01*
G75*
G02*
X126650000Y-118510000I-75000J0D01*
G01*
X125325000Y-118510000D01*
G75*
G02*
X125250000Y-118435000I0J75000D01*
G01*
X125250000Y-118285000D01*
G75*
G02*
X125325000Y-118210000I75000J0D01*
G01*
G37*
G36*
G01*
X125325000Y-118710000D02*
X126650000Y-118710000D01*
G75*
G02*
X126725000Y-118785000I0J-75000D01*
G01*
X126725000Y-118935000D01*
G75*
G02*
X126650000Y-119010000I-75000J0D01*
G01*
X125325000Y-119010000D01*
G75*
G02*
X125250000Y-118935000I0J75000D01*
G01*
X125250000Y-118785000D01*
G75*
G02*
X125325000Y-118710000I75000J0D01*
G01*
G37*
G36*
G01*
X125325000Y-119210000D02*
X126650000Y-119210000D01*
G75*
G02*
X126725000Y-119285000I0J-75000D01*
G01*
X126725000Y-119435000D01*
G75*
G02*
X126650000Y-119510000I-75000J0D01*
G01*
X125325000Y-119510000D01*
G75*
G02*
X125250000Y-119435000I0J75000D01*
G01*
X125250000Y-119285000D01*
G75*
G02*
X125325000Y-119210000I75000J0D01*
G01*
G37*
G36*
G01*
X125325000Y-119710000D02*
X126650000Y-119710000D01*
G75*
G02*
X126725000Y-119785000I0J-75000D01*
G01*
X126725000Y-119935000D01*
G75*
G02*
X126650000Y-120010000I-75000J0D01*
G01*
X125325000Y-120010000D01*
G75*
G02*
X125250000Y-119935000I0J75000D01*
G01*
X125250000Y-119785000D01*
G75*
G02*
X125325000Y-119710000I75000J0D01*
G01*
G37*
G36*
G01*
X125325000Y-120210000D02*
X126650000Y-120210000D01*
G75*
G02*
X126725000Y-120285000I0J-75000D01*
G01*
X126725000Y-120435000D01*
G75*
G02*
X126650000Y-120510000I-75000J0D01*
G01*
X125325000Y-120510000D01*
G75*
G02*
X125250000Y-120435000I0J75000D01*
G01*
X125250000Y-120285000D01*
G75*
G02*
X125325000Y-120210000I75000J0D01*
G01*
G37*
G36*
G01*
X125325000Y-120710000D02*
X126650000Y-120710000D01*
G75*
G02*
X126725000Y-120785000I0J-75000D01*
G01*
X126725000Y-120935000D01*
G75*
G02*
X126650000Y-121010000I-75000J0D01*
G01*
X125325000Y-121010000D01*
G75*
G02*
X125250000Y-120935000I0J75000D01*
G01*
X125250000Y-120785000D01*
G75*
G02*
X125325000Y-120710000I75000J0D01*
G01*
G37*
G36*
G01*
X125325000Y-121210000D02*
X126650000Y-121210000D01*
G75*
G02*
X126725000Y-121285000I0J-75000D01*
G01*
X126725000Y-121435000D01*
G75*
G02*
X126650000Y-121510000I-75000J0D01*
G01*
X125325000Y-121510000D01*
G75*
G02*
X125250000Y-121435000I0J75000D01*
G01*
X125250000Y-121285000D01*
G75*
G02*
X125325000Y-121210000I75000J0D01*
G01*
G37*
G36*
G01*
X125325000Y-121710000D02*
X126650000Y-121710000D01*
G75*
G02*
X126725000Y-121785000I0J-75000D01*
G01*
X126725000Y-121935000D01*
G75*
G02*
X126650000Y-122010000I-75000J0D01*
G01*
X125325000Y-122010000D01*
G75*
G02*
X125250000Y-121935000I0J75000D01*
G01*
X125250000Y-121785000D01*
G75*
G02*
X125325000Y-121710000I75000J0D01*
G01*
G37*
G36*
G01*
X125325000Y-122210000D02*
X126650000Y-122210000D01*
G75*
G02*
X126725000Y-122285000I0J-75000D01*
G01*
X126725000Y-122435000D01*
G75*
G02*
X126650000Y-122510000I-75000J0D01*
G01*
X125325000Y-122510000D01*
G75*
G02*
X125250000Y-122435000I0J75000D01*
G01*
X125250000Y-122285000D01*
G75*
G02*
X125325000Y-122210000I75000J0D01*
G01*
G37*
G36*
G01*
X127325000Y-123035000D02*
X127475000Y-123035000D01*
G75*
G02*
X127550000Y-123110000I0J-75000D01*
G01*
X127550000Y-124435000D01*
G75*
G02*
X127475000Y-124510000I-75000J0D01*
G01*
X127325000Y-124510000D01*
G75*
G02*
X127250000Y-124435000I0J75000D01*
G01*
X127250000Y-123110000D01*
G75*
G02*
X127325000Y-123035000I75000J0D01*
G01*
G37*
G36*
G01*
X127825000Y-123035000D02*
X127975000Y-123035000D01*
G75*
G02*
X128050000Y-123110000I0J-75000D01*
G01*
X128050000Y-124435000D01*
G75*
G02*
X127975000Y-124510000I-75000J0D01*
G01*
X127825000Y-124510000D01*
G75*
G02*
X127750000Y-124435000I0J75000D01*
G01*
X127750000Y-123110000D01*
G75*
G02*
X127825000Y-123035000I75000J0D01*
G01*
G37*
G36*
G01*
X128325000Y-123035000D02*
X128475000Y-123035000D01*
G75*
G02*
X128550000Y-123110000I0J-75000D01*
G01*
X128550000Y-124435000D01*
G75*
G02*
X128475000Y-124510000I-75000J0D01*
G01*
X128325000Y-124510000D01*
G75*
G02*
X128250000Y-124435000I0J75000D01*
G01*
X128250000Y-123110000D01*
G75*
G02*
X128325000Y-123035000I75000J0D01*
G01*
G37*
G36*
G01*
X128825000Y-123035000D02*
X128975000Y-123035000D01*
G75*
G02*
X129050000Y-123110000I0J-75000D01*
G01*
X129050000Y-124435000D01*
G75*
G02*
X128975000Y-124510000I-75000J0D01*
G01*
X128825000Y-124510000D01*
G75*
G02*
X128750000Y-124435000I0J75000D01*
G01*
X128750000Y-123110000D01*
G75*
G02*
X128825000Y-123035000I75000J0D01*
G01*
G37*
G36*
G01*
X129325000Y-123035000D02*
X129475000Y-123035000D01*
G75*
G02*
X129550000Y-123110000I0J-75000D01*
G01*
X129550000Y-124435000D01*
G75*
G02*
X129475000Y-124510000I-75000J0D01*
G01*
X129325000Y-124510000D01*
G75*
G02*
X129250000Y-124435000I0J75000D01*
G01*
X129250000Y-123110000D01*
G75*
G02*
X129325000Y-123035000I75000J0D01*
G01*
G37*
G36*
G01*
X129825000Y-123035000D02*
X129975000Y-123035000D01*
G75*
G02*
X130050000Y-123110000I0J-75000D01*
G01*
X130050000Y-124435000D01*
G75*
G02*
X129975000Y-124510000I-75000J0D01*
G01*
X129825000Y-124510000D01*
G75*
G02*
X129750000Y-124435000I0J75000D01*
G01*
X129750000Y-123110000D01*
G75*
G02*
X129825000Y-123035000I75000J0D01*
G01*
G37*
G36*
G01*
X130325000Y-123035000D02*
X130475000Y-123035000D01*
G75*
G02*
X130550000Y-123110000I0J-75000D01*
G01*
X130550000Y-124435000D01*
G75*
G02*
X130475000Y-124510000I-75000J0D01*
G01*
X130325000Y-124510000D01*
G75*
G02*
X130250000Y-124435000I0J75000D01*
G01*
X130250000Y-123110000D01*
G75*
G02*
X130325000Y-123035000I75000J0D01*
G01*
G37*
G36*
G01*
X130825000Y-123035000D02*
X130975000Y-123035000D01*
G75*
G02*
X131050000Y-123110000I0J-75000D01*
G01*
X131050000Y-124435000D01*
G75*
G02*
X130975000Y-124510000I-75000J0D01*
G01*
X130825000Y-124510000D01*
G75*
G02*
X130750000Y-124435000I0J75000D01*
G01*
X130750000Y-123110000D01*
G75*
G02*
X130825000Y-123035000I75000J0D01*
G01*
G37*
G36*
G01*
X131325000Y-123035000D02*
X131475000Y-123035000D01*
G75*
G02*
X131550000Y-123110000I0J-75000D01*
G01*
X131550000Y-124435000D01*
G75*
G02*
X131475000Y-124510000I-75000J0D01*
G01*
X131325000Y-124510000D01*
G75*
G02*
X131250000Y-124435000I0J75000D01*
G01*
X131250000Y-123110000D01*
G75*
G02*
X131325000Y-123035000I75000J0D01*
G01*
G37*
G36*
G01*
X131825000Y-123035000D02*
X131975000Y-123035000D01*
G75*
G02*
X132050000Y-123110000I0J-75000D01*
G01*
X132050000Y-124435000D01*
G75*
G02*
X131975000Y-124510000I-75000J0D01*
G01*
X131825000Y-124510000D01*
G75*
G02*
X131750000Y-124435000I0J75000D01*
G01*
X131750000Y-123110000D01*
G75*
G02*
X131825000Y-123035000I75000J0D01*
G01*
G37*
G36*
G01*
X132325000Y-123035000D02*
X132475000Y-123035000D01*
G75*
G02*
X132550000Y-123110000I0J-75000D01*
G01*
X132550000Y-124435000D01*
G75*
G02*
X132475000Y-124510000I-75000J0D01*
G01*
X132325000Y-124510000D01*
G75*
G02*
X132250000Y-124435000I0J75000D01*
G01*
X132250000Y-123110000D01*
G75*
G02*
X132325000Y-123035000I75000J0D01*
G01*
G37*
G36*
G01*
X132825000Y-123035000D02*
X132975000Y-123035000D01*
G75*
G02*
X133050000Y-123110000I0J-75000D01*
G01*
X133050000Y-124435000D01*
G75*
G02*
X132975000Y-124510000I-75000J0D01*
G01*
X132825000Y-124510000D01*
G75*
G02*
X132750000Y-124435000I0J75000D01*
G01*
X132750000Y-123110000D01*
G75*
G02*
X132825000Y-123035000I75000J0D01*
G01*
G37*
G36*
G01*
X133650000Y-122210000D02*
X134975000Y-122210000D01*
G75*
G02*
X135050000Y-122285000I0J-75000D01*
G01*
X135050000Y-122435000D01*
G75*
G02*
X134975000Y-122510000I-75000J0D01*
G01*
X133650000Y-122510000D01*
G75*
G02*
X133575000Y-122435000I0J75000D01*
G01*
X133575000Y-122285000D01*
G75*
G02*
X133650000Y-122210000I75000J0D01*
G01*
G37*
G36*
G01*
X133650000Y-121710000D02*
X134975000Y-121710000D01*
G75*
G02*
X135050000Y-121785000I0J-75000D01*
G01*
X135050000Y-121935000D01*
G75*
G02*
X134975000Y-122010000I-75000J0D01*
G01*
X133650000Y-122010000D01*
G75*
G02*
X133575000Y-121935000I0J75000D01*
G01*
X133575000Y-121785000D01*
G75*
G02*
X133650000Y-121710000I75000J0D01*
G01*
G37*
G36*
G01*
X133650000Y-121210000D02*
X134975000Y-121210000D01*
G75*
G02*
X135050000Y-121285000I0J-75000D01*
G01*
X135050000Y-121435000D01*
G75*
G02*
X134975000Y-121510000I-75000J0D01*
G01*
X133650000Y-121510000D01*
G75*
G02*
X133575000Y-121435000I0J75000D01*
G01*
X133575000Y-121285000D01*
G75*
G02*
X133650000Y-121210000I75000J0D01*
G01*
G37*
G36*
G01*
X133650000Y-120710000D02*
X134975000Y-120710000D01*
G75*
G02*
X135050000Y-120785000I0J-75000D01*
G01*
X135050000Y-120935000D01*
G75*
G02*
X134975000Y-121010000I-75000J0D01*
G01*
X133650000Y-121010000D01*
G75*
G02*
X133575000Y-120935000I0J75000D01*
G01*
X133575000Y-120785000D01*
G75*
G02*
X133650000Y-120710000I75000J0D01*
G01*
G37*
G36*
G01*
X133650000Y-120210000D02*
X134975000Y-120210000D01*
G75*
G02*
X135050000Y-120285000I0J-75000D01*
G01*
X135050000Y-120435000D01*
G75*
G02*
X134975000Y-120510000I-75000J0D01*
G01*
X133650000Y-120510000D01*
G75*
G02*
X133575000Y-120435000I0J75000D01*
G01*
X133575000Y-120285000D01*
G75*
G02*
X133650000Y-120210000I75000J0D01*
G01*
G37*
G36*
G01*
X133650000Y-119710000D02*
X134975000Y-119710000D01*
G75*
G02*
X135050000Y-119785000I0J-75000D01*
G01*
X135050000Y-119935000D01*
G75*
G02*
X134975000Y-120010000I-75000J0D01*
G01*
X133650000Y-120010000D01*
G75*
G02*
X133575000Y-119935000I0J75000D01*
G01*
X133575000Y-119785000D01*
G75*
G02*
X133650000Y-119710000I75000J0D01*
G01*
G37*
G36*
G01*
X133650000Y-119210000D02*
X134975000Y-119210000D01*
G75*
G02*
X135050000Y-119285000I0J-75000D01*
G01*
X135050000Y-119435000D01*
G75*
G02*
X134975000Y-119510000I-75000J0D01*
G01*
X133650000Y-119510000D01*
G75*
G02*
X133575000Y-119435000I0J75000D01*
G01*
X133575000Y-119285000D01*
G75*
G02*
X133650000Y-119210000I75000J0D01*
G01*
G37*
G36*
G01*
X133650000Y-118710000D02*
X134975000Y-118710000D01*
G75*
G02*
X135050000Y-118785000I0J-75000D01*
G01*
X135050000Y-118935000D01*
G75*
G02*
X134975000Y-119010000I-75000J0D01*
G01*
X133650000Y-119010000D01*
G75*
G02*
X133575000Y-118935000I0J75000D01*
G01*
X133575000Y-118785000D01*
G75*
G02*
X133650000Y-118710000I75000J0D01*
G01*
G37*
G36*
G01*
X133650000Y-118210000D02*
X134975000Y-118210000D01*
G75*
G02*
X135050000Y-118285000I0J-75000D01*
G01*
X135050000Y-118435000D01*
G75*
G02*
X134975000Y-118510000I-75000J0D01*
G01*
X133650000Y-118510000D01*
G75*
G02*
X133575000Y-118435000I0J75000D01*
G01*
X133575000Y-118285000D01*
G75*
G02*
X133650000Y-118210000I75000J0D01*
G01*
G37*
G36*
G01*
X133650000Y-117710000D02*
X134975000Y-117710000D01*
G75*
G02*
X135050000Y-117785000I0J-75000D01*
G01*
X135050000Y-117935000D01*
G75*
G02*
X134975000Y-118010000I-75000J0D01*
G01*
X133650000Y-118010000D01*
G75*
G02*
X133575000Y-117935000I0J75000D01*
G01*
X133575000Y-117785000D01*
G75*
G02*
X133650000Y-117710000I75000J0D01*
G01*
G37*
G36*
G01*
X133650000Y-117210000D02*
X134975000Y-117210000D01*
G75*
G02*
X135050000Y-117285000I0J-75000D01*
G01*
X135050000Y-117435000D01*
G75*
G02*
X134975000Y-117510000I-75000J0D01*
G01*
X133650000Y-117510000D01*
G75*
G02*
X133575000Y-117435000I0J75000D01*
G01*
X133575000Y-117285000D01*
G75*
G02*
X133650000Y-117210000I75000J0D01*
G01*
G37*
G36*
G01*
X133650000Y-116710000D02*
X134975000Y-116710000D01*
G75*
G02*
X135050000Y-116785000I0J-75000D01*
G01*
X135050000Y-116935000D01*
G75*
G02*
X134975000Y-117010000I-75000J0D01*
G01*
X133650000Y-117010000D01*
G75*
G02*
X133575000Y-116935000I0J75000D01*
G01*
X133575000Y-116785000D01*
G75*
G02*
X133650000Y-116710000I75000J0D01*
G01*
G37*
%TD*%
D12*
%TO.C,Y1*%
X133020000Y-108730000D03*
X129320000Y-108730000D03*
%TD*%
D13*
%TO.C,Y2*%
G36*
X134793934Y-114046726D02*
G01*
X136066726Y-112773934D01*
X136773832Y-113481040D01*
X135501040Y-114753832D01*
X134793934Y-114046726D01*
G37*
G36*
X133026168Y-112278960D02*
G01*
X134298960Y-111006168D01*
X135006066Y-111713274D01*
X133733274Y-112986066D01*
X133026168Y-112278960D01*
G37*
%TD*%
%TO.C,C3*%
G36*
G01*
X136280000Y-115130000D02*
X136280000Y-114790000D01*
G75*
G02*
X136420000Y-114650000I140000J0D01*
G01*
X136700000Y-114650000D01*
G75*
G02*
X136840000Y-114790000I0J-140000D01*
G01*
X136840000Y-115130000D01*
G75*
G02*
X136700000Y-115270000I-140000J0D01*
G01*
X136420000Y-115270000D01*
G75*
G02*
X136280000Y-115130000I0J140000D01*
G01*
G37*
G36*
G01*
X137240000Y-115130000D02*
X137240000Y-114790000D01*
G75*
G02*
X137380000Y-114650000I140000J0D01*
G01*
X137660000Y-114650000D01*
G75*
G02*
X137800000Y-114790000I0J-140000D01*
G01*
X137800000Y-115130000D01*
G75*
G02*
X137660000Y-115270000I-140000J0D01*
G01*
X137380000Y-115270000D01*
G75*
G02*
X137240000Y-115130000I0J140000D01*
G01*
G37*
%TD*%
%TO.C,C4*%
G36*
G01*
X136190000Y-116100000D02*
X136190000Y-115760000D01*
G75*
G02*
X136330000Y-115620000I140000J0D01*
G01*
X136610000Y-115620000D01*
G75*
G02*
X136750000Y-115760000I0J-140000D01*
G01*
X136750000Y-116100000D01*
G75*
G02*
X136610000Y-116240000I-140000J0D01*
G01*
X136330000Y-116240000D01*
G75*
G02*
X136190000Y-116100000I0J140000D01*
G01*
G37*
G36*
G01*
X135230000Y-116100000D02*
X135230000Y-115760000D01*
G75*
G02*
X135370000Y-115620000I140000J0D01*
G01*
X135650000Y-115620000D01*
G75*
G02*
X135790000Y-115760000I0J-140000D01*
G01*
X135790000Y-116100000D01*
G75*
G02*
X135650000Y-116240000I-140000J0D01*
G01*
X135370000Y-116240000D01*
G75*
G02*
X135230000Y-116100000I0J140000D01*
G01*
G37*
%TD*%
%TO.C,C5*%
G36*
G01*
X133662391Y-114462807D02*
X133902807Y-114222391D01*
G75*
G02*
X134100797Y-114222391I98995J-98995D01*
G01*
X134298787Y-114420381D01*
G75*
G02*
X134298787Y-114618371I-98995J-98995D01*
G01*
X134058371Y-114858787D01*
G75*
G02*
X133860381Y-114858787I-98995J98995D01*
G01*
X133662391Y-114660797D01*
G75*
G02*
X133662391Y-114462807I98995J98995D01*
G01*
G37*
G36*
G01*
X134341213Y-115141629D02*
X134581629Y-114901213D01*
G75*
G02*
X134779619Y-114901213I98995J-98995D01*
G01*
X134977609Y-115099203D01*
G75*
G02*
X134977609Y-115297193I-98995J-98995D01*
G01*
X134737193Y-115537609D01*
G75*
G02*
X134539203Y-115537609I-98995J98995D01*
G01*
X134341213Y-115339619D01*
G75*
G02*
X134341213Y-115141629I98995J98995D01*
G01*
G37*
%TD*%
%TO.C,C6*%
G36*
G01*
X125050000Y-123260000D02*
X125050000Y-123600000D01*
G75*
G02*
X124910000Y-123740000I-140000J0D01*
G01*
X124630000Y-123740000D01*
G75*
G02*
X124490000Y-123600000I0J140000D01*
G01*
X124490000Y-123260000D01*
G75*
G02*
X124630000Y-123120000I140000J0D01*
G01*
X124910000Y-123120000D01*
G75*
G02*
X125050000Y-123260000I0J-140000D01*
G01*
G37*
G36*
G01*
X126010000Y-123260000D02*
X126010000Y-123600000D01*
G75*
G02*
X125870000Y-123740000I-140000J0D01*
G01*
X125590000Y-123740000D01*
G75*
G02*
X125450000Y-123600000I0J140000D01*
G01*
X125450000Y-123260000D01*
G75*
G02*
X125590000Y-123120000I140000J0D01*
G01*
X125870000Y-123120000D01*
G75*
G02*
X126010000Y-123260000I0J-140000D01*
G01*
G37*
%TD*%
%TO.C,R8*%
G36*
G01*
X105895000Y-118215000D02*
X105895000Y-118765000D01*
G75*
G02*
X105695000Y-118965000I-200000J0D01*
G01*
X105295000Y-118965000D01*
G75*
G02*
X105095000Y-118765000I0J200000D01*
G01*
X105095000Y-118215000D01*
G75*
G02*
X105295000Y-118015000I200000J0D01*
G01*
X105695000Y-118015000D01*
G75*
G02*
X105895000Y-118215000I0J-200000D01*
G01*
G37*
G36*
G01*
X104245000Y-118215000D02*
X104245000Y-118765000D01*
G75*
G02*
X104045000Y-118965000I-200000J0D01*
G01*
X103645000Y-118965000D01*
G75*
G02*
X103445000Y-118765000I0J200000D01*
G01*
X103445000Y-118215000D01*
G75*
G02*
X103645000Y-118015000I200000J0D01*
G01*
X104045000Y-118015000D01*
G75*
G02*
X104245000Y-118215000I0J-200000D01*
G01*
G37*
%TD*%
D14*
%TO.C,J1*%
X134935520Y-134373940D03*
X127884480Y-134406960D03*
D15*
X135160000Y-137170000D03*
X127660000Y-137170000D03*
D16*
X132710000Y-134320000D03*
X132060000Y-134320000D03*
X131410000Y-134320000D03*
X130760000Y-134320000D03*
X130110000Y-134320000D03*
%TD*%
M02*
