%TF.GenerationSoftware,KiCad,Pcbnew,(5.1.8)-1*%
%TF.CreationDate,2021-06-10T03:31:17+02:00*%
%TF.ProjectId,GD32F190-dev-brd,47443332-4631-4393-902d-6465762d6272,rev?*%
%TF.SameCoordinates,Original*%
%TF.FileFunction,Legend,Top*%
%TF.FilePolarity,Positive*%
%FSLAX46Y46*%
G04 Gerber Fmt 4.6, Leading zero omitted, Abs format (unit mm)*
G04 Created by KiCad (PCBNEW (5.1.8)-1) date 2021-06-10 03:31:17*
%MOMM*%
%LPD*%
G01*
G04 APERTURE LIST*
%ADD10C,0.300000*%
%ADD11C,0.200000*%
%ADD12C,0.150000*%
%ADD13C,0.120000*%
%ADD14C,0.100000*%
G04 APERTURE END LIST*
D10*
X134130000Y-115784285D02*
X134225238Y-115879523D01*
X134130000Y-115974761D01*
X134034761Y-115879523D01*
X134130000Y-115784285D01*
X134130000Y-115974761D01*
X119490000Y-114604285D02*
X119585238Y-114699523D01*
X119490000Y-114794761D01*
X119394761Y-114699523D01*
X119490000Y-114604285D01*
X119490000Y-114794761D01*
D11*
X117589523Y-127072380D02*
X117113333Y-127072380D01*
X117065714Y-127548571D01*
X117113333Y-127500952D01*
X117208571Y-127453333D01*
X117446666Y-127453333D01*
X117541904Y-127500952D01*
X117589523Y-127548571D01*
X117637142Y-127643809D01*
X117637142Y-127881904D01*
X117589523Y-127977142D01*
X117541904Y-128024761D01*
X117446666Y-128072380D01*
X117208571Y-128072380D01*
X117113333Y-128024761D01*
X117065714Y-127977142D01*
X117922857Y-127072380D02*
X118256190Y-128072380D01*
X118589523Y-127072380D01*
X103461904Y-126982380D02*
X104080952Y-126982380D01*
X103747619Y-127363333D01*
X103890476Y-127363333D01*
X103985714Y-127410952D01*
X104033333Y-127458571D01*
X104080952Y-127553809D01*
X104080952Y-127791904D01*
X104033333Y-127887142D01*
X103985714Y-127934761D01*
X103890476Y-127982380D01*
X103604761Y-127982380D01*
X103509523Y-127934761D01*
X103461904Y-127887142D01*
X104366666Y-126982380D02*
X104700000Y-127982380D01*
X105033333Y-126982380D01*
X105271428Y-126982380D02*
X105890476Y-126982380D01*
X105557142Y-127363333D01*
X105700000Y-127363333D01*
X105795238Y-127410952D01*
X105842857Y-127458571D01*
X105890476Y-127553809D01*
X105890476Y-127791904D01*
X105842857Y-127887142D01*
X105795238Y-127934761D01*
X105700000Y-127982380D01*
X105414285Y-127982380D01*
X105319047Y-127934761D01*
X105271428Y-127887142D01*
D12*
X136605595Y-122345000D02*
X136500833Y-122268809D01*
X136343690Y-122268809D01*
X136186547Y-122345000D01*
X136081785Y-122497380D01*
X136029404Y-122649761D01*
X135977023Y-122954523D01*
X135977023Y-123183095D01*
X136029404Y-123487857D01*
X136081785Y-123640238D01*
X136186547Y-123792619D01*
X136343690Y-123868809D01*
X136448452Y-123868809D01*
X136605595Y-123792619D01*
X136657976Y-123716428D01*
X136657976Y-123183095D01*
X136448452Y-123183095D01*
X137129404Y-122802142D02*
X137129404Y-123868809D01*
X137129404Y-122954523D02*
X137181785Y-122878333D01*
X137286547Y-122802142D01*
X137443690Y-122802142D01*
X137548452Y-122878333D01*
X137600833Y-123030714D01*
X137600833Y-123868809D01*
X138596071Y-123868809D02*
X138596071Y-122268809D01*
X138596071Y-123792619D02*
X138491309Y-123868809D01*
X138281785Y-123868809D01*
X138177023Y-123792619D01*
X138124642Y-123716428D01*
X138072261Y-123564047D01*
X138072261Y-123106904D01*
X138124642Y-122954523D01*
X138177023Y-122878333D01*
X138281785Y-122802142D01*
X138491309Y-122802142D01*
X138596071Y-122878333D01*
X135872261Y-124818809D02*
X136238928Y-126418809D01*
X136605595Y-124818809D01*
X137443690Y-126418809D02*
X137443690Y-124818809D01*
X137443690Y-126342619D02*
X137338928Y-126418809D01*
X137129404Y-126418809D01*
X137024642Y-126342619D01*
X136972261Y-126266428D01*
X136919880Y-126114047D01*
X136919880Y-125656904D01*
X136972261Y-125504523D01*
X137024642Y-125428333D01*
X137129404Y-125352142D01*
X137338928Y-125352142D01*
X137443690Y-125428333D01*
X138438928Y-126418809D02*
X138438928Y-124818809D01*
X138438928Y-126342619D02*
X138334166Y-126418809D01*
X138124642Y-126418809D01*
X138019880Y-126342619D01*
X137967500Y-126266428D01*
X137915119Y-126114047D01*
X137915119Y-125656904D01*
X137967500Y-125504523D01*
X138019880Y-125428333D01*
X138124642Y-125352142D01*
X138334166Y-125352142D01*
X138438928Y-125428333D01*
X136657976Y-128968809D02*
X136291309Y-128206904D01*
X136029404Y-128968809D02*
X136029404Y-127368809D01*
X136448452Y-127368809D01*
X136553214Y-127445000D01*
X136605595Y-127521190D01*
X136657976Y-127673571D01*
X136657976Y-127902142D01*
X136605595Y-128054523D01*
X136553214Y-128130714D01*
X136448452Y-128206904D01*
X136029404Y-128206904D01*
X137024642Y-128968809D02*
X137600833Y-127902142D01*
X137024642Y-127902142D02*
X137600833Y-128968809D01*
X138019880Y-128968809D02*
X138019880Y-127368809D01*
X138281785Y-127368809D01*
X138438928Y-127445000D01*
X138543690Y-127597380D01*
X138596071Y-127749761D01*
X138648452Y-128054523D01*
X138648452Y-128283095D01*
X138596071Y-128587857D01*
X138543690Y-128740238D01*
X138438928Y-128892619D01*
X138281785Y-128968809D01*
X138019880Y-128968809D01*
X135872261Y-129918809D02*
X136500833Y-129918809D01*
X136186547Y-131518809D02*
X136186547Y-129918809D01*
X136762738Y-131518809D02*
X137338928Y-130452142D01*
X136762738Y-130452142D02*
X137338928Y-131518809D01*
X137757976Y-131518809D02*
X137757976Y-129918809D01*
X138019880Y-129918809D01*
X138177023Y-129995000D01*
X138281785Y-130147380D01*
X138334166Y-130299761D01*
X138386547Y-130604523D01*
X138386547Y-130833095D01*
X138334166Y-131137857D01*
X138281785Y-131290238D01*
X138177023Y-131442619D01*
X138019880Y-131518809D01*
X137757976Y-131518809D01*
X122940000Y-120585595D02*
X123016190Y-120480833D01*
X123016190Y-120323690D01*
X122940000Y-120166547D01*
X122787619Y-120061785D01*
X122635238Y-120009404D01*
X122330476Y-119957023D01*
X122101904Y-119957023D01*
X121797142Y-120009404D01*
X121644761Y-120061785D01*
X121492380Y-120166547D01*
X121416190Y-120323690D01*
X121416190Y-120428452D01*
X121492380Y-120585595D01*
X121568571Y-120637976D01*
X122101904Y-120637976D01*
X122101904Y-120428452D01*
X122482857Y-121109404D02*
X121416190Y-121109404D01*
X122330476Y-121109404D02*
X122406666Y-121161785D01*
X122482857Y-121266547D01*
X122482857Y-121423690D01*
X122406666Y-121528452D01*
X122254285Y-121580833D01*
X121416190Y-121580833D01*
X121416190Y-122576071D02*
X123016190Y-122576071D01*
X121492380Y-122576071D02*
X121416190Y-122471309D01*
X121416190Y-122261785D01*
X121492380Y-122157023D01*
X121568571Y-122104642D01*
X121720952Y-122052261D01*
X122178095Y-122052261D01*
X122330476Y-122104642D01*
X122406666Y-122157023D01*
X122482857Y-122261785D01*
X122482857Y-122471309D01*
X122406666Y-122576071D01*
X119018571Y-120637976D02*
X118942380Y-120585595D01*
X118866190Y-120428452D01*
X118866190Y-120323690D01*
X118942380Y-120166547D01*
X119094761Y-120061785D01*
X119247142Y-120009404D01*
X119551904Y-119957023D01*
X119780476Y-119957023D01*
X120085238Y-120009404D01*
X120237619Y-120061785D01*
X120390000Y-120166547D01*
X120466190Y-120323690D01*
X120466190Y-120428452D01*
X120390000Y-120585595D01*
X120313809Y-120637976D01*
X118866190Y-121633214D02*
X118866190Y-121109404D01*
X120466190Y-121109404D01*
X118866190Y-121999880D02*
X120466190Y-121999880D01*
X118866190Y-122628452D02*
X119780476Y-122157023D01*
X120466190Y-122628452D02*
X119551904Y-121999880D01*
X116316190Y-120009404D02*
X117916190Y-120009404D01*
X117916190Y-120271309D01*
X117840000Y-120428452D01*
X117687619Y-120533214D01*
X117535238Y-120585595D01*
X117230476Y-120637976D01*
X117001904Y-120637976D01*
X116697142Y-120585595D01*
X116544761Y-120533214D01*
X116392380Y-120428452D01*
X116316190Y-120271309D01*
X116316190Y-120009404D01*
X116316190Y-121109404D02*
X117916190Y-121109404D01*
X117916190Y-121842738D02*
X117916190Y-122052261D01*
X117840000Y-122157023D01*
X117687619Y-122261785D01*
X117382857Y-122314166D01*
X116849523Y-122314166D01*
X116544761Y-122261785D01*
X116392380Y-122157023D01*
X116316190Y-122052261D01*
X116316190Y-121842738D01*
X116392380Y-121737976D01*
X116544761Y-121633214D01*
X116849523Y-121580833D01*
X117382857Y-121580833D01*
X117687619Y-121633214D01*
X117840000Y-121737976D01*
X117916190Y-121842738D01*
X113766190Y-120637976D02*
X114528095Y-120271309D01*
X113766190Y-120009404D02*
X115366190Y-120009404D01*
X115366190Y-120428452D01*
X115290000Y-120533214D01*
X115213809Y-120585595D01*
X115061428Y-120637976D01*
X114832857Y-120637976D01*
X114680476Y-120585595D01*
X114604285Y-120533214D01*
X114528095Y-120428452D01*
X114528095Y-120009404D01*
X113842380Y-121057023D02*
X113766190Y-121214166D01*
X113766190Y-121476071D01*
X113842380Y-121580833D01*
X113918571Y-121633214D01*
X114070952Y-121685595D01*
X114223333Y-121685595D01*
X114375714Y-121633214D01*
X114451904Y-121580833D01*
X114528095Y-121476071D01*
X114604285Y-121266547D01*
X114680476Y-121161785D01*
X114756666Y-121109404D01*
X114909047Y-121057023D01*
X115061428Y-121057023D01*
X115213809Y-121109404D01*
X115290000Y-121161785D01*
X115366190Y-121266547D01*
X115366190Y-121528452D01*
X115290000Y-121685595D01*
X115366190Y-121999880D02*
X115366190Y-122628452D01*
X113766190Y-122314166D02*
X115366190Y-122314166D01*
X112816190Y-119852261D02*
X111216190Y-120218928D01*
X112816190Y-120585595D01*
X111216190Y-121423690D02*
X112816190Y-121423690D01*
X111292380Y-121423690D02*
X111216190Y-121318928D01*
X111216190Y-121109404D01*
X111292380Y-121004642D01*
X111368571Y-120952261D01*
X111520952Y-120899880D01*
X111978095Y-120899880D01*
X112130476Y-120952261D01*
X112206666Y-121004642D01*
X112282857Y-121109404D01*
X112282857Y-121318928D01*
X112206666Y-121423690D01*
X111216190Y-122418928D02*
X112816190Y-122418928D01*
X111292380Y-122418928D02*
X111216190Y-122314166D01*
X111216190Y-122104642D01*
X111292380Y-121999880D01*
X111368571Y-121947500D01*
X111520952Y-121895119D01*
X111978095Y-121895119D01*
X112130476Y-121947500D01*
X112206666Y-121999880D01*
X112282857Y-122104642D01*
X112282857Y-122314166D01*
X112206666Y-122418928D01*
X124871666Y-97992976D02*
X124871666Y-97469166D01*
X125328809Y-98097738D02*
X123728809Y-97731071D01*
X125328809Y-97364404D01*
X123881190Y-97050119D02*
X123805000Y-96997738D01*
X123728809Y-96892976D01*
X123728809Y-96631071D01*
X123805000Y-96526309D01*
X123881190Y-96473928D01*
X124033571Y-96421547D01*
X124185952Y-96421547D01*
X124414523Y-96473928D01*
X125328809Y-97102500D01*
X125328809Y-96421547D01*
X127421666Y-97992976D02*
X127421666Y-97469166D01*
X127878809Y-98097738D02*
X126278809Y-97731071D01*
X127878809Y-97364404D01*
X127878809Y-96421547D02*
X127878809Y-97050119D01*
X127878809Y-96735833D02*
X126278809Y-96735833D01*
X126507380Y-96840595D01*
X126659761Y-96945357D01*
X126735952Y-97050119D01*
X129971666Y-97992976D02*
X129971666Y-97469166D01*
X130428809Y-98097738D02*
X128828809Y-97731071D01*
X130428809Y-97364404D01*
X128828809Y-96788214D02*
X128828809Y-96683452D01*
X128905000Y-96578690D01*
X128981190Y-96526309D01*
X129133571Y-96473928D01*
X129438333Y-96421547D01*
X129819285Y-96421547D01*
X130124047Y-96473928D01*
X130276428Y-96526309D01*
X130352619Y-96578690D01*
X130428809Y-96683452D01*
X130428809Y-96788214D01*
X130352619Y-96892976D01*
X130276428Y-96945357D01*
X130124047Y-96997738D01*
X129819285Y-97050119D01*
X129438333Y-97050119D01*
X129133571Y-96997738D01*
X128981190Y-96945357D01*
X128905000Y-96892976D01*
X128828809Y-96788214D01*
X132826428Y-97312023D02*
X132902619Y-97364404D01*
X132978809Y-97521547D01*
X132978809Y-97626309D01*
X132902619Y-97783452D01*
X132750238Y-97888214D01*
X132597857Y-97940595D01*
X132293095Y-97992976D01*
X132064523Y-97992976D01*
X131759761Y-97940595D01*
X131607380Y-97888214D01*
X131455000Y-97783452D01*
X131378809Y-97626309D01*
X131378809Y-97521547D01*
X131455000Y-97364404D01*
X131531190Y-97312023D01*
X132978809Y-96264404D02*
X132978809Y-96892976D01*
X132978809Y-96578690D02*
X131378809Y-96578690D01*
X131607380Y-96683452D01*
X131759761Y-96788214D01*
X131835952Y-96892976D01*
X131378809Y-95897738D02*
X131378809Y-95216785D01*
X131988333Y-95583452D01*
X131988333Y-95426309D01*
X132064523Y-95321547D01*
X132140714Y-95269166D01*
X132293095Y-95216785D01*
X132674047Y-95216785D01*
X132826428Y-95269166D01*
X132902619Y-95321547D01*
X132978809Y-95426309D01*
X132978809Y-95740595D01*
X132902619Y-95845357D01*
X132826428Y-95897738D01*
X134690714Y-97573928D02*
X134766904Y-97416785D01*
X134843095Y-97364404D01*
X134995476Y-97312023D01*
X135224047Y-97312023D01*
X135376428Y-97364404D01*
X135452619Y-97416785D01*
X135528809Y-97521547D01*
X135528809Y-97940595D01*
X133928809Y-97940595D01*
X133928809Y-97573928D01*
X134005000Y-97469166D01*
X134081190Y-97416785D01*
X134233571Y-97364404D01*
X134385952Y-97364404D01*
X134538333Y-97416785D01*
X134614523Y-97469166D01*
X134690714Y-97573928D01*
X134690714Y-97940595D01*
X135528809Y-96788214D02*
X135528809Y-96578690D01*
X135452619Y-96473928D01*
X135376428Y-96421547D01*
X135147857Y-96316785D01*
X134843095Y-96264404D01*
X134233571Y-96264404D01*
X134081190Y-96316785D01*
X134005000Y-96369166D01*
X133928809Y-96473928D01*
X133928809Y-96683452D01*
X134005000Y-96788214D01*
X134081190Y-96840595D01*
X134233571Y-96892976D01*
X134614523Y-96892976D01*
X134766904Y-96840595D01*
X134843095Y-96788214D01*
X134919285Y-96683452D01*
X134919285Y-96473928D01*
X134843095Y-96369166D01*
X134766904Y-96316785D01*
X134614523Y-96264404D01*
X137240714Y-97573928D02*
X137316904Y-97416785D01*
X137393095Y-97364404D01*
X137545476Y-97312023D01*
X137774047Y-97312023D01*
X137926428Y-97364404D01*
X138002619Y-97416785D01*
X138078809Y-97521547D01*
X138078809Y-97940595D01*
X136478809Y-97940595D01*
X136478809Y-97573928D01*
X136555000Y-97469166D01*
X136631190Y-97416785D01*
X136783571Y-97364404D01*
X136935952Y-97364404D01*
X137088333Y-97416785D01*
X137164523Y-97469166D01*
X137240714Y-97573928D01*
X137240714Y-97940595D01*
X137164523Y-96683452D02*
X137088333Y-96788214D01*
X137012142Y-96840595D01*
X136859761Y-96892976D01*
X136783571Y-96892976D01*
X136631190Y-96840595D01*
X136555000Y-96788214D01*
X136478809Y-96683452D01*
X136478809Y-96473928D01*
X136555000Y-96369166D01*
X136631190Y-96316785D01*
X136783571Y-96264404D01*
X136859761Y-96264404D01*
X137012142Y-96316785D01*
X137088333Y-96369166D01*
X137164523Y-96473928D01*
X137164523Y-96683452D01*
X137240714Y-96788214D01*
X137316904Y-96840595D01*
X137469285Y-96892976D01*
X137774047Y-96892976D01*
X137926428Y-96840595D01*
X138002619Y-96788214D01*
X138078809Y-96683452D01*
X138078809Y-96473928D01*
X138002619Y-96369166D01*
X137926428Y-96316785D01*
X137774047Y-96264404D01*
X137469285Y-96264404D01*
X137316904Y-96316785D01*
X137240714Y-96369166D01*
X137164523Y-96473928D01*
X139790714Y-97573928D02*
X139866904Y-97416785D01*
X139943095Y-97364404D01*
X140095476Y-97312023D01*
X140324047Y-97312023D01*
X140476428Y-97364404D01*
X140552619Y-97416785D01*
X140628809Y-97521547D01*
X140628809Y-97940595D01*
X139028809Y-97940595D01*
X139028809Y-97573928D01*
X139105000Y-97469166D01*
X139181190Y-97416785D01*
X139333571Y-97364404D01*
X139485952Y-97364404D01*
X139638333Y-97416785D01*
X139714523Y-97469166D01*
X139790714Y-97573928D01*
X139790714Y-97940595D01*
X139028809Y-96945357D02*
X139028809Y-96212023D01*
X140628809Y-96683452D01*
X142340714Y-97573928D02*
X142416904Y-97416785D01*
X142493095Y-97364404D01*
X142645476Y-97312023D01*
X142874047Y-97312023D01*
X143026428Y-97364404D01*
X143102619Y-97416785D01*
X143178809Y-97521547D01*
X143178809Y-97940595D01*
X141578809Y-97940595D01*
X141578809Y-97573928D01*
X141655000Y-97469166D01*
X141731190Y-97416785D01*
X141883571Y-97364404D01*
X142035952Y-97364404D01*
X142188333Y-97416785D01*
X142264523Y-97469166D01*
X142340714Y-97573928D01*
X142340714Y-97940595D01*
X141578809Y-96369166D02*
X141578809Y-96578690D01*
X141655000Y-96683452D01*
X141731190Y-96735833D01*
X141959761Y-96840595D01*
X142264523Y-96892976D01*
X142874047Y-96892976D01*
X143026428Y-96840595D01*
X143102619Y-96788214D01*
X143178809Y-96683452D01*
X143178809Y-96473928D01*
X143102619Y-96369166D01*
X143026428Y-96316785D01*
X142874047Y-96264404D01*
X142493095Y-96264404D01*
X142340714Y-96316785D01*
X142264523Y-96369166D01*
X142188333Y-96473928D01*
X142188333Y-96683452D01*
X142264523Y-96788214D01*
X142340714Y-96840595D01*
X142493095Y-96892976D01*
X103871666Y-97992976D02*
X103871666Y-97469166D01*
X104328809Y-98097738D02*
X102728809Y-97731071D01*
X104328809Y-97364404D01*
X103262142Y-96526309D02*
X104328809Y-96526309D01*
X102652619Y-96788214D02*
X103795476Y-97050119D01*
X103795476Y-96369166D01*
X106421666Y-97992976D02*
X106421666Y-97469166D01*
X106878809Y-98097738D02*
X105278809Y-97731071D01*
X106878809Y-97364404D01*
X105278809Y-97102500D02*
X105278809Y-96421547D01*
X105888333Y-96788214D01*
X105888333Y-96631071D01*
X105964523Y-96526309D01*
X106040714Y-96473928D01*
X106193095Y-96421547D01*
X106574047Y-96421547D01*
X106726428Y-96473928D01*
X106802619Y-96526309D01*
X106878809Y-96631071D01*
X106878809Y-96945357D01*
X106802619Y-97050119D01*
X106726428Y-97102500D01*
X96621547Y-100196666D02*
X97145357Y-100196666D01*
X96516785Y-100653809D02*
X96883452Y-99053809D01*
X97250119Y-100653809D01*
X98140595Y-99053809D02*
X97616785Y-99053809D01*
X97564404Y-99815714D01*
X97616785Y-99739523D01*
X97721547Y-99663333D01*
X97983452Y-99663333D01*
X98088214Y-99739523D01*
X98140595Y-99815714D01*
X98192976Y-99968095D01*
X98192976Y-100349047D01*
X98140595Y-100501428D01*
X98088214Y-100577619D01*
X97983452Y-100653809D01*
X97721547Y-100653809D01*
X97616785Y-100577619D01*
X97564404Y-100501428D01*
X96621547Y-102746666D02*
X97145357Y-102746666D01*
X96516785Y-103203809D02*
X96883452Y-101603809D01*
X97250119Y-103203809D01*
X98088214Y-101603809D02*
X97878690Y-101603809D01*
X97773928Y-101680000D01*
X97721547Y-101756190D01*
X97616785Y-101984761D01*
X97564404Y-102289523D01*
X97564404Y-102899047D01*
X97616785Y-103051428D01*
X97669166Y-103127619D01*
X97773928Y-103203809D01*
X97983452Y-103203809D01*
X98088214Y-103127619D01*
X98140595Y-103051428D01*
X98192976Y-102899047D01*
X98192976Y-102518095D01*
X98140595Y-102365714D01*
X98088214Y-102289523D01*
X97983452Y-102213333D01*
X97773928Y-102213333D01*
X97669166Y-102289523D01*
X97616785Y-102365714D01*
X97564404Y-102518095D01*
X96621547Y-105296666D02*
X97145357Y-105296666D01*
X96516785Y-105753809D02*
X96883452Y-104153809D01*
X97250119Y-105753809D01*
X97512023Y-104153809D02*
X98245357Y-104153809D01*
X97773928Y-105753809D01*
X96883452Y-107465714D02*
X97040595Y-107541904D01*
X97092976Y-107618095D01*
X97145357Y-107770476D01*
X97145357Y-107999047D01*
X97092976Y-108151428D01*
X97040595Y-108227619D01*
X96935833Y-108303809D01*
X96516785Y-108303809D01*
X96516785Y-106703809D01*
X96883452Y-106703809D01*
X96988214Y-106780000D01*
X97040595Y-106856190D01*
X97092976Y-107008571D01*
X97092976Y-107160952D01*
X97040595Y-107313333D01*
X96988214Y-107389523D01*
X96883452Y-107465714D01*
X96516785Y-107465714D01*
X97826309Y-106703809D02*
X97931071Y-106703809D01*
X98035833Y-106780000D01*
X98088214Y-106856190D01*
X98140595Y-107008571D01*
X98192976Y-107313333D01*
X98192976Y-107694285D01*
X98140595Y-107999047D01*
X98088214Y-108151428D01*
X98035833Y-108227619D01*
X97931071Y-108303809D01*
X97826309Y-108303809D01*
X97721547Y-108227619D01*
X97669166Y-108151428D01*
X97616785Y-107999047D01*
X97564404Y-107694285D01*
X97564404Y-107313333D01*
X97616785Y-107008571D01*
X97669166Y-106856190D01*
X97721547Y-106780000D01*
X97826309Y-106703809D01*
X96883452Y-110015714D02*
X97040595Y-110091904D01*
X97092976Y-110168095D01*
X97145357Y-110320476D01*
X97145357Y-110549047D01*
X97092976Y-110701428D01*
X97040595Y-110777619D01*
X96935833Y-110853809D01*
X96516785Y-110853809D01*
X96516785Y-109253809D01*
X96883452Y-109253809D01*
X96988214Y-109330000D01*
X97040595Y-109406190D01*
X97092976Y-109558571D01*
X97092976Y-109710952D01*
X97040595Y-109863333D01*
X96988214Y-109939523D01*
X96883452Y-110015714D01*
X96516785Y-110015714D01*
X98192976Y-110853809D02*
X97564404Y-110853809D01*
X97878690Y-110853809D02*
X97878690Y-109253809D01*
X97773928Y-109482380D01*
X97669166Y-109634761D01*
X97564404Y-109710952D01*
X96883452Y-112565714D02*
X97040595Y-112641904D01*
X97092976Y-112718095D01*
X97145357Y-112870476D01*
X97145357Y-113099047D01*
X97092976Y-113251428D01*
X97040595Y-113327619D01*
X96935833Y-113403809D01*
X96516785Y-113403809D01*
X96516785Y-111803809D01*
X96883452Y-111803809D01*
X96988214Y-111880000D01*
X97040595Y-111956190D01*
X97092976Y-112108571D01*
X97092976Y-112260952D01*
X97040595Y-112413333D01*
X96988214Y-112489523D01*
X96883452Y-112565714D01*
X96516785Y-112565714D01*
X97564404Y-111956190D02*
X97616785Y-111880000D01*
X97721547Y-111803809D01*
X97983452Y-111803809D01*
X98088214Y-111880000D01*
X98140595Y-111956190D01*
X98192976Y-112108571D01*
X98192976Y-112260952D01*
X98140595Y-112489523D01*
X97512023Y-113403809D01*
X98192976Y-113403809D01*
X95835833Y-115115714D02*
X95992976Y-115191904D01*
X96045357Y-115268095D01*
X96097738Y-115420476D01*
X96097738Y-115649047D01*
X96045357Y-115801428D01*
X95992976Y-115877619D01*
X95888214Y-115953809D01*
X95469166Y-115953809D01*
X95469166Y-114353809D01*
X95835833Y-114353809D01*
X95940595Y-114430000D01*
X95992976Y-114506190D01*
X96045357Y-114658571D01*
X96045357Y-114810952D01*
X95992976Y-114963333D01*
X95940595Y-115039523D01*
X95835833Y-115115714D01*
X95469166Y-115115714D01*
X97145357Y-115953809D02*
X96516785Y-115953809D01*
X96831071Y-115953809D02*
X96831071Y-114353809D01*
X96726309Y-114582380D01*
X96621547Y-114734761D01*
X96516785Y-114810952D01*
X97826309Y-114353809D02*
X97931071Y-114353809D01*
X98035833Y-114430000D01*
X98088214Y-114506190D01*
X98140595Y-114658571D01*
X98192976Y-114963333D01*
X98192976Y-115344285D01*
X98140595Y-115649047D01*
X98088214Y-115801428D01*
X98035833Y-115877619D01*
X97931071Y-115953809D01*
X97826309Y-115953809D01*
X97721547Y-115877619D01*
X97669166Y-115801428D01*
X97616785Y-115649047D01*
X97564404Y-115344285D01*
X97564404Y-114963333D01*
X97616785Y-114658571D01*
X97669166Y-114506190D01*
X97721547Y-114430000D01*
X97826309Y-114353809D01*
X95835833Y-117665714D02*
X95992976Y-117741904D01*
X96045357Y-117818095D01*
X96097738Y-117970476D01*
X96097738Y-118199047D01*
X96045357Y-118351428D01*
X95992976Y-118427619D01*
X95888214Y-118503809D01*
X95469166Y-118503809D01*
X95469166Y-116903809D01*
X95835833Y-116903809D01*
X95940595Y-116980000D01*
X95992976Y-117056190D01*
X96045357Y-117208571D01*
X96045357Y-117360952D01*
X95992976Y-117513333D01*
X95940595Y-117589523D01*
X95835833Y-117665714D01*
X95469166Y-117665714D01*
X97145357Y-118503809D02*
X96516785Y-118503809D01*
X96831071Y-118503809D02*
X96831071Y-116903809D01*
X96726309Y-117132380D01*
X96621547Y-117284761D01*
X96516785Y-117360952D01*
X98192976Y-118503809D02*
X97564404Y-118503809D01*
X97878690Y-118503809D02*
X97878690Y-116903809D01*
X97773928Y-117132380D01*
X97669166Y-117284761D01*
X97564404Y-117360952D01*
X95835833Y-120215714D02*
X95992976Y-120291904D01*
X96045357Y-120368095D01*
X96097738Y-120520476D01*
X96097738Y-120749047D01*
X96045357Y-120901428D01*
X95992976Y-120977619D01*
X95888214Y-121053809D01*
X95469166Y-121053809D01*
X95469166Y-119453809D01*
X95835833Y-119453809D01*
X95940595Y-119530000D01*
X95992976Y-119606190D01*
X96045357Y-119758571D01*
X96045357Y-119910952D01*
X95992976Y-120063333D01*
X95940595Y-120139523D01*
X95835833Y-120215714D01*
X95469166Y-120215714D01*
X97145357Y-121053809D02*
X96516785Y-121053809D01*
X96831071Y-121053809D02*
X96831071Y-119453809D01*
X96726309Y-119682380D01*
X96621547Y-119834761D01*
X96516785Y-119910952D01*
X97564404Y-119606190D02*
X97616785Y-119530000D01*
X97721547Y-119453809D01*
X97983452Y-119453809D01*
X98088214Y-119530000D01*
X98140595Y-119606190D01*
X98192976Y-119758571D01*
X98192976Y-119910952D01*
X98140595Y-120139523D01*
X97512023Y-121053809D01*
X98192976Y-121053809D01*
X95835833Y-122765714D02*
X95992976Y-122841904D01*
X96045357Y-122918095D01*
X96097738Y-123070476D01*
X96097738Y-123299047D01*
X96045357Y-123451428D01*
X95992976Y-123527619D01*
X95888214Y-123603809D01*
X95469166Y-123603809D01*
X95469166Y-122003809D01*
X95835833Y-122003809D01*
X95940595Y-122080000D01*
X95992976Y-122156190D01*
X96045357Y-122308571D01*
X96045357Y-122460952D01*
X95992976Y-122613333D01*
X95940595Y-122689523D01*
X95835833Y-122765714D01*
X95469166Y-122765714D01*
X97145357Y-123603809D02*
X96516785Y-123603809D01*
X96831071Y-123603809D02*
X96831071Y-122003809D01*
X96726309Y-122232380D01*
X96621547Y-122384761D01*
X96516785Y-122460952D01*
X97512023Y-122003809D02*
X98192976Y-122003809D01*
X97826309Y-122613333D01*
X97983452Y-122613333D01*
X98088214Y-122689523D01*
X98140595Y-122765714D01*
X98192976Y-122918095D01*
X98192976Y-123299047D01*
X98140595Y-123451428D01*
X98088214Y-123527619D01*
X97983452Y-123603809D01*
X97669166Y-123603809D01*
X97564404Y-123527619D01*
X97512023Y-123451428D01*
X95835833Y-125315714D02*
X95992976Y-125391904D01*
X96045357Y-125468095D01*
X96097738Y-125620476D01*
X96097738Y-125849047D01*
X96045357Y-126001428D01*
X95992976Y-126077619D01*
X95888214Y-126153809D01*
X95469166Y-126153809D01*
X95469166Y-124553809D01*
X95835833Y-124553809D01*
X95940595Y-124630000D01*
X95992976Y-124706190D01*
X96045357Y-124858571D01*
X96045357Y-125010952D01*
X95992976Y-125163333D01*
X95940595Y-125239523D01*
X95835833Y-125315714D01*
X95469166Y-125315714D01*
X97145357Y-126153809D02*
X96516785Y-126153809D01*
X96831071Y-126153809D02*
X96831071Y-124553809D01*
X96726309Y-124782380D01*
X96621547Y-124934761D01*
X96516785Y-125010952D01*
X98088214Y-125087142D02*
X98088214Y-126153809D01*
X97826309Y-124477619D02*
X97564404Y-125620476D01*
X98245357Y-125620476D01*
X95835833Y-127865714D02*
X95992976Y-127941904D01*
X96045357Y-128018095D01*
X96097738Y-128170476D01*
X96097738Y-128399047D01*
X96045357Y-128551428D01*
X95992976Y-128627619D01*
X95888214Y-128703809D01*
X95469166Y-128703809D01*
X95469166Y-127103809D01*
X95835833Y-127103809D01*
X95940595Y-127180000D01*
X95992976Y-127256190D01*
X96045357Y-127408571D01*
X96045357Y-127560952D01*
X95992976Y-127713333D01*
X95940595Y-127789523D01*
X95835833Y-127865714D01*
X95469166Y-127865714D01*
X97145357Y-128703809D02*
X96516785Y-128703809D01*
X96831071Y-128703809D02*
X96831071Y-127103809D01*
X96726309Y-127332380D01*
X96621547Y-127484761D01*
X96516785Y-127560952D01*
X98140595Y-127103809D02*
X97616785Y-127103809D01*
X97564404Y-127865714D01*
X97616785Y-127789523D01*
X97721547Y-127713333D01*
X97983452Y-127713333D01*
X98088214Y-127789523D01*
X98140595Y-127865714D01*
X98192976Y-128018095D01*
X98192976Y-128399047D01*
X98140595Y-128551428D01*
X98088214Y-128627619D01*
X97983452Y-128703809D01*
X97721547Y-128703809D01*
X97616785Y-128627619D01*
X97564404Y-128551428D01*
X96307261Y-131253809D02*
X95940595Y-130491904D01*
X95678690Y-131253809D02*
X95678690Y-129653809D01*
X96097738Y-129653809D01*
X96202500Y-129730000D01*
X96254880Y-129806190D01*
X96307261Y-129958571D01*
X96307261Y-130187142D01*
X96254880Y-130339523D01*
X96202500Y-130415714D01*
X96097738Y-130491904D01*
X95678690Y-130491904D01*
X96726309Y-131177619D02*
X96883452Y-131253809D01*
X97145357Y-131253809D01*
X97250119Y-131177619D01*
X97302500Y-131101428D01*
X97354880Y-130949047D01*
X97354880Y-130796666D01*
X97302500Y-130644285D01*
X97250119Y-130568095D01*
X97145357Y-130491904D01*
X96935833Y-130415714D01*
X96831071Y-130339523D01*
X96778690Y-130263333D01*
X96726309Y-130110952D01*
X96726309Y-129958571D01*
X96778690Y-129806190D01*
X96831071Y-129730000D01*
X96935833Y-129653809D01*
X97197738Y-129653809D01*
X97354880Y-129730000D01*
X97669166Y-129653809D02*
X98297738Y-129653809D01*
X97983452Y-131253809D02*
X97983452Y-129653809D01*
X95573928Y-132203809D02*
X95940595Y-133803809D01*
X96307261Y-132203809D01*
X97145357Y-133803809D02*
X97145357Y-132203809D01*
X97145357Y-133727619D02*
X97040595Y-133803809D01*
X96831071Y-133803809D01*
X96726309Y-133727619D01*
X96673928Y-133651428D01*
X96621547Y-133499047D01*
X96621547Y-133041904D01*
X96673928Y-132889523D01*
X96726309Y-132813333D01*
X96831071Y-132737142D01*
X97040595Y-132737142D01*
X97145357Y-132813333D01*
X98140595Y-133803809D02*
X98140595Y-132203809D01*
X98140595Y-133727619D02*
X98035833Y-133803809D01*
X97826309Y-133803809D01*
X97721547Y-133727619D01*
X97669166Y-133651428D01*
X97616785Y-133499047D01*
X97616785Y-133041904D01*
X97669166Y-132889523D01*
X97721547Y-132813333D01*
X97826309Y-132737142D01*
X98035833Y-132737142D01*
X98140595Y-132813333D01*
X96150119Y-134830000D02*
X96045357Y-134753809D01*
X95888214Y-134753809D01*
X95731071Y-134830000D01*
X95626309Y-134982380D01*
X95573928Y-135134761D01*
X95521547Y-135439523D01*
X95521547Y-135668095D01*
X95573928Y-135972857D01*
X95626309Y-136125238D01*
X95731071Y-136277619D01*
X95888214Y-136353809D01*
X95992976Y-136353809D01*
X96150119Y-136277619D01*
X96202500Y-136201428D01*
X96202500Y-135668095D01*
X95992976Y-135668095D01*
X96673928Y-135287142D02*
X96673928Y-136353809D01*
X96673928Y-135439523D02*
X96726309Y-135363333D01*
X96831071Y-135287142D01*
X96988214Y-135287142D01*
X97092976Y-135363333D01*
X97145357Y-135515714D01*
X97145357Y-136353809D01*
X98140595Y-136353809D02*
X98140595Y-134753809D01*
X98140595Y-136277619D02*
X98035833Y-136353809D01*
X97826309Y-136353809D01*
X97721547Y-136277619D01*
X97669166Y-136201428D01*
X97616785Y-136049047D01*
X97616785Y-135591904D01*
X97669166Y-135439523D01*
X97721547Y-135363333D01*
X97826309Y-135287142D01*
X98035833Y-135287142D01*
X98140595Y-135363333D01*
X148226071Y-99815714D02*
X148383214Y-99891904D01*
X148435595Y-99968095D01*
X148487976Y-100120476D01*
X148487976Y-100349047D01*
X148435595Y-100501428D01*
X148383214Y-100577619D01*
X148278452Y-100653809D01*
X147859404Y-100653809D01*
X147859404Y-99053809D01*
X148226071Y-99053809D01*
X148330833Y-99130000D01*
X148383214Y-99206190D01*
X148435595Y-99358571D01*
X148435595Y-99510952D01*
X148383214Y-99663333D01*
X148330833Y-99739523D01*
X148226071Y-99815714D01*
X147859404Y-99815714D01*
X149483214Y-99053809D02*
X148959404Y-99053809D01*
X148907023Y-99815714D01*
X148959404Y-99739523D01*
X149064166Y-99663333D01*
X149326071Y-99663333D01*
X149430833Y-99739523D01*
X149483214Y-99815714D01*
X149535595Y-99968095D01*
X149535595Y-100349047D01*
X149483214Y-100501428D01*
X149430833Y-100577619D01*
X149326071Y-100653809D01*
X149064166Y-100653809D01*
X148959404Y-100577619D01*
X148907023Y-100501428D01*
X148226071Y-102365714D02*
X148383214Y-102441904D01*
X148435595Y-102518095D01*
X148487976Y-102670476D01*
X148487976Y-102899047D01*
X148435595Y-103051428D01*
X148383214Y-103127619D01*
X148278452Y-103203809D01*
X147859404Y-103203809D01*
X147859404Y-101603809D01*
X148226071Y-101603809D01*
X148330833Y-101680000D01*
X148383214Y-101756190D01*
X148435595Y-101908571D01*
X148435595Y-102060952D01*
X148383214Y-102213333D01*
X148330833Y-102289523D01*
X148226071Y-102365714D01*
X147859404Y-102365714D01*
X149430833Y-102137142D02*
X149430833Y-103203809D01*
X149168928Y-101527619D02*
X148907023Y-102670476D01*
X149587976Y-102670476D01*
X148226071Y-104915714D02*
X148383214Y-104991904D01*
X148435595Y-105068095D01*
X148487976Y-105220476D01*
X148487976Y-105449047D01*
X148435595Y-105601428D01*
X148383214Y-105677619D01*
X148278452Y-105753809D01*
X147859404Y-105753809D01*
X147859404Y-104153809D01*
X148226071Y-104153809D01*
X148330833Y-104230000D01*
X148383214Y-104306190D01*
X148435595Y-104458571D01*
X148435595Y-104610952D01*
X148383214Y-104763333D01*
X148330833Y-104839523D01*
X148226071Y-104915714D01*
X147859404Y-104915714D01*
X148854642Y-104153809D02*
X149535595Y-104153809D01*
X149168928Y-104763333D01*
X149326071Y-104763333D01*
X149430833Y-104839523D01*
X149483214Y-104915714D01*
X149535595Y-105068095D01*
X149535595Y-105449047D01*
X149483214Y-105601428D01*
X149430833Y-105677619D01*
X149326071Y-105753809D01*
X149011785Y-105753809D01*
X148907023Y-105677619D01*
X148854642Y-105601428D01*
X147807023Y-107846666D02*
X148330833Y-107846666D01*
X147702261Y-108303809D02*
X148068928Y-106703809D01*
X148435595Y-108303809D01*
X149378452Y-108303809D02*
X148749880Y-108303809D01*
X149064166Y-108303809D02*
X149064166Y-106703809D01*
X148959404Y-106932380D01*
X148854642Y-107084761D01*
X148749880Y-107160952D01*
X150373690Y-106703809D02*
X149849880Y-106703809D01*
X149797500Y-107465714D01*
X149849880Y-107389523D01*
X149954642Y-107313333D01*
X150216547Y-107313333D01*
X150321309Y-107389523D01*
X150373690Y-107465714D01*
X150426071Y-107618095D01*
X150426071Y-107999047D01*
X150373690Y-108151428D01*
X150321309Y-108227619D01*
X150216547Y-108303809D01*
X149954642Y-108303809D01*
X149849880Y-108227619D01*
X149797500Y-108151428D01*
X147807023Y-110396666D02*
X148330833Y-110396666D01*
X147702261Y-110853809D02*
X148068928Y-109253809D01*
X148435595Y-110853809D01*
X149378452Y-110853809D02*
X148749880Y-110853809D01*
X149064166Y-110853809D02*
X149064166Y-109253809D01*
X148959404Y-109482380D01*
X148854642Y-109634761D01*
X148749880Y-109710952D01*
X150321309Y-109787142D02*
X150321309Y-110853809D01*
X150059404Y-109177619D02*
X149797500Y-110320476D01*
X150478452Y-110320476D01*
X148226071Y-112565714D02*
X147859404Y-112565714D01*
X147859404Y-113403809D02*
X147859404Y-111803809D01*
X148383214Y-111803809D01*
X148697500Y-111803809D02*
X149430833Y-111803809D01*
X148959404Y-113403809D01*
X148226071Y-115115714D02*
X147859404Y-115115714D01*
X147859404Y-115953809D02*
X147859404Y-114353809D01*
X148383214Y-114353809D01*
X149273690Y-114353809D02*
X149064166Y-114353809D01*
X148959404Y-114430000D01*
X148907023Y-114506190D01*
X148802261Y-114734761D01*
X148749880Y-115039523D01*
X148749880Y-115649047D01*
X148802261Y-115801428D01*
X148854642Y-115877619D01*
X148959404Y-115953809D01*
X149168928Y-115953809D01*
X149273690Y-115877619D01*
X149326071Y-115801428D01*
X149378452Y-115649047D01*
X149378452Y-115268095D01*
X149326071Y-115115714D01*
X149273690Y-115039523D01*
X149168928Y-114963333D01*
X148959404Y-114963333D01*
X148854642Y-115039523D01*
X148802261Y-115115714D01*
X148749880Y-115268095D01*
X147807023Y-118046666D02*
X148330833Y-118046666D01*
X147702261Y-118503809D02*
X148068928Y-116903809D01*
X148435595Y-118503809D01*
X149378452Y-118503809D02*
X148749880Y-118503809D01*
X149064166Y-118503809D02*
X149064166Y-116903809D01*
X148959404Y-117132380D01*
X148854642Y-117284761D01*
X148749880Y-117360952D01*
X149745119Y-116903809D02*
X150426071Y-116903809D01*
X150059404Y-117513333D01*
X150216547Y-117513333D01*
X150321309Y-117589523D01*
X150373690Y-117665714D01*
X150426071Y-117818095D01*
X150426071Y-118199047D01*
X150373690Y-118351428D01*
X150321309Y-118427619D01*
X150216547Y-118503809D01*
X149902261Y-118503809D01*
X149797500Y-118427619D01*
X149745119Y-118351428D01*
X147807023Y-120596666D02*
X148330833Y-120596666D01*
X147702261Y-121053809D02*
X148068928Y-119453809D01*
X148435595Y-121053809D01*
X149378452Y-121053809D02*
X148749880Y-121053809D01*
X149064166Y-121053809D02*
X149064166Y-119453809D01*
X148959404Y-119682380D01*
X148854642Y-119834761D01*
X148749880Y-119910952D01*
X149797500Y-119606190D02*
X149849880Y-119530000D01*
X149954642Y-119453809D01*
X150216547Y-119453809D01*
X150321309Y-119530000D01*
X150373690Y-119606190D01*
X150426071Y-119758571D01*
X150426071Y-119910952D01*
X150373690Y-120139523D01*
X149745119Y-121053809D01*
X150426071Y-121053809D01*
X147807023Y-123146666D02*
X148330833Y-123146666D01*
X147702261Y-123603809D02*
X148068928Y-122003809D01*
X148435595Y-123603809D01*
X149378452Y-123603809D02*
X148749880Y-123603809D01*
X149064166Y-123603809D02*
X149064166Y-122003809D01*
X148959404Y-122232380D01*
X148854642Y-122384761D01*
X148749880Y-122460952D01*
X150426071Y-123603809D02*
X149797500Y-123603809D01*
X150111785Y-123603809D02*
X150111785Y-122003809D01*
X150007023Y-122232380D01*
X149902261Y-122384761D01*
X149797500Y-122460952D01*
X147807023Y-125696666D02*
X148330833Y-125696666D01*
X147702261Y-126153809D02*
X148068928Y-124553809D01*
X148435595Y-126153809D01*
X149378452Y-126153809D02*
X148749880Y-126153809D01*
X149064166Y-126153809D02*
X149064166Y-124553809D01*
X148959404Y-124782380D01*
X148854642Y-124934761D01*
X148749880Y-125010952D01*
X150059404Y-124553809D02*
X150164166Y-124553809D01*
X150268928Y-124630000D01*
X150321309Y-124706190D01*
X150373690Y-124858571D01*
X150426071Y-125163333D01*
X150426071Y-125544285D01*
X150373690Y-125849047D01*
X150321309Y-126001428D01*
X150268928Y-126077619D01*
X150164166Y-126153809D01*
X150059404Y-126153809D01*
X149954642Y-126077619D01*
X149902261Y-126001428D01*
X149849880Y-125849047D01*
X149797500Y-125544285D01*
X149797500Y-125163333D01*
X149849880Y-124858571D01*
X149902261Y-124706190D01*
X149954642Y-124630000D01*
X150059404Y-124553809D01*
X147807023Y-128246666D02*
X148330833Y-128246666D01*
X147702261Y-128703809D02*
X148068928Y-127103809D01*
X148435595Y-128703809D01*
X148854642Y-128703809D02*
X149064166Y-128703809D01*
X149168928Y-128627619D01*
X149221309Y-128551428D01*
X149326071Y-128322857D01*
X149378452Y-128018095D01*
X149378452Y-127408571D01*
X149326071Y-127256190D01*
X149273690Y-127180000D01*
X149168928Y-127103809D01*
X148959404Y-127103809D01*
X148854642Y-127180000D01*
X148802261Y-127256190D01*
X148749880Y-127408571D01*
X148749880Y-127789523D01*
X148802261Y-127941904D01*
X148854642Y-128018095D01*
X148959404Y-128094285D01*
X149168928Y-128094285D01*
X149273690Y-128018095D01*
X149326071Y-127941904D01*
X149378452Y-127789523D01*
X147807023Y-130796666D02*
X148330833Y-130796666D01*
X147702261Y-131253809D02*
X148068928Y-129653809D01*
X148435595Y-131253809D01*
X148959404Y-130339523D02*
X148854642Y-130263333D01*
X148802261Y-130187142D01*
X148749880Y-130034761D01*
X148749880Y-129958571D01*
X148802261Y-129806190D01*
X148854642Y-129730000D01*
X148959404Y-129653809D01*
X149168928Y-129653809D01*
X149273690Y-129730000D01*
X149326071Y-129806190D01*
X149378452Y-129958571D01*
X149378452Y-130034761D01*
X149326071Y-130187142D01*
X149273690Y-130263333D01*
X149168928Y-130339523D01*
X148959404Y-130339523D01*
X148854642Y-130415714D01*
X148802261Y-130491904D01*
X148749880Y-130644285D01*
X148749880Y-130949047D01*
X148802261Y-131101428D01*
X148854642Y-131177619D01*
X148959404Y-131253809D01*
X149168928Y-131253809D01*
X149273690Y-131177619D01*
X149326071Y-131101428D01*
X149378452Y-130949047D01*
X149378452Y-130644285D01*
X149326071Y-130491904D01*
X149273690Y-130415714D01*
X149168928Y-130339523D01*
X148383214Y-132203809D02*
X147859404Y-132203809D01*
X147807023Y-132965714D01*
X147859404Y-132889523D01*
X147964166Y-132813333D01*
X148226071Y-132813333D01*
X148330833Y-132889523D01*
X148383214Y-132965714D01*
X148435595Y-133118095D01*
X148435595Y-133499047D01*
X148383214Y-133651428D01*
X148330833Y-133727619D01*
X148226071Y-133803809D01*
X147964166Y-133803809D01*
X147859404Y-133727619D01*
X147807023Y-133651428D01*
X148749880Y-132203809D02*
X149116547Y-133803809D01*
X149483214Y-132203809D01*
X147754642Y-134753809D02*
X148435595Y-134753809D01*
X148068928Y-135363333D01*
X148226071Y-135363333D01*
X148330833Y-135439523D01*
X148383214Y-135515714D01*
X148435595Y-135668095D01*
X148435595Y-136049047D01*
X148383214Y-136201428D01*
X148330833Y-136277619D01*
X148226071Y-136353809D01*
X147911785Y-136353809D01*
X147807023Y-136277619D01*
X147754642Y-136201428D01*
X148749880Y-134753809D02*
X149116547Y-136353809D01*
X149483214Y-134753809D01*
X149745119Y-134753809D02*
X150426071Y-134753809D01*
X150059404Y-135363333D01*
X150216547Y-135363333D01*
X150321309Y-135439523D01*
X150373690Y-135515714D01*
X150426071Y-135668095D01*
X150426071Y-136049047D01*
X150373690Y-136201428D01*
X150321309Y-136277619D01*
X150216547Y-136353809D01*
X149902261Y-136353809D01*
X149797500Y-136277619D01*
X149745119Y-136201428D01*
X127355752Y-121429797D02*
X127860828Y-121934873D01*
X127928172Y-122069560D01*
X127928172Y-122204247D01*
X127860828Y-122338934D01*
X127793485Y-122406278D01*
X128736294Y-121463469D02*
X128399576Y-121800186D01*
X127692469Y-121093079D01*
X129308713Y-120756362D02*
X129308713Y-120823705D01*
X129241370Y-120958392D01*
X129174026Y-121025736D01*
X129039339Y-121093079D01*
X128904652Y-121093079D01*
X128803637Y-121059408D01*
X128635278Y-120958392D01*
X128534263Y-120857377D01*
X128433248Y-120689018D01*
X128399576Y-120588003D01*
X128399576Y-120453316D01*
X128466920Y-120318629D01*
X128534263Y-120251286D01*
X128668950Y-120183942D01*
X128736294Y-120183942D01*
X129174026Y-119611522D02*
X129679103Y-120116599D01*
X129746446Y-120251286D01*
X129746446Y-120385973D01*
X129679103Y-120520660D01*
X129611759Y-120588003D01*
X130554568Y-119645194D02*
X130217851Y-119981912D01*
X129510744Y-119274805D01*
X131126988Y-118938087D02*
X131126988Y-119005431D01*
X131059644Y-119140118D01*
X130992301Y-119207461D01*
X130857614Y-119274805D01*
X130722927Y-119274805D01*
X130621912Y-119241133D01*
X130453553Y-119140118D01*
X130352538Y-119039103D01*
X130251522Y-118870744D01*
X130217851Y-118769729D01*
X130217851Y-118635042D01*
X130285194Y-118500355D01*
X130352538Y-118433011D01*
X130487225Y-118365668D01*
X130554568Y-118365668D01*
X130992301Y-117793248D02*
X131497377Y-118298324D01*
X131564721Y-118433011D01*
X131564721Y-118567698D01*
X131497377Y-118702385D01*
X131430034Y-118769729D01*
X132372843Y-117826920D02*
X132036125Y-118163637D01*
X131329018Y-117456530D01*
X132945263Y-117119813D02*
X132945263Y-117187156D01*
X132877919Y-117321843D01*
X132810575Y-117389187D01*
X132675888Y-117456530D01*
X132541201Y-117456530D01*
X132440186Y-117422859D01*
X132271827Y-117321843D01*
X132170812Y-117220828D01*
X132069797Y-117052469D01*
X132036125Y-116951454D01*
X132036125Y-116816767D01*
X132103469Y-116682080D01*
X132170812Y-116614736D01*
X132305499Y-116547393D01*
X132372843Y-116547393D01*
D11*
X102897142Y-109501428D02*
X102897142Y-108358571D01*
X102018571Y-117437142D02*
X103161428Y-117437142D01*
X102590000Y-118008571D02*
X102590000Y-116865714D01*
X102672857Y-115980000D02*
X102744285Y-115765714D01*
X102815714Y-115694285D01*
X102958571Y-115622857D01*
X103172857Y-115622857D01*
X103315714Y-115694285D01*
X103387142Y-115765714D01*
X103458571Y-115908571D01*
X103458571Y-116480000D01*
X101958571Y-116480000D01*
X101958571Y-115980000D01*
X102030000Y-115837142D01*
X102101428Y-115765714D01*
X102244285Y-115694285D01*
X102387142Y-115694285D01*
X102530000Y-115765714D01*
X102601428Y-115837142D01*
X102672857Y-115980000D01*
X102672857Y-116480000D01*
X101958571Y-114694285D02*
X101958571Y-114408571D01*
X102030000Y-114265714D01*
X102172857Y-114122857D01*
X102458571Y-114051428D01*
X102958571Y-114051428D01*
X103244285Y-114122857D01*
X103387142Y-114265714D01*
X103458571Y-114408571D01*
X103458571Y-114694285D01*
X103387142Y-114837142D01*
X103244285Y-114980000D01*
X102958571Y-115051428D01*
X102458571Y-115051428D01*
X102172857Y-114980000D01*
X102030000Y-114837142D01*
X101958571Y-114694285D01*
X101958571Y-113122857D02*
X101958571Y-112837142D01*
X102030000Y-112694285D01*
X102172857Y-112551428D01*
X102458571Y-112480000D01*
X102958571Y-112480000D01*
X103244285Y-112551428D01*
X103387142Y-112694285D01*
X103458571Y-112837142D01*
X103458571Y-113122857D01*
X103387142Y-113265714D01*
X103244285Y-113408571D01*
X102958571Y-113480000D01*
X102458571Y-113480000D01*
X102172857Y-113408571D01*
X102030000Y-113265714D01*
X101958571Y-113122857D01*
X101958571Y-112051428D02*
X101958571Y-111194285D01*
X103458571Y-111622857D02*
X101958571Y-111622857D01*
X103458571Y-109908571D02*
X103458571Y-110765714D01*
X103458571Y-110337142D02*
X101958571Y-110337142D01*
X102172857Y-110480000D01*
X102315714Y-110622857D01*
X102387142Y-110765714D01*
X139285714Y-106102380D02*
X139285714Y-105102380D01*
X139666666Y-105102380D01*
X139761904Y-105150000D01*
X139809523Y-105197619D01*
X139857142Y-105292857D01*
X139857142Y-105435714D01*
X139809523Y-105530952D01*
X139761904Y-105578571D01*
X139666666Y-105626190D01*
X139285714Y-105626190D01*
X140857142Y-106007142D02*
X140809523Y-106054761D01*
X140666666Y-106102380D01*
X140571428Y-106102380D01*
X140428571Y-106054761D01*
X140333333Y-105959523D01*
X140285714Y-105864285D01*
X140238095Y-105673809D01*
X140238095Y-105530952D01*
X140285714Y-105340476D01*
X140333333Y-105245238D01*
X140428571Y-105150000D01*
X140571428Y-105102380D01*
X140666666Y-105102380D01*
X140809523Y-105150000D01*
X140857142Y-105197619D01*
X141809523Y-106102380D02*
X141238095Y-106102380D01*
X141523809Y-106102380D02*
X141523809Y-105102380D01*
X141428571Y-105245238D01*
X141333333Y-105340476D01*
X141238095Y-105388095D01*
X142142857Y-105102380D02*
X142761904Y-105102380D01*
X142428571Y-105483333D01*
X142571428Y-105483333D01*
X142666666Y-105530952D01*
X142714285Y-105578571D01*
X142761904Y-105673809D01*
X142761904Y-105911904D01*
X142714285Y-106007142D01*
X142666666Y-106054761D01*
X142571428Y-106102380D01*
X142285714Y-106102380D01*
X142190476Y-106054761D01*
X142142857Y-106007142D01*
X140357142Y-107802380D02*
X139880952Y-107802380D01*
X139880952Y-106802380D01*
X140690476Y-107278571D02*
X141023809Y-107278571D01*
X141166666Y-107802380D02*
X140690476Y-107802380D01*
X140690476Y-106802380D01*
X141166666Y-106802380D01*
X141595238Y-107802380D02*
X141595238Y-106802380D01*
X141833333Y-106802380D01*
X141976190Y-106850000D01*
X142071428Y-106945238D01*
X142119047Y-107040476D01*
X142166666Y-107230952D01*
X142166666Y-107373809D01*
X142119047Y-107564285D01*
X142071428Y-107659523D01*
X141976190Y-107754761D01*
X141833333Y-107802380D01*
X141595238Y-107802380D01*
X103662857Y-138078571D02*
X104591428Y-138078571D01*
X104091428Y-138650000D01*
X104305714Y-138650000D01*
X104448571Y-138721428D01*
X104520000Y-138792857D01*
X104591428Y-138935714D01*
X104591428Y-139292857D01*
X104520000Y-139435714D01*
X104448571Y-139507142D01*
X104305714Y-139578571D01*
X103877142Y-139578571D01*
X103734285Y-139507142D01*
X103662857Y-139435714D01*
X105020000Y-138078571D02*
X105520000Y-139578571D01*
X106020000Y-138078571D01*
X106377142Y-138078571D02*
X107305714Y-138078571D01*
X106805714Y-138650000D01*
X107020000Y-138650000D01*
X107162857Y-138721428D01*
X107234285Y-138792857D01*
X107305714Y-138935714D01*
X107305714Y-139292857D01*
X107234285Y-139435714D01*
X107162857Y-139507142D01*
X107020000Y-139578571D01*
X106591428Y-139578571D01*
X106448571Y-139507142D01*
X106377142Y-139435714D01*
X116404285Y-138038571D02*
X115690000Y-138038571D01*
X115618571Y-138752857D01*
X115690000Y-138681428D01*
X115832857Y-138610000D01*
X116190000Y-138610000D01*
X116332857Y-138681428D01*
X116404285Y-138752857D01*
X116475714Y-138895714D01*
X116475714Y-139252857D01*
X116404285Y-139395714D01*
X116332857Y-139467142D01*
X116190000Y-139538571D01*
X115832857Y-139538571D01*
X115690000Y-139467142D01*
X115618571Y-139395714D01*
X116904285Y-138038571D02*
X117404285Y-139538571D01*
X117904285Y-138038571D01*
X109998571Y-97247142D02*
X111141428Y-97247142D01*
X119478571Y-97077142D02*
X120621428Y-97077142D01*
X120050000Y-97648571D02*
X120050000Y-96505714D01*
X112670000Y-107022857D02*
X112884285Y-107094285D01*
X112955714Y-107165714D01*
X113027142Y-107308571D01*
X113027142Y-107522857D01*
X112955714Y-107665714D01*
X112884285Y-107737142D01*
X112741428Y-107808571D01*
X112170000Y-107808571D01*
X112170000Y-106308571D01*
X112670000Y-106308571D01*
X112812857Y-106380000D01*
X112884285Y-106451428D01*
X112955714Y-106594285D01*
X112955714Y-106737142D01*
X112884285Y-106880000D01*
X112812857Y-106951428D01*
X112670000Y-107022857D01*
X112170000Y-107022857D01*
X113955714Y-106308571D02*
X114241428Y-106308571D01*
X114384285Y-106380000D01*
X114527142Y-106522857D01*
X114598571Y-106808571D01*
X114598571Y-107308571D01*
X114527142Y-107594285D01*
X114384285Y-107737142D01*
X114241428Y-107808571D01*
X113955714Y-107808571D01*
X113812857Y-107737142D01*
X113670000Y-107594285D01*
X113598571Y-107308571D01*
X113598571Y-106808571D01*
X113670000Y-106522857D01*
X113812857Y-106380000D01*
X113955714Y-106308571D01*
X115527142Y-106308571D02*
X115812857Y-106308571D01*
X115955714Y-106380000D01*
X116098571Y-106522857D01*
X116170000Y-106808571D01*
X116170000Y-107308571D01*
X116098571Y-107594285D01*
X115955714Y-107737142D01*
X115812857Y-107808571D01*
X115527142Y-107808571D01*
X115384285Y-107737142D01*
X115241428Y-107594285D01*
X115170000Y-107308571D01*
X115170000Y-106808571D01*
X115241428Y-106522857D01*
X115384285Y-106380000D01*
X115527142Y-106308571D01*
X116598571Y-106308571D02*
X117455714Y-106308571D01*
X117027142Y-107808571D02*
X117027142Y-106308571D01*
X118241428Y-106308571D02*
X118384285Y-106308571D01*
X118527142Y-106380000D01*
X118598571Y-106451428D01*
X118670000Y-106594285D01*
X118741428Y-106880000D01*
X118741428Y-107237142D01*
X118670000Y-107522857D01*
X118598571Y-107665714D01*
X118527142Y-107737142D01*
X118384285Y-107808571D01*
X118241428Y-107808571D01*
X118098571Y-107737142D01*
X118027142Y-107665714D01*
X117955714Y-107522857D01*
X117884285Y-107237142D01*
X117884285Y-106880000D01*
X117955714Y-106594285D01*
X118027142Y-106451428D01*
X118098571Y-106380000D01*
X118241428Y-106308571D01*
X114750000Y-113178571D02*
X114750000Y-114250000D01*
X114678571Y-114464285D01*
X114535714Y-114607142D01*
X114321428Y-114678571D01*
X114178571Y-114678571D01*
X115250000Y-113178571D02*
X116107142Y-113178571D01*
X115678571Y-114678571D02*
X115678571Y-113178571D01*
X116535714Y-114250000D02*
X117250000Y-114250000D01*
X116392857Y-114678571D02*
X116892857Y-113178571D01*
X117392857Y-114678571D01*
X118678571Y-113250000D02*
X118535714Y-113178571D01*
X118321428Y-113178571D01*
X118107142Y-113250000D01*
X117964285Y-113392857D01*
X117892857Y-113535714D01*
X117821428Y-113821428D01*
X117821428Y-114035714D01*
X117892857Y-114321428D01*
X117964285Y-114464285D01*
X118107142Y-114607142D01*
X118321428Y-114678571D01*
X118464285Y-114678571D01*
X118678571Y-114607142D01*
X118750000Y-114535714D01*
X118750000Y-114035714D01*
X118464285Y-114035714D01*
X108428571Y-109458571D02*
X107928571Y-108744285D01*
X107571428Y-109458571D02*
X107571428Y-107958571D01*
X108142857Y-107958571D01*
X108285714Y-108030000D01*
X108357142Y-108101428D01*
X108428571Y-108244285D01*
X108428571Y-108458571D01*
X108357142Y-108601428D01*
X108285714Y-108672857D01*
X108142857Y-108744285D01*
X107571428Y-108744285D01*
X109000000Y-109387142D02*
X109214285Y-109458571D01*
X109571428Y-109458571D01*
X109714285Y-109387142D01*
X109785714Y-109315714D01*
X109857142Y-109172857D01*
X109857142Y-109030000D01*
X109785714Y-108887142D01*
X109714285Y-108815714D01*
X109571428Y-108744285D01*
X109285714Y-108672857D01*
X109142857Y-108601428D01*
X109071428Y-108530000D01*
X109000000Y-108387142D01*
X109000000Y-108244285D01*
X109071428Y-108101428D01*
X109142857Y-108030000D01*
X109285714Y-107958571D01*
X109642857Y-107958571D01*
X109857142Y-108030000D01*
X110285714Y-107958571D02*
X111142857Y-107958571D01*
X110714285Y-109458571D02*
X110714285Y-107958571D01*
D13*
%TO.C,J9*%
X106780000Y-109340000D02*
X104120000Y-109340000D01*
X106780000Y-114480000D02*
X106780000Y-109340000D01*
X104120000Y-114480000D02*
X104120000Y-109340000D01*
X106780000Y-114480000D02*
X104120000Y-114480000D01*
X106780000Y-115750000D02*
X106780000Y-117080000D01*
X106780000Y-117080000D02*
X105450000Y-117080000D01*
%TO.C,R7*%
X133852742Y-130312500D02*
X134327258Y-130312500D01*
X133852742Y-129267500D02*
X134327258Y-129267500D01*
%TO.C,C1*%
X122625580Y-133090000D02*
X122344420Y-133090000D01*
X122625580Y-132070000D02*
X122344420Y-132070000D01*
%TO.C,C2*%
X120380000Y-135350580D02*
X120380000Y-135069420D01*
X119360000Y-135350580D02*
X119360000Y-135069420D01*
%TO.C,C7*%
X128365000Y-112915580D02*
X128365000Y-112634420D01*
X129385000Y-112915580D02*
X129385000Y-112634420D01*
%TO.C,C8*%
X126715580Y-110715000D02*
X126434420Y-110715000D01*
X126715580Y-111735000D02*
X126434420Y-111735000D01*
%TO.C,C9*%
X113050000Y-113445580D02*
X113050000Y-113164420D01*
X112030000Y-113445580D02*
X112030000Y-113164420D01*
%TO.C,C10*%
X132898580Y-106500000D02*
X132617420Y-106500000D01*
X132898580Y-105480000D02*
X132617420Y-105480000D01*
%TO.C,C11*%
X129569420Y-106500000D02*
X129850580Y-106500000D01*
X129569420Y-105480000D02*
X129850580Y-105480000D01*
%TO.C,C12*%
X136570000Y-111235580D02*
X136570000Y-110954420D01*
X137590000Y-111235580D02*
X137590000Y-110954420D01*
%TO.C,C13*%
X135890000Y-109505580D02*
X135890000Y-109224420D01*
X134870000Y-109505580D02*
X134870000Y-109224420D01*
%TO.C,D1*%
X106242000Y-126831500D02*
X106242000Y-129116500D01*
X107712000Y-126831500D02*
X106242000Y-126831500D01*
X107712000Y-129116500D02*
X107712000Y-126831500D01*
%TO.C,D2*%
X116675000Y-129142000D02*
X116675000Y-126857000D01*
X116675000Y-126857000D02*
X115205000Y-126857000D01*
X115205000Y-126857000D02*
X115205000Y-129142000D01*
%TO.C,D3*%
X139447500Y-106875000D02*
X137162500Y-106875000D01*
X139447500Y-108345000D02*
X139447500Y-106875000D01*
X137162500Y-108345000D02*
X139447500Y-108345000D01*
%TO.C,FB1*%
X125670000Y-134029622D02*
X125670000Y-133230378D01*
X124550000Y-134029622D02*
X124550000Y-133230378D01*
%TO.C,J4*%
X138940000Y-121730000D02*
X140270000Y-121730000D01*
X138940000Y-123060000D02*
X138940000Y-121730000D01*
X138940000Y-124330000D02*
X141600000Y-124330000D01*
X141600000Y-124330000D02*
X141600000Y-132010000D01*
X138940000Y-124330000D02*
X138940000Y-132010000D01*
X138940000Y-132010000D02*
X141600000Y-132010000D01*
%TO.C,J5*%
X123480000Y-122990000D02*
X123480000Y-124320000D01*
X122150000Y-122990000D02*
X123480000Y-122990000D01*
X120880000Y-122990000D02*
X120880000Y-125650000D01*
X120880000Y-125650000D02*
X110660000Y-125650000D01*
X120880000Y-122990000D02*
X110660000Y-122990000D01*
X110660000Y-122990000D02*
X110660000Y-125650000D01*
%TO.C,JP1*%
X137000000Y-105330000D02*
X135600000Y-105330000D01*
X134900000Y-104630000D02*
X134900000Y-104030000D01*
X135600000Y-103330000D02*
X137000000Y-103330000D01*
X137700000Y-104030000D02*
X137700000Y-104630000D01*
X135600000Y-105330000D02*
G75*
G02*
X134900000Y-104630000I0J700000D01*
G01*
X134900000Y-104030000D02*
G75*
G02*
X135600000Y-103330000I700000J0D01*
G01*
X137000000Y-103330000D02*
G75*
G02*
X137700000Y-104030000I0J-700000D01*
G01*
X137700000Y-104630000D02*
G75*
G02*
X137000000Y-105330000I-700000J0D01*
G01*
%TO.C,JP2*%
X112200000Y-118700000D02*
X110800000Y-118700000D01*
X110100000Y-118000000D02*
X110100000Y-117400000D01*
X110800000Y-116700000D02*
X112200000Y-116700000D01*
X112900000Y-117400000D02*
X112900000Y-118000000D01*
X110800000Y-118700000D02*
G75*
G02*
X110100000Y-118000000I0J700000D01*
G01*
X110100000Y-117400000D02*
G75*
G02*
X110800000Y-116700000I700000J0D01*
G01*
X112200000Y-116700000D02*
G75*
G02*
X112900000Y-117400000I0J-700000D01*
G01*
X112900000Y-118000000D02*
G75*
G02*
X112200000Y-118700000I-700000J0D01*
G01*
%TO.C,JP3*%
X125520000Y-131210000D02*
X124120000Y-131210000D01*
X123420000Y-130510000D02*
X123420000Y-129910000D01*
X124120000Y-129210000D02*
X125520000Y-129210000D01*
X126220000Y-129910000D02*
X126220000Y-130510000D01*
X124120000Y-131210000D02*
G75*
G02*
X123420000Y-130510000I0J700000D01*
G01*
X123420000Y-129910000D02*
G75*
G02*
X124120000Y-129210000I700000J0D01*
G01*
X125520000Y-129210000D02*
G75*
G02*
X126220000Y-129910000I0J-700000D01*
G01*
X126220000Y-130510000D02*
G75*
G02*
X125520000Y-131210000I-700000J0D01*
G01*
%TO.C,JP4*%
X133240000Y-129020000D02*
X132640000Y-129020000D01*
X133940000Y-126920000D02*
X133940000Y-128320000D01*
X132640000Y-126220000D02*
X133240000Y-126220000D01*
X131940000Y-128320000D02*
X131940000Y-126920000D01*
X132640000Y-129020000D02*
G75*
G02*
X131940000Y-128320000I0J700000D01*
G01*
X133940000Y-128320000D02*
G75*
G02*
X133240000Y-129020000I-700000J0D01*
G01*
X133240000Y-126220000D02*
G75*
G02*
X133940000Y-126920000I0J-700000D01*
G01*
X131940000Y-126920000D02*
G75*
G02*
X132640000Y-126220000I700000J0D01*
G01*
%TO.C,JP5*%
X129520000Y-129000000D02*
X128920000Y-129000000D01*
X130220000Y-126900000D02*
X130220000Y-128300000D01*
X128920000Y-126200000D02*
X129520000Y-126200000D01*
X128220000Y-128300000D02*
X128220000Y-126900000D01*
X128920000Y-129000000D02*
G75*
G02*
X128220000Y-128300000I0J700000D01*
G01*
X130220000Y-128300000D02*
G75*
G02*
X129520000Y-129000000I-700000J0D01*
G01*
X129520000Y-126200000D02*
G75*
G02*
X130220000Y-126900000I0J-700000D01*
G01*
X128220000Y-126900000D02*
G75*
G02*
X128920000Y-126200000I700000J0D01*
G01*
%TO.C,L1*%
X126462221Y-113285000D02*
X126787779Y-113285000D01*
X126462221Y-112265000D02*
X126787779Y-112265000D01*
%TO.C,R1*%
X108077500Y-128062742D02*
X108077500Y-128537258D01*
X109122500Y-128062742D02*
X109122500Y-128537258D01*
%TO.C,R2*%
X114662500Y-128104742D02*
X114662500Y-128579258D01*
X113617500Y-128104742D02*
X113617500Y-128579258D01*
%TO.C,R3*%
X138697500Y-111772258D02*
X138697500Y-111297742D01*
X139742500Y-111772258D02*
X139742500Y-111297742D01*
%TO.C,R4*%
X108227500Y-117487258D02*
X108227500Y-117012742D01*
X109272500Y-117487258D02*
X109272500Y-117012742D01*
%TO.C,R5*%
X130922742Y-112192500D02*
X131397258Y-112192500D01*
X130922742Y-111147500D02*
X131397258Y-111147500D01*
%TO.C,R6*%
X121912500Y-108842258D02*
X121912500Y-108367742D01*
X120867500Y-108842258D02*
X120867500Y-108367742D01*
D12*
%TO.C,SW1*%
X117310000Y-130360000D02*
X104710000Y-130360000D01*
X104710000Y-137460000D02*
X104710000Y-130360000D01*
X117310000Y-137460000D02*
X104710000Y-137460000D01*
X117310000Y-137460000D02*
X117310000Y-130360000D01*
X110710000Y-142960000D02*
X108010000Y-142960000D01*
X110710000Y-142960000D02*
X110710000Y-137460000D01*
X108010000Y-142960000D02*
X108010000Y-137460000D01*
D13*
%TO.C,SW2*%
X110950000Y-114700000D02*
X110950000Y-110300000D01*
X110950000Y-110300000D02*
X110830000Y-110300000D01*
X109820000Y-110300000D02*
X108680000Y-110300000D01*
X107670000Y-110300000D02*
X107550000Y-110300000D01*
X107550000Y-110300000D02*
X107550000Y-114700000D01*
X107550000Y-114700000D02*
X107670000Y-114700000D01*
X108680000Y-114700000D02*
X109820000Y-114700000D01*
X110830000Y-114700000D02*
X110950000Y-114700000D01*
D12*
%TO.C,SW3*%
X118360000Y-93060000D02*
X118360000Y-98560000D01*
X115660000Y-93060000D02*
X115660000Y-98560000D01*
X115660000Y-93060000D02*
X118360000Y-93060000D01*
X109060000Y-98560000D02*
X109060000Y-105660000D01*
X109060000Y-98560000D02*
X121660000Y-98560000D01*
X121660000Y-98560000D02*
X121660000Y-105660000D01*
X109060000Y-105660000D02*
X121660000Y-105660000D01*
D13*
%TO.C,U1*%
X123220000Y-136830000D02*
X121760000Y-136830000D01*
X123220000Y-133670000D02*
X121060000Y-133670000D01*
X123220000Y-133670000D02*
X123220000Y-134600000D01*
X123220000Y-136830000D02*
X123220000Y-135900000D01*
%TO.C,U2*%
X133310000Y-116000000D02*
X133310000Y-114710000D01*
X133760000Y-116000000D02*
X133310000Y-116000000D01*
X133760000Y-116450000D02*
X133760000Y-116000000D01*
X133760000Y-123220000D02*
X133310000Y-123220000D01*
X133760000Y-122770000D02*
X133760000Y-123220000D01*
X126540000Y-116000000D02*
X126990000Y-116000000D01*
X126540000Y-116450000D02*
X126540000Y-116000000D01*
X126540000Y-123220000D02*
X126990000Y-123220000D01*
X126540000Y-122770000D02*
X126540000Y-123220000D01*
%TO.C,Y1*%
X134220000Y-106930000D02*
X128470000Y-106930000D01*
X134220000Y-110530000D02*
X134220000Y-106930000D01*
X128470000Y-110530000D02*
X134220000Y-110530000D01*
%TO.C,Y2*%
X135041421Y-111783984D02*
X135996016Y-112738579D01*
X133803984Y-113021421D02*
X134758579Y-113976016D01*
%TO.C,J7*%
X123240000Y-101330000D02*
X123240000Y-100000000D01*
X124570000Y-101330000D02*
X123240000Y-101330000D01*
X125840000Y-101330000D02*
X125840000Y-98670000D01*
X125840000Y-98670000D02*
X143680000Y-98670000D01*
X125840000Y-101330000D02*
X143680000Y-101330000D01*
X143680000Y-101330000D02*
X143680000Y-98670000D01*
%TO.C,J2*%
X98670000Y-98670000D02*
X100000000Y-98670000D01*
X98670000Y-100000000D02*
X98670000Y-98670000D01*
X98670000Y-101270000D02*
X101330000Y-101270000D01*
X101330000Y-101270000D02*
X101330000Y-136890000D01*
X98670000Y-101270000D02*
X98670000Y-136890000D01*
X98670000Y-136890000D02*
X101330000Y-136890000D01*
%TO.C,J3*%
X144670000Y-136890000D02*
X147330000Y-136890000D01*
X144670000Y-101270000D02*
X144670000Y-136890000D01*
X147330000Y-101270000D02*
X147330000Y-136890000D01*
X144670000Y-101270000D02*
X147330000Y-101270000D01*
X144670000Y-100000000D02*
X144670000Y-98670000D01*
X144670000Y-98670000D02*
X146000000Y-98670000D01*
%TO.C,J8*%
X102360000Y-101330000D02*
X102360000Y-100000000D01*
X103690000Y-101330000D02*
X102360000Y-101330000D01*
X104960000Y-101330000D02*
X104960000Y-98670000D01*
X104960000Y-98670000D02*
X107560000Y-98670000D01*
X104960000Y-101330000D02*
X107560000Y-101330000D01*
X107560000Y-101330000D02*
X107560000Y-98670000D01*
%TO.C,J6*%
X120210000Y-115330000D02*
X120210000Y-116460000D01*
X119450000Y-115330000D02*
X120210000Y-115330000D01*
X120145000Y-118037530D02*
X120145000Y-118860000D01*
X120145000Y-117220000D02*
X120145000Y-117422470D01*
X120013471Y-117220000D02*
X120145000Y-117220000D01*
X118743471Y-117220000D02*
X118886529Y-117220000D01*
X118690000Y-117023471D02*
X118690000Y-117166529D01*
X118690000Y-115330000D02*
X118690000Y-115896529D01*
X120145000Y-118860000D02*
X113675000Y-118860000D01*
X118690000Y-115330000D02*
X113675000Y-115330000D01*
X113675000Y-116767530D02*
X113675000Y-117422470D01*
X113675000Y-118037530D02*
X113675000Y-118860000D01*
X113675000Y-115330000D02*
X113675000Y-116152470D01*
%TO.C,C3*%
X136932164Y-115320000D02*
X137147836Y-115320000D01*
X136932164Y-114600000D02*
X137147836Y-114600000D01*
%TO.C,C4*%
X135882164Y-115570000D02*
X136097836Y-115570000D01*
X135882164Y-116290000D02*
X136097836Y-116290000D01*
%TO.C,C5*%
X133989190Y-115058307D02*
X134141693Y-115210810D01*
X134498307Y-114549190D02*
X134650810Y-114701693D01*
%TO.C,C6*%
X125357836Y-123790000D02*
X125142164Y-123790000D01*
X125357836Y-123070000D02*
X125142164Y-123070000D01*
%TO.C,R8*%
X104907258Y-119012500D02*
X104432742Y-119012500D01*
X104907258Y-117967500D02*
X104432742Y-117967500D01*
%TO.C,J1*%
X127550000Y-140030000D02*
X127550000Y-138420000D01*
X135270000Y-134210000D02*
X133210000Y-134210000D01*
X135270000Y-135920000D02*
X135270000Y-134210000D01*
X127550000Y-134210000D02*
X129610000Y-134210000D01*
X127550000Y-135920000D02*
X127550000Y-134210000D01*
X127550000Y-140030000D02*
X135270000Y-140030000D01*
X135270000Y-140030000D02*
X135270000Y-138420000D01*
X129610000Y-134210000D02*
X129610000Y-133620000D01*
%TO.C,J9*%
D12*
X106732380Y-118263333D02*
X107446666Y-118263333D01*
X107589523Y-118310952D01*
X107684761Y-118406190D01*
X107732380Y-118549047D01*
X107732380Y-118644285D01*
X107732380Y-117739523D02*
X107732380Y-117549047D01*
X107684761Y-117453809D01*
X107637142Y-117406190D01*
X107494285Y-117310952D01*
X107303809Y-117263333D01*
X106922857Y-117263333D01*
X106827619Y-117310952D01*
X106780000Y-117358571D01*
X106732380Y-117453809D01*
X106732380Y-117644285D01*
X106780000Y-117739523D01*
X106827619Y-117787142D01*
X106922857Y-117834761D01*
X107160952Y-117834761D01*
X107256190Y-117787142D01*
X107303809Y-117739523D01*
X107351428Y-117644285D01*
X107351428Y-117453809D01*
X107303809Y-117358571D01*
X107256190Y-117310952D01*
X107160952Y-117263333D01*
%TO.C,R7*%
X133633333Y-131592380D02*
X133300000Y-131116190D01*
X133061904Y-131592380D02*
X133061904Y-130592380D01*
X133442857Y-130592380D01*
X133538095Y-130640000D01*
X133585714Y-130687619D01*
X133633333Y-130782857D01*
X133633333Y-130925714D01*
X133585714Y-131020952D01*
X133538095Y-131068571D01*
X133442857Y-131116190D01*
X133061904Y-131116190D01*
X133966666Y-130592380D02*
X134633333Y-130592380D01*
X134204761Y-131592380D01*
%TO.C,C1*%
X122083333Y-130857142D02*
X122035714Y-130904761D01*
X121892857Y-130952380D01*
X121797619Y-130952380D01*
X121654761Y-130904761D01*
X121559523Y-130809523D01*
X121511904Y-130714285D01*
X121464285Y-130523809D01*
X121464285Y-130380952D01*
X121511904Y-130190476D01*
X121559523Y-130095238D01*
X121654761Y-130000000D01*
X121797619Y-129952380D01*
X121892857Y-129952380D01*
X122035714Y-130000000D01*
X122083333Y-130047619D01*
X123035714Y-130952380D02*
X122464285Y-130952380D01*
X122750000Y-130952380D02*
X122750000Y-129952380D01*
X122654761Y-130095238D01*
X122559523Y-130190476D01*
X122464285Y-130238095D01*
%TO.C,C2*%
X120357142Y-132916666D02*
X120404761Y-132964285D01*
X120452380Y-133107142D01*
X120452380Y-133202380D01*
X120404761Y-133345238D01*
X120309523Y-133440476D01*
X120214285Y-133488095D01*
X120023809Y-133535714D01*
X119880952Y-133535714D01*
X119690476Y-133488095D01*
X119595238Y-133440476D01*
X119500000Y-133345238D01*
X119452380Y-133202380D01*
X119452380Y-133107142D01*
X119500000Y-132964285D01*
X119547619Y-132916666D01*
X119547619Y-132535714D02*
X119500000Y-132488095D01*
X119452380Y-132392857D01*
X119452380Y-132154761D01*
X119500000Y-132059523D01*
X119547619Y-132011904D01*
X119642857Y-131964285D01*
X119738095Y-131964285D01*
X119880952Y-132011904D01*
X120452380Y-132583333D01*
X120452380Y-131964285D01*
%TO.C,C7*%
X130857142Y-113666666D02*
X130904761Y-113714285D01*
X130952380Y-113857142D01*
X130952380Y-113952380D01*
X130904761Y-114095238D01*
X130809523Y-114190476D01*
X130714285Y-114238095D01*
X130523809Y-114285714D01*
X130380952Y-114285714D01*
X130190476Y-114238095D01*
X130095238Y-114190476D01*
X130000000Y-114095238D01*
X129952380Y-113952380D01*
X129952380Y-113857142D01*
X130000000Y-113714285D01*
X130047619Y-113666666D01*
X129952380Y-113333333D02*
X129952380Y-112666666D01*
X130952380Y-113095238D01*
%TO.C,C8*%
X123833333Y-111857142D02*
X123785714Y-111904761D01*
X123642857Y-111952380D01*
X123547619Y-111952380D01*
X123404761Y-111904761D01*
X123309523Y-111809523D01*
X123261904Y-111714285D01*
X123214285Y-111523809D01*
X123214285Y-111380952D01*
X123261904Y-111190476D01*
X123309523Y-111095238D01*
X123404761Y-111000000D01*
X123547619Y-110952380D01*
X123642857Y-110952380D01*
X123785714Y-111000000D01*
X123833333Y-111047619D01*
X124404761Y-111380952D02*
X124309523Y-111333333D01*
X124261904Y-111285714D01*
X124214285Y-111190476D01*
X124214285Y-111142857D01*
X124261904Y-111047619D01*
X124309523Y-111000000D01*
X124404761Y-110952380D01*
X124595238Y-110952380D01*
X124690476Y-111000000D01*
X124738095Y-111047619D01*
X124785714Y-111142857D01*
X124785714Y-111190476D01*
X124738095Y-111285714D01*
X124690476Y-111333333D01*
X124595238Y-111380952D01*
X124404761Y-111380952D01*
X124309523Y-111428571D01*
X124261904Y-111476190D01*
X124214285Y-111571428D01*
X124214285Y-111761904D01*
X124261904Y-111857142D01*
X124309523Y-111904761D01*
X124404761Y-111952380D01*
X124595238Y-111952380D01*
X124690476Y-111904761D01*
X124738095Y-111857142D01*
X124785714Y-111761904D01*
X124785714Y-111571428D01*
X124738095Y-111476190D01*
X124690476Y-111428571D01*
X124595238Y-111380952D01*
%TO.C,C9*%
X114301142Y-111555666D02*
X114348761Y-111603285D01*
X114396380Y-111746142D01*
X114396380Y-111841380D01*
X114348761Y-111984238D01*
X114253523Y-112079476D01*
X114158285Y-112127095D01*
X113967809Y-112174714D01*
X113824952Y-112174714D01*
X113634476Y-112127095D01*
X113539238Y-112079476D01*
X113444000Y-111984238D01*
X113396380Y-111841380D01*
X113396380Y-111746142D01*
X113444000Y-111603285D01*
X113491619Y-111555666D01*
X114396380Y-111079476D02*
X114396380Y-110889000D01*
X114348761Y-110793761D01*
X114301142Y-110746142D01*
X114158285Y-110650904D01*
X113967809Y-110603285D01*
X113586857Y-110603285D01*
X113491619Y-110650904D01*
X113444000Y-110698523D01*
X113396380Y-110793761D01*
X113396380Y-110984238D01*
X113444000Y-111079476D01*
X113491619Y-111127095D01*
X113586857Y-111174714D01*
X113824952Y-111174714D01*
X113920190Y-111127095D01*
X113967809Y-111079476D01*
X114015428Y-110984238D01*
X114015428Y-110793761D01*
X113967809Y-110698523D01*
X113920190Y-110650904D01*
X113824952Y-110603285D01*
%TO.C,C10*%
X132357142Y-104857142D02*
X132309523Y-104904761D01*
X132166666Y-104952380D01*
X132071428Y-104952380D01*
X131928571Y-104904761D01*
X131833333Y-104809523D01*
X131785714Y-104714285D01*
X131738095Y-104523809D01*
X131738095Y-104380952D01*
X131785714Y-104190476D01*
X131833333Y-104095238D01*
X131928571Y-104000000D01*
X132071428Y-103952380D01*
X132166666Y-103952380D01*
X132309523Y-104000000D01*
X132357142Y-104047619D01*
X133309523Y-104952380D02*
X132738095Y-104952380D01*
X133023809Y-104952380D02*
X133023809Y-103952380D01*
X132928571Y-104095238D01*
X132833333Y-104190476D01*
X132738095Y-104238095D01*
X133928571Y-103952380D02*
X134023809Y-103952380D01*
X134119047Y-104000000D01*
X134166666Y-104047619D01*
X134214285Y-104142857D01*
X134261904Y-104333333D01*
X134261904Y-104571428D01*
X134214285Y-104761904D01*
X134166666Y-104857142D01*
X134119047Y-104904761D01*
X134023809Y-104952380D01*
X133928571Y-104952380D01*
X133833333Y-104904761D01*
X133785714Y-104857142D01*
X133738095Y-104761904D01*
X133690476Y-104571428D01*
X133690476Y-104333333D01*
X133738095Y-104142857D01*
X133785714Y-104047619D01*
X133833333Y-104000000D01*
X133928571Y-103952380D01*
%TO.C,C11*%
X129067142Y-104917142D02*
X129019523Y-104964761D01*
X128876666Y-105012380D01*
X128781428Y-105012380D01*
X128638571Y-104964761D01*
X128543333Y-104869523D01*
X128495714Y-104774285D01*
X128448095Y-104583809D01*
X128448095Y-104440952D01*
X128495714Y-104250476D01*
X128543333Y-104155238D01*
X128638571Y-104060000D01*
X128781428Y-104012380D01*
X128876666Y-104012380D01*
X129019523Y-104060000D01*
X129067142Y-104107619D01*
X130019523Y-105012380D02*
X129448095Y-105012380D01*
X129733809Y-105012380D02*
X129733809Y-104012380D01*
X129638571Y-104155238D01*
X129543333Y-104250476D01*
X129448095Y-104298095D01*
X130971904Y-105012380D02*
X130400476Y-105012380D01*
X130686190Y-105012380D02*
X130686190Y-104012380D01*
X130590952Y-104155238D01*
X130495714Y-104250476D01*
X130400476Y-104298095D01*
%TO.C,C12*%
X141107142Y-112392857D02*
X141154761Y-112440476D01*
X141202380Y-112583333D01*
X141202380Y-112678571D01*
X141154761Y-112821428D01*
X141059523Y-112916666D01*
X140964285Y-112964285D01*
X140773809Y-113011904D01*
X140630952Y-113011904D01*
X140440476Y-112964285D01*
X140345238Y-112916666D01*
X140250000Y-112821428D01*
X140202380Y-112678571D01*
X140202380Y-112583333D01*
X140250000Y-112440476D01*
X140297619Y-112392857D01*
X141202380Y-111440476D02*
X141202380Y-112011904D01*
X141202380Y-111726190D02*
X140202380Y-111726190D01*
X140345238Y-111821428D01*
X140440476Y-111916666D01*
X140488095Y-112011904D01*
X140297619Y-111059523D02*
X140250000Y-111011904D01*
X140202380Y-110916666D01*
X140202380Y-110678571D01*
X140250000Y-110583333D01*
X140297619Y-110535714D01*
X140392857Y-110488095D01*
X140488095Y-110488095D01*
X140630952Y-110535714D01*
X141202380Y-111107142D01*
X141202380Y-110488095D01*
%TO.C,C13*%
X135750000Y-107200000D02*
X135783333Y-107233333D01*
X135816666Y-107333333D01*
X135816666Y-107400000D01*
X135783333Y-107500000D01*
X135716666Y-107566666D01*
X135650000Y-107600000D01*
X135516666Y-107633333D01*
X135416666Y-107633333D01*
X135283333Y-107600000D01*
X135216666Y-107566666D01*
X135150000Y-107500000D01*
X135116666Y-107400000D01*
X135116666Y-107333333D01*
X135150000Y-107233333D01*
X135183333Y-107200000D01*
X135816666Y-106533333D02*
X135816666Y-106933333D01*
X135816666Y-106733333D02*
X135116666Y-106733333D01*
X135216666Y-106800000D01*
X135283333Y-106866666D01*
X135316666Y-106933333D01*
X135116666Y-106300000D02*
X135116666Y-105866666D01*
X135383333Y-106100000D01*
X135383333Y-106000000D01*
X135416666Y-105933333D01*
X135450000Y-105900000D01*
X135516666Y-105866666D01*
X135683333Y-105866666D01*
X135750000Y-105900000D01*
X135783333Y-105933333D01*
X135816666Y-106000000D01*
X135816666Y-106200000D01*
X135783333Y-106266666D01*
X135750000Y-106300000D01*
%TO.C,D1*%
X104451904Y-129992380D02*
X104451904Y-128992380D01*
X104690000Y-128992380D01*
X104832857Y-129040000D01*
X104928095Y-129135238D01*
X104975714Y-129230476D01*
X105023333Y-129420952D01*
X105023333Y-129563809D01*
X104975714Y-129754285D01*
X104928095Y-129849523D01*
X104832857Y-129944761D01*
X104690000Y-129992380D01*
X104451904Y-129992380D01*
X105975714Y-129992380D02*
X105404285Y-129992380D01*
X105690000Y-129992380D02*
X105690000Y-128992380D01*
X105594761Y-129135238D01*
X105499523Y-129230476D01*
X105404285Y-129278095D01*
%TO.C,D2*%
X116921904Y-130072380D02*
X116921904Y-129072380D01*
X117160000Y-129072380D01*
X117302857Y-129120000D01*
X117398095Y-129215238D01*
X117445714Y-129310476D01*
X117493333Y-129500952D01*
X117493333Y-129643809D01*
X117445714Y-129834285D01*
X117398095Y-129929523D01*
X117302857Y-130024761D01*
X117160000Y-130072380D01*
X116921904Y-130072380D01*
X117874285Y-129167619D02*
X117921904Y-129120000D01*
X118017142Y-129072380D01*
X118255238Y-129072380D01*
X118350476Y-129120000D01*
X118398095Y-129167619D01*
X118445714Y-129262857D01*
X118445714Y-129358095D01*
X118398095Y-129500952D01*
X117826666Y-130072380D01*
X118445714Y-130072380D01*
%TO.C,D3*%
X137224404Y-109492380D02*
X137224404Y-108492380D01*
X137462500Y-108492380D01*
X137605357Y-108540000D01*
X137700595Y-108635238D01*
X137748214Y-108730476D01*
X137795833Y-108920952D01*
X137795833Y-109063809D01*
X137748214Y-109254285D01*
X137700595Y-109349523D01*
X137605357Y-109444761D01*
X137462500Y-109492380D01*
X137224404Y-109492380D01*
X138129166Y-108492380D02*
X138748214Y-108492380D01*
X138414880Y-108873333D01*
X138557738Y-108873333D01*
X138652976Y-108920952D01*
X138700595Y-108968571D01*
X138748214Y-109063809D01*
X138748214Y-109301904D01*
X138700595Y-109397142D01*
X138652976Y-109444761D01*
X138557738Y-109492380D01*
X138272023Y-109492380D01*
X138176785Y-109444761D01*
X138129166Y-109397142D01*
%TO.C,FB1*%
X126166666Y-131928571D02*
X125833333Y-131928571D01*
X125833333Y-132452380D02*
X125833333Y-131452380D01*
X126309523Y-131452380D01*
X127023809Y-131928571D02*
X127166666Y-131976190D01*
X127214285Y-132023809D01*
X127261904Y-132119047D01*
X127261904Y-132261904D01*
X127214285Y-132357142D01*
X127166666Y-132404761D01*
X127071428Y-132452380D01*
X126690476Y-132452380D01*
X126690476Y-131452380D01*
X127023809Y-131452380D01*
X127119047Y-131500000D01*
X127166666Y-131547619D01*
X127214285Y-131642857D01*
X127214285Y-131738095D01*
X127166666Y-131833333D01*
X127119047Y-131880952D01*
X127023809Y-131928571D01*
X126690476Y-131928571D01*
X128214285Y-132452380D02*
X127642857Y-132452380D01*
X127928571Y-132452380D02*
X127928571Y-131452380D01*
X127833333Y-131595238D01*
X127738095Y-131690476D01*
X127642857Y-131738095D01*
%TO.C,J4*%
X139936666Y-120182380D02*
X139936666Y-120896666D01*
X139889047Y-121039523D01*
X139793809Y-121134761D01*
X139650952Y-121182380D01*
X139555714Y-121182380D01*
X140841428Y-120515714D02*
X140841428Y-121182380D01*
X140603333Y-120134761D02*
X140365238Y-120849047D01*
X140984285Y-120849047D01*
%TO.C,J5*%
X122452380Y-126833333D02*
X123166666Y-126833333D01*
X123309523Y-126880952D01*
X123404761Y-126976190D01*
X123452380Y-127119047D01*
X123452380Y-127214285D01*
X122452380Y-125880952D02*
X122452380Y-126357142D01*
X122928571Y-126404761D01*
X122880952Y-126357142D01*
X122833333Y-126261904D01*
X122833333Y-126023809D01*
X122880952Y-125928571D01*
X122928571Y-125880952D01*
X123023809Y-125833333D01*
X123261904Y-125833333D01*
X123357142Y-125880952D01*
X123404761Y-125928571D01*
X123452380Y-126023809D01*
X123452380Y-126261904D01*
X123404761Y-126357142D01*
X123357142Y-126404761D01*
%TO.C,JP1*%
X135466666Y-101952380D02*
X135466666Y-102666666D01*
X135419047Y-102809523D01*
X135323809Y-102904761D01*
X135180952Y-102952380D01*
X135085714Y-102952380D01*
X135942857Y-102952380D02*
X135942857Y-101952380D01*
X136323809Y-101952380D01*
X136419047Y-102000000D01*
X136466666Y-102047619D01*
X136514285Y-102142857D01*
X136514285Y-102285714D01*
X136466666Y-102380952D01*
X136419047Y-102428571D01*
X136323809Y-102476190D01*
X135942857Y-102476190D01*
X137466666Y-102952380D02*
X136895238Y-102952380D01*
X137180952Y-102952380D02*
X137180952Y-101952380D01*
X137085714Y-102095238D01*
X136990476Y-102190476D01*
X136895238Y-102238095D01*
%TO.C,JP2*%
X110386666Y-115482380D02*
X110386666Y-116196666D01*
X110339047Y-116339523D01*
X110243809Y-116434761D01*
X110100952Y-116482380D01*
X110005714Y-116482380D01*
X110862857Y-116482380D02*
X110862857Y-115482380D01*
X111243809Y-115482380D01*
X111339047Y-115530000D01*
X111386666Y-115577619D01*
X111434285Y-115672857D01*
X111434285Y-115815714D01*
X111386666Y-115910952D01*
X111339047Y-115958571D01*
X111243809Y-116006190D01*
X110862857Y-116006190D01*
X111815238Y-115577619D02*
X111862857Y-115530000D01*
X111958095Y-115482380D01*
X112196190Y-115482380D01*
X112291428Y-115530000D01*
X112339047Y-115577619D01*
X112386666Y-115672857D01*
X112386666Y-115768095D01*
X112339047Y-115910952D01*
X111767619Y-116482380D01*
X112386666Y-116482380D01*
%TO.C,JP3*%
X124166666Y-127952380D02*
X124166666Y-128666666D01*
X124119047Y-128809523D01*
X124023809Y-128904761D01*
X123880952Y-128952380D01*
X123785714Y-128952380D01*
X124642857Y-128952380D02*
X124642857Y-127952380D01*
X125023809Y-127952380D01*
X125119047Y-128000000D01*
X125166666Y-128047619D01*
X125214285Y-128142857D01*
X125214285Y-128285714D01*
X125166666Y-128380952D01*
X125119047Y-128428571D01*
X125023809Y-128476190D01*
X124642857Y-128476190D01*
X125547619Y-127952380D02*
X126166666Y-127952380D01*
X125833333Y-128333333D01*
X125976190Y-128333333D01*
X126071428Y-128380952D01*
X126119047Y-128428571D01*
X126166666Y-128523809D01*
X126166666Y-128761904D01*
X126119047Y-128857142D01*
X126071428Y-128904761D01*
X125976190Y-128952380D01*
X125690476Y-128952380D01*
X125595238Y-128904761D01*
X125547619Y-128857142D01*
%TO.C,JP4*%
X130592380Y-128453333D02*
X131306666Y-128453333D01*
X131449523Y-128500952D01*
X131544761Y-128596190D01*
X131592380Y-128739047D01*
X131592380Y-128834285D01*
X131592380Y-127977142D02*
X130592380Y-127977142D01*
X130592380Y-127596190D01*
X130640000Y-127500952D01*
X130687619Y-127453333D01*
X130782857Y-127405714D01*
X130925714Y-127405714D01*
X131020952Y-127453333D01*
X131068571Y-127500952D01*
X131116190Y-127596190D01*
X131116190Y-127977142D01*
X130925714Y-126548571D02*
X131592380Y-126548571D01*
X130544761Y-126786666D02*
X131259047Y-127024761D01*
X131259047Y-126405714D01*
%TO.C,JP5*%
X126872380Y-128433333D02*
X127586666Y-128433333D01*
X127729523Y-128480952D01*
X127824761Y-128576190D01*
X127872380Y-128719047D01*
X127872380Y-128814285D01*
X127872380Y-127957142D02*
X126872380Y-127957142D01*
X126872380Y-127576190D01*
X126920000Y-127480952D01*
X126967619Y-127433333D01*
X127062857Y-127385714D01*
X127205714Y-127385714D01*
X127300952Y-127433333D01*
X127348571Y-127480952D01*
X127396190Y-127576190D01*
X127396190Y-127957142D01*
X126872380Y-126480952D02*
X126872380Y-126957142D01*
X127348571Y-127004761D01*
X127300952Y-126957142D01*
X127253333Y-126861904D01*
X127253333Y-126623809D01*
X127300952Y-126528571D01*
X127348571Y-126480952D01*
X127443809Y-126433333D01*
X127681904Y-126433333D01*
X127777142Y-126480952D01*
X127824761Y-126528571D01*
X127872380Y-126623809D01*
X127872380Y-126861904D01*
X127824761Y-126957142D01*
X127777142Y-127004761D01*
%TO.C,L1*%
X124333333Y-113452380D02*
X123857142Y-113452380D01*
X123857142Y-112452380D01*
X125190476Y-113452380D02*
X124619047Y-113452380D01*
X124904761Y-113452380D02*
X124904761Y-112452380D01*
X124809523Y-112595238D01*
X124714285Y-112690476D01*
X124619047Y-112738095D01*
%TO.C,R1*%
X110482380Y-128466666D02*
X110006190Y-128800000D01*
X110482380Y-129038095D02*
X109482380Y-129038095D01*
X109482380Y-128657142D01*
X109530000Y-128561904D01*
X109577619Y-128514285D01*
X109672857Y-128466666D01*
X109815714Y-128466666D01*
X109910952Y-128514285D01*
X109958571Y-128561904D01*
X110006190Y-128657142D01*
X110006190Y-129038095D01*
X110482380Y-127514285D02*
X110482380Y-128085714D01*
X110482380Y-127800000D02*
X109482380Y-127800000D01*
X109625238Y-127895238D01*
X109720476Y-127990476D01*
X109768095Y-128085714D01*
%TO.C,R2*%
X112952380Y-128508666D02*
X112476190Y-128842000D01*
X112952380Y-129080095D02*
X111952380Y-129080095D01*
X111952380Y-128699142D01*
X112000000Y-128603904D01*
X112047619Y-128556285D01*
X112142857Y-128508666D01*
X112285714Y-128508666D01*
X112380952Y-128556285D01*
X112428571Y-128603904D01*
X112476190Y-128699142D01*
X112476190Y-129080095D01*
X112047619Y-128127714D02*
X112000000Y-128080095D01*
X111952380Y-127984857D01*
X111952380Y-127746761D01*
X112000000Y-127651523D01*
X112047619Y-127603904D01*
X112142857Y-127556285D01*
X112238095Y-127556285D01*
X112380952Y-127603904D01*
X112952380Y-128175333D01*
X112952380Y-127556285D01*
%TO.C,R3*%
X142702380Y-111666666D02*
X142226190Y-112000000D01*
X142702380Y-112238095D02*
X141702380Y-112238095D01*
X141702380Y-111857142D01*
X141750000Y-111761904D01*
X141797619Y-111714285D01*
X141892857Y-111666666D01*
X142035714Y-111666666D01*
X142130952Y-111714285D01*
X142178571Y-111761904D01*
X142226190Y-111857142D01*
X142226190Y-112238095D01*
X141702380Y-111333333D02*
X141702380Y-110714285D01*
X142083333Y-111047619D01*
X142083333Y-110904761D01*
X142130952Y-110809523D01*
X142178571Y-110761904D01*
X142273809Y-110714285D01*
X142511904Y-110714285D01*
X142607142Y-110761904D01*
X142654761Y-110809523D01*
X142702380Y-110904761D01*
X142702380Y-111190476D01*
X142654761Y-111285714D01*
X142607142Y-111333333D01*
%TO.C,R4*%
X109202380Y-119916666D02*
X108726190Y-120250000D01*
X109202380Y-120488095D02*
X108202380Y-120488095D01*
X108202380Y-120107142D01*
X108250000Y-120011904D01*
X108297619Y-119964285D01*
X108392857Y-119916666D01*
X108535714Y-119916666D01*
X108630952Y-119964285D01*
X108678571Y-120011904D01*
X108726190Y-120107142D01*
X108726190Y-120488095D01*
X108535714Y-119059523D02*
X109202380Y-119059523D01*
X108154761Y-119297619D02*
X108869047Y-119535714D01*
X108869047Y-118916666D01*
%TO.C,R5*%
X132387380Y-113686666D02*
X131911190Y-114020000D01*
X132387380Y-114258095D02*
X131387380Y-114258095D01*
X131387380Y-113877142D01*
X131435000Y-113781904D01*
X131482619Y-113734285D01*
X131577857Y-113686666D01*
X131720714Y-113686666D01*
X131815952Y-113734285D01*
X131863571Y-113781904D01*
X131911190Y-113877142D01*
X131911190Y-114258095D01*
X131387380Y-112781904D02*
X131387380Y-113258095D01*
X131863571Y-113305714D01*
X131815952Y-113258095D01*
X131768333Y-113162857D01*
X131768333Y-112924761D01*
X131815952Y-112829523D01*
X131863571Y-112781904D01*
X131958809Y-112734285D01*
X132196904Y-112734285D01*
X132292142Y-112781904D01*
X132339761Y-112829523D01*
X132387380Y-112924761D01*
X132387380Y-113162857D01*
X132339761Y-113258095D01*
X132292142Y-113305714D01*
%TO.C,R6*%
X120412380Y-108771666D02*
X119936190Y-109105000D01*
X120412380Y-109343095D02*
X119412380Y-109343095D01*
X119412380Y-108962142D01*
X119460000Y-108866904D01*
X119507619Y-108819285D01*
X119602857Y-108771666D01*
X119745714Y-108771666D01*
X119840952Y-108819285D01*
X119888571Y-108866904D01*
X119936190Y-108962142D01*
X119936190Y-109343095D01*
X119412380Y-107914523D02*
X119412380Y-108105000D01*
X119460000Y-108200238D01*
X119507619Y-108247857D01*
X119650476Y-108343095D01*
X119840952Y-108390714D01*
X120221904Y-108390714D01*
X120317142Y-108343095D01*
X120364761Y-108295476D01*
X120412380Y-108200238D01*
X120412380Y-108009761D01*
X120364761Y-107914523D01*
X120317142Y-107866904D01*
X120221904Y-107819285D01*
X119983809Y-107819285D01*
X119888571Y-107866904D01*
X119840952Y-107914523D01*
X119793333Y-108009761D01*
X119793333Y-108200238D01*
X119840952Y-108295476D01*
X119888571Y-108343095D01*
X119983809Y-108390714D01*
%TO.C,U1*%
X121738095Y-137452380D02*
X121738095Y-138261904D01*
X121785714Y-138357142D01*
X121833333Y-138404761D01*
X121928571Y-138452380D01*
X122119047Y-138452380D01*
X122214285Y-138404761D01*
X122261904Y-138357142D01*
X122309523Y-138261904D01*
X122309523Y-137452380D01*
X123309523Y-138452380D02*
X122738095Y-138452380D01*
X123023809Y-138452380D02*
X123023809Y-137452380D01*
X122928571Y-137595238D01*
X122833333Y-137690476D01*
X122738095Y-137738095D01*
%TO.C,U2*%
X123848095Y-115002380D02*
X123848095Y-115811904D01*
X123895714Y-115907142D01*
X123943333Y-115954761D01*
X124038571Y-116002380D01*
X124229047Y-116002380D01*
X124324285Y-115954761D01*
X124371904Y-115907142D01*
X124419523Y-115811904D01*
X124419523Y-115002380D01*
X124848095Y-115097619D02*
X124895714Y-115050000D01*
X124990952Y-115002380D01*
X125229047Y-115002380D01*
X125324285Y-115050000D01*
X125371904Y-115097619D01*
X125419523Y-115192857D01*
X125419523Y-115288095D01*
X125371904Y-115430952D01*
X124800476Y-116002380D01*
X125419523Y-116002380D01*
%TO.C,Y1*%
X126523809Y-108976190D02*
X126523809Y-109452380D01*
X126190476Y-108452380D02*
X126523809Y-108976190D01*
X126857142Y-108452380D01*
X127714285Y-109452380D02*
X127142857Y-109452380D01*
X127428571Y-109452380D02*
X127428571Y-108452380D01*
X127333333Y-108595238D01*
X127238095Y-108690476D01*
X127142857Y-108738095D01*
%TO.C,Y2*%
X137460118Y-113206446D02*
X137123400Y-113543164D01*
X137594805Y-112600355D02*
X137460118Y-113206446D01*
X138066209Y-113071759D01*
X138200896Y-113341133D02*
X138268240Y-113341133D01*
X138369255Y-113374805D01*
X138537614Y-113543164D01*
X138571286Y-113644179D01*
X138571286Y-113711522D01*
X138537614Y-113812538D01*
X138470270Y-113879881D01*
X138335583Y-113947225D01*
X137527461Y-113947225D01*
X137965194Y-114384957D01*
%TO.C,J7*%
X123226666Y-101842380D02*
X123226666Y-102556666D01*
X123179047Y-102699523D01*
X123083809Y-102794761D01*
X122940952Y-102842380D01*
X122845714Y-102842380D01*
X123607619Y-101842380D02*
X124274285Y-101842380D01*
X123845714Y-102842380D01*
%TO.C,J2*%
X101202380Y-100143333D02*
X101916666Y-100143333D01*
X102059523Y-100190952D01*
X102154761Y-100286190D01*
X102202380Y-100429047D01*
X102202380Y-100524285D01*
X101297619Y-99714761D02*
X101250000Y-99667142D01*
X101202380Y-99571904D01*
X101202380Y-99333809D01*
X101250000Y-99238571D01*
X101297619Y-99190952D01*
X101392857Y-99143333D01*
X101488095Y-99143333D01*
X101630952Y-99190952D01*
X102202380Y-99762380D01*
X102202380Y-99143333D01*
%TO.C,J3*%
X143342380Y-102703333D02*
X144056666Y-102703333D01*
X144199523Y-102750952D01*
X144294761Y-102846190D01*
X144342380Y-102989047D01*
X144342380Y-103084285D01*
X143342380Y-102322380D02*
X143342380Y-101703333D01*
X143723333Y-102036666D01*
X143723333Y-101893809D01*
X143770952Y-101798571D01*
X143818571Y-101750952D01*
X143913809Y-101703333D01*
X144151904Y-101703333D01*
X144247142Y-101750952D01*
X144294761Y-101798571D01*
X144342380Y-101893809D01*
X144342380Y-102179523D01*
X144294761Y-102274761D01*
X144247142Y-102322380D01*
%TO.C,J8*%
X106566666Y-101722380D02*
X106566666Y-102436666D01*
X106519047Y-102579523D01*
X106423809Y-102674761D01*
X106280952Y-102722380D01*
X106185714Y-102722380D01*
X107185714Y-102150952D02*
X107090476Y-102103333D01*
X107042857Y-102055714D01*
X106995238Y-101960476D01*
X106995238Y-101912857D01*
X107042857Y-101817619D01*
X107090476Y-101770000D01*
X107185714Y-101722380D01*
X107376190Y-101722380D01*
X107471428Y-101770000D01*
X107519047Y-101817619D01*
X107566666Y-101912857D01*
X107566666Y-101960476D01*
X107519047Y-102055714D01*
X107471428Y-102103333D01*
X107376190Y-102150952D01*
X107185714Y-102150952D01*
X107090476Y-102198571D01*
X107042857Y-102246190D01*
X106995238Y-102341428D01*
X106995238Y-102531904D01*
X107042857Y-102627142D01*
X107090476Y-102674761D01*
X107185714Y-102722380D01*
X107376190Y-102722380D01*
X107471428Y-102674761D01*
X107519047Y-102627142D01*
X107566666Y-102531904D01*
X107566666Y-102341428D01*
X107519047Y-102246190D01*
X107471428Y-102198571D01*
X107376190Y-102150952D01*
%TO.C,J6*%
X120572380Y-116983333D02*
X121286666Y-116983333D01*
X121429523Y-117030952D01*
X121524761Y-117126190D01*
X121572380Y-117269047D01*
X121572380Y-117364285D01*
X120572380Y-116078571D02*
X120572380Y-116269047D01*
X120620000Y-116364285D01*
X120667619Y-116411904D01*
X120810476Y-116507142D01*
X121000952Y-116554761D01*
X121381904Y-116554761D01*
X121477142Y-116507142D01*
X121524761Y-116459523D01*
X121572380Y-116364285D01*
X121572380Y-116173809D01*
X121524761Y-116078571D01*
X121477142Y-116030952D01*
X121381904Y-115983333D01*
X121143809Y-115983333D01*
X121048571Y-116030952D01*
X121000952Y-116078571D01*
X120953333Y-116173809D01*
X120953333Y-116364285D01*
X121000952Y-116459523D01*
X121048571Y-116507142D01*
X121143809Y-116554761D01*
%TO.C,C3*%
X138983333Y-115157142D02*
X138935714Y-115204761D01*
X138792857Y-115252380D01*
X138697619Y-115252380D01*
X138554761Y-115204761D01*
X138459523Y-115109523D01*
X138411904Y-115014285D01*
X138364285Y-114823809D01*
X138364285Y-114680952D01*
X138411904Y-114490476D01*
X138459523Y-114395238D01*
X138554761Y-114300000D01*
X138697619Y-114252380D01*
X138792857Y-114252380D01*
X138935714Y-114300000D01*
X138983333Y-114347619D01*
X139316666Y-114252380D02*
X139935714Y-114252380D01*
X139602380Y-114633333D01*
X139745238Y-114633333D01*
X139840476Y-114680952D01*
X139888095Y-114728571D01*
X139935714Y-114823809D01*
X139935714Y-115061904D01*
X139888095Y-115157142D01*
X139840476Y-115204761D01*
X139745238Y-115252380D01*
X139459523Y-115252380D01*
X139364285Y-115204761D01*
X139316666Y-115157142D01*
%TO.C,C4*%
X138083333Y-116607142D02*
X138035714Y-116654761D01*
X137892857Y-116702380D01*
X137797619Y-116702380D01*
X137654761Y-116654761D01*
X137559523Y-116559523D01*
X137511904Y-116464285D01*
X137464285Y-116273809D01*
X137464285Y-116130952D01*
X137511904Y-115940476D01*
X137559523Y-115845238D01*
X137654761Y-115750000D01*
X137797619Y-115702380D01*
X137892857Y-115702380D01*
X138035714Y-115750000D01*
X138083333Y-115797619D01*
X138940476Y-116035714D02*
X138940476Y-116702380D01*
X138702380Y-115654761D02*
X138464285Y-116369047D01*
X139083333Y-116369047D01*
%TO.C,C5*%
D14*
X132890727Y-113744280D02*
X132843587Y-113744280D01*
X132749306Y-113697140D01*
X132702165Y-113650000D01*
X132655025Y-113555719D01*
X132655025Y-113461438D01*
X132678595Y-113390727D01*
X132749306Y-113272876D01*
X132820016Y-113202165D01*
X132937867Y-113131455D01*
X133008578Y-113107884D01*
X133102859Y-113107884D01*
X133197140Y-113155025D01*
X133244280Y-113202165D01*
X133291421Y-113296446D01*
X133291421Y-113343587D01*
X133786396Y-113744280D02*
X133550693Y-113508578D01*
X133291421Y-113720710D01*
X133338561Y-113720710D01*
X133409272Y-113744280D01*
X133527123Y-113862132D01*
X133550693Y-113932842D01*
X133550693Y-113979983D01*
X133527123Y-114050693D01*
X133409272Y-114168544D01*
X133338561Y-114192115D01*
X133291421Y-114192115D01*
X133220710Y-114168544D01*
X133102859Y-114050693D01*
X133079289Y-113979983D01*
X133079289Y-113932842D01*
%TO.C,C6*%
D12*
X125833333Y-124947142D02*
X125785714Y-124994761D01*
X125642857Y-125042380D01*
X125547619Y-125042380D01*
X125404761Y-124994761D01*
X125309523Y-124899523D01*
X125261904Y-124804285D01*
X125214285Y-124613809D01*
X125214285Y-124470952D01*
X125261904Y-124280476D01*
X125309523Y-124185238D01*
X125404761Y-124090000D01*
X125547619Y-124042380D01*
X125642857Y-124042380D01*
X125785714Y-124090000D01*
X125833333Y-124137619D01*
X126690476Y-124042380D02*
X126500000Y-124042380D01*
X126404761Y-124090000D01*
X126357142Y-124137619D01*
X126261904Y-124280476D01*
X126214285Y-124470952D01*
X126214285Y-124851904D01*
X126261904Y-124947142D01*
X126309523Y-124994761D01*
X126404761Y-125042380D01*
X126595238Y-125042380D01*
X126690476Y-124994761D01*
X126738095Y-124947142D01*
X126785714Y-124851904D01*
X126785714Y-124613809D01*
X126738095Y-124518571D01*
X126690476Y-124470952D01*
X126595238Y-124423333D01*
X126404761Y-124423333D01*
X126309523Y-124470952D01*
X126261904Y-124518571D01*
X126214285Y-124613809D01*
%TO.C,R8*%
X104503333Y-120372380D02*
X104170000Y-119896190D01*
X103931904Y-120372380D02*
X103931904Y-119372380D01*
X104312857Y-119372380D01*
X104408095Y-119420000D01*
X104455714Y-119467619D01*
X104503333Y-119562857D01*
X104503333Y-119705714D01*
X104455714Y-119800952D01*
X104408095Y-119848571D01*
X104312857Y-119896190D01*
X103931904Y-119896190D01*
X105074761Y-119800952D02*
X104979523Y-119753333D01*
X104931904Y-119705714D01*
X104884285Y-119610476D01*
X104884285Y-119562857D01*
X104931904Y-119467619D01*
X104979523Y-119420000D01*
X105074761Y-119372380D01*
X105265238Y-119372380D01*
X105360476Y-119420000D01*
X105408095Y-119467619D01*
X105455714Y-119562857D01*
X105455714Y-119610476D01*
X105408095Y-119705714D01*
X105360476Y-119753333D01*
X105265238Y-119800952D01*
X105074761Y-119800952D01*
X104979523Y-119848571D01*
X104931904Y-119896190D01*
X104884285Y-119991428D01*
X104884285Y-120181904D01*
X104931904Y-120277142D01*
X104979523Y-120324761D01*
X105074761Y-120372380D01*
X105265238Y-120372380D01*
X105360476Y-120324761D01*
X105408095Y-120277142D01*
X105455714Y-120181904D01*
X105455714Y-119991428D01*
X105408095Y-119896190D01*
X105360476Y-119848571D01*
X105265238Y-119800952D01*
%TO.C,J1*%
X131076666Y-131772380D02*
X131076666Y-132486666D01*
X131029047Y-132629523D01*
X130933809Y-132724761D01*
X130790952Y-132772380D01*
X130695714Y-132772380D01*
X132076666Y-132772380D02*
X131505238Y-132772380D01*
X131790952Y-132772380D02*
X131790952Y-131772380D01*
X131695714Y-131915238D01*
X131600476Y-132010476D01*
X131505238Y-132058095D01*
%TD*%
M02*
