%TF.GenerationSoftware,KiCad,Pcbnew,(5.1.8)-1*%
%TF.CreationDate,2021-06-10T03:31:17+02:00*%
%TF.ProjectId,GD32F190-dev-brd,47443332-4631-4393-902d-6465762d6272,rev?*%
%TF.SameCoordinates,Original*%
%TF.FileFunction,Soldermask,Bot*%
%TF.FilePolarity,Negative*%
%FSLAX46Y46*%
G04 Gerber Fmt 4.6, Leading zero omitted, Abs format (unit mm)*
G04 Created by KiCad (PCBNEW (5.1.8)-1) date 2021-06-10 03:31:17*
%MOMM*%
%LPD*%
G01*
G04 APERTURE LIST*
%ADD10R,1.700000X1.700000*%
%ADD11O,1.700000X1.700000*%
%ADD12C,1.524000*%
%ADD13O,1.250000X2.250000*%
%ADD14R,1.000000X1.000000*%
%ADD15O,1.000000X1.000000*%
G04 APERTURE END LIST*
D10*
%TO.C,J9*%
X105450000Y-115750000D03*
D11*
X105450000Y-113210000D03*
X105450000Y-110670000D03*
%TD*%
D10*
%TO.C,J4*%
X140270000Y-123060000D03*
D11*
X140270000Y-125600000D03*
X140270000Y-128140000D03*
X140270000Y-130680000D03*
%TD*%
D10*
%TO.C,J5*%
X122150000Y-124320000D03*
D11*
X119610000Y-124320000D03*
X117070000Y-124320000D03*
X114530000Y-124320000D03*
X111990000Y-124320000D03*
%TD*%
D12*
%TO.C,SW1*%
X115010000Y-135210000D03*
X111010000Y-135210000D03*
X107010000Y-135210000D03*
X115010000Y-132710000D03*
X111010000Y-132710000D03*
X107010000Y-132710000D03*
D13*
X104710000Y-133960000D03*
X117310000Y-133960000D03*
%TD*%
%TO.C,SW3*%
X109060000Y-102060000D03*
X121660000Y-102060000D03*
D12*
X119360000Y-103310000D03*
X115360000Y-103310000D03*
X111360000Y-103310000D03*
X119360000Y-100810000D03*
X115360000Y-100810000D03*
X111360000Y-100810000D03*
%TD*%
D10*
%TO.C,J7*%
X124570000Y-100000000D03*
D11*
X127110000Y-100000000D03*
X129650000Y-100000000D03*
X132190000Y-100000000D03*
X134730000Y-100000000D03*
X137270000Y-100000000D03*
X139810000Y-100000000D03*
X142350000Y-100000000D03*
%TD*%
D10*
%TO.C,J2*%
X100000000Y-100000000D03*
D11*
X100000000Y-102540000D03*
X100000000Y-105080000D03*
X100000000Y-107620000D03*
X100000000Y-110160000D03*
X100000000Y-112700000D03*
X100000000Y-115240000D03*
X100000000Y-117780000D03*
X100000000Y-120320000D03*
X100000000Y-122860000D03*
X100000000Y-125400000D03*
X100000000Y-127940000D03*
X100000000Y-130480000D03*
X100000000Y-133020000D03*
X100000000Y-135560000D03*
%TD*%
%TO.C,J3*%
X146000000Y-135560000D03*
X146000000Y-133020000D03*
X146000000Y-130480000D03*
X146000000Y-127940000D03*
X146000000Y-125400000D03*
X146000000Y-122860000D03*
X146000000Y-120320000D03*
X146000000Y-117780000D03*
X146000000Y-115240000D03*
X146000000Y-112700000D03*
X146000000Y-110160000D03*
X146000000Y-107620000D03*
X146000000Y-105080000D03*
X146000000Y-102540000D03*
D10*
X146000000Y-100000000D03*
%TD*%
%TO.C,J8*%
X103690000Y-100000000D03*
D11*
X106230000Y-100000000D03*
%TD*%
D14*
%TO.C,J6*%
X119450000Y-116460000D03*
D15*
X119450000Y-117730000D03*
X118180000Y-116460000D03*
X118180000Y-117730000D03*
X116910000Y-116460000D03*
X116910000Y-117730000D03*
X115640000Y-116460000D03*
X115640000Y-117730000D03*
X114370000Y-116460000D03*
X114370000Y-117730000D03*
%TD*%
M02*
