%TF.GenerationSoftware,KiCad,Pcbnew,(5.1.8)-1*%
%TF.CreationDate,2021-06-10T03:31:17+02:00*%
%TF.ProjectId,GD32F190-dev-brd,47443332-4631-4393-902d-6465762d6272,rev?*%
%TF.SameCoordinates,Original*%
%TF.FileFunction,Legend,Bot*%
%TF.FilePolarity,Positive*%
%FSLAX46Y46*%
G04 Gerber Fmt 4.6, Leading zero omitted, Abs format (unit mm)*
G04 Created by KiCad (PCBNEW (5.1.8)-1) date 2021-06-10 03:31:17*
%MOMM*%
%LPD*%
G01*
G04 APERTURE LIST*
%ADD10C,0.300000*%
%ADD11C,0.010000*%
G04 APERTURE END LIST*
D10*
X96140000Y-99807142D02*
X96044761Y-99616666D01*
X96044761Y-99330952D01*
X96140000Y-99045238D01*
X96330476Y-98854761D01*
X96520952Y-98759523D01*
X96901904Y-98664285D01*
X97187619Y-98664285D01*
X97568571Y-98759523D01*
X97759047Y-98854761D01*
X97949523Y-99045238D01*
X98044761Y-99330952D01*
X98044761Y-99521428D01*
X97949523Y-99807142D01*
X97854285Y-99902380D01*
X97187619Y-99902380D01*
X97187619Y-99521428D01*
X98044761Y-100759523D02*
X96044761Y-100759523D01*
X96044761Y-101235714D01*
X96140000Y-101521428D01*
X96330476Y-101711904D01*
X96520952Y-101807142D01*
X96901904Y-101902380D01*
X97187619Y-101902380D01*
X97568571Y-101807142D01*
X97759047Y-101711904D01*
X97949523Y-101521428D01*
X98044761Y-101235714D01*
X98044761Y-100759523D01*
X96044761Y-102569047D02*
X96044761Y-103807142D01*
X96806666Y-103140476D01*
X96806666Y-103426190D01*
X96901904Y-103616666D01*
X96997142Y-103711904D01*
X97187619Y-103807142D01*
X97663809Y-103807142D01*
X97854285Y-103711904D01*
X97949523Y-103616666D01*
X98044761Y-103426190D01*
X98044761Y-102854761D01*
X97949523Y-102664285D01*
X97854285Y-102569047D01*
X96235238Y-104569047D02*
X96140000Y-104664285D01*
X96044761Y-104854761D01*
X96044761Y-105330952D01*
X96140000Y-105521428D01*
X96235238Y-105616666D01*
X96425714Y-105711904D01*
X96616190Y-105711904D01*
X96901904Y-105616666D01*
X98044761Y-104473809D01*
X98044761Y-105711904D01*
X96997142Y-107235714D02*
X96997142Y-106569047D01*
X98044761Y-106569047D02*
X96044761Y-106569047D01*
X96044761Y-107521428D01*
X98044761Y-109330952D02*
X98044761Y-108188095D01*
X98044761Y-108759523D02*
X96044761Y-108759523D01*
X96330476Y-108569047D01*
X96520952Y-108378571D01*
X96616190Y-108188095D01*
X98044761Y-109997619D02*
X96711428Y-111045238D01*
X96711428Y-109997619D02*
X98044761Y-111045238D01*
X96044761Y-112188095D02*
X96044761Y-112378571D01*
X96140000Y-112569047D01*
X96235238Y-112664285D01*
X96425714Y-112759523D01*
X96806666Y-112854761D01*
X97282857Y-112854761D01*
X97663809Y-112759523D01*
X97854285Y-112664285D01*
X97949523Y-112569047D01*
X98044761Y-112378571D01*
X98044761Y-112188095D01*
X97949523Y-111997619D01*
X97854285Y-111902380D01*
X97663809Y-111807142D01*
X97282857Y-111711904D01*
X96806666Y-111711904D01*
X96425714Y-111807142D01*
X96235238Y-111902380D01*
X96140000Y-111997619D01*
X96044761Y-112188095D01*
X98044761Y-116092857D02*
X96044761Y-116092857D01*
X97949523Y-116092857D02*
X98044761Y-115902380D01*
X98044761Y-115521428D01*
X97949523Y-115330952D01*
X97854285Y-115235714D01*
X97663809Y-115140476D01*
X97092380Y-115140476D01*
X96901904Y-115235714D01*
X96806666Y-115330952D01*
X96711428Y-115521428D01*
X96711428Y-115902380D01*
X96806666Y-116092857D01*
X97949523Y-117807142D02*
X98044761Y-117616666D01*
X98044761Y-117235714D01*
X97949523Y-117045238D01*
X97759047Y-116950000D01*
X96997142Y-116950000D01*
X96806666Y-117045238D01*
X96711428Y-117235714D01*
X96711428Y-117616666D01*
X96806666Y-117807142D01*
X96997142Y-117902380D01*
X97187619Y-117902380D01*
X97378095Y-116950000D01*
X96711428Y-118569047D02*
X98044761Y-119045238D01*
X96711428Y-119521428D01*
X98044761Y-121807142D02*
X96044761Y-121807142D01*
X96806666Y-121807142D02*
X96711428Y-121997619D01*
X96711428Y-122378571D01*
X96806666Y-122569047D01*
X96901904Y-122664285D01*
X97092380Y-122759523D01*
X97663809Y-122759523D01*
X97854285Y-122664285D01*
X97949523Y-122569047D01*
X98044761Y-122378571D01*
X98044761Y-121997619D01*
X97949523Y-121807142D01*
X98044761Y-123902380D02*
X97949523Y-123711904D01*
X97854285Y-123616666D01*
X97663809Y-123521428D01*
X97092380Y-123521428D01*
X96901904Y-123616666D01*
X96806666Y-123711904D01*
X96711428Y-123902380D01*
X96711428Y-124188095D01*
X96806666Y-124378571D01*
X96901904Y-124473809D01*
X97092380Y-124569047D01*
X97663809Y-124569047D01*
X97854285Y-124473809D01*
X97949523Y-124378571D01*
X98044761Y-124188095D01*
X98044761Y-123902380D01*
X98044761Y-126283333D02*
X96997142Y-126283333D01*
X96806666Y-126188095D01*
X96711428Y-125997619D01*
X96711428Y-125616666D01*
X96806666Y-125426190D01*
X97949523Y-126283333D02*
X98044761Y-126092857D01*
X98044761Y-125616666D01*
X97949523Y-125426190D01*
X97759047Y-125330952D01*
X97568571Y-125330952D01*
X97378095Y-125426190D01*
X97282857Y-125616666D01*
X97282857Y-126092857D01*
X97187619Y-126283333D01*
X98044761Y-127235714D02*
X96711428Y-127235714D01*
X97092380Y-127235714D02*
X96901904Y-127330952D01*
X96806666Y-127426190D01*
X96711428Y-127616666D01*
X96711428Y-127807142D01*
X98044761Y-129330952D02*
X96044761Y-129330952D01*
X97949523Y-129330952D02*
X98044761Y-129140476D01*
X98044761Y-128759523D01*
X97949523Y-128569047D01*
X97854285Y-128473809D01*
X97663809Y-128378571D01*
X97092380Y-128378571D01*
X96901904Y-128473809D01*
X96806666Y-128569047D01*
X96711428Y-128759523D01*
X96711428Y-129140476D01*
X96806666Y-129330952D01*
X96711428Y-131616666D02*
X98044761Y-132092857D01*
X96711428Y-132569047D01*
X98044761Y-134378571D02*
X98044761Y-133235714D01*
X98044761Y-133807142D02*
X96044761Y-133807142D01*
X96330476Y-133616666D01*
X96520952Y-133426190D01*
X96616190Y-133235714D01*
X97854285Y-135235714D02*
X97949523Y-135330952D01*
X98044761Y-135235714D01*
X97949523Y-135140476D01*
X97854285Y-135235714D01*
X98044761Y-135235714D01*
X96044761Y-136569047D02*
X96044761Y-136759523D01*
X96140000Y-136950000D01*
X96235238Y-137045238D01*
X96425714Y-137140476D01*
X96806666Y-137235714D01*
X97282857Y-137235714D01*
X97663809Y-137140476D01*
X97854285Y-137045238D01*
X97949523Y-136950000D01*
X98044761Y-136759523D01*
X98044761Y-136569047D01*
X97949523Y-136378571D01*
X97854285Y-136283333D01*
X97663809Y-136188095D01*
X97282857Y-136092857D01*
X96806666Y-136092857D01*
X96425714Y-136188095D01*
X96235238Y-136283333D01*
X96140000Y-136378571D01*
X96044761Y-136569047D01*
D11*
%TO.C,REF\u002A\u002A*%
G36*
X101597776Y-123989878D02*
G01*
X101598355Y-124095612D01*
X101599922Y-124172132D01*
X101602972Y-124224372D01*
X101607996Y-124257263D01*
X101615489Y-124275737D01*
X101625944Y-124284727D01*
X101639853Y-124289163D01*
X101641654Y-124289594D01*
X101674145Y-124296333D01*
X101738252Y-124308808D01*
X101827151Y-124325719D01*
X101934019Y-124345771D01*
X102052033Y-124367664D01*
X102056178Y-124368429D01*
X102171831Y-124390359D01*
X102274014Y-124410877D01*
X102356598Y-124428659D01*
X102413456Y-124442381D01*
X102438458Y-124450718D01*
X102438901Y-124451116D01*
X102451110Y-124475677D01*
X102471456Y-124526315D01*
X102495545Y-124592095D01*
X102495674Y-124592461D01*
X102526818Y-124675317D01*
X102566491Y-124773000D01*
X102606381Y-124865077D01*
X102608353Y-124869434D01*
X102676420Y-125019407D01*
X102449639Y-125351498D01*
X102380504Y-125453374D01*
X102318697Y-125545657D01*
X102267733Y-125623003D01*
X102231127Y-125680064D01*
X102212394Y-125711495D01*
X102211004Y-125714479D01*
X102217190Y-125737321D01*
X102247035Y-125779982D01*
X102301947Y-125844128D01*
X102383334Y-125931421D01*
X102469922Y-126020535D01*
X102555247Y-126106441D01*
X102633108Y-126183327D01*
X102698697Y-126246564D01*
X102747205Y-126291523D01*
X102773825Y-126313576D01*
X102775195Y-126314396D01*
X102793463Y-126316834D01*
X102823295Y-126307650D01*
X102868721Y-126284574D01*
X102933770Y-126245337D01*
X103022470Y-126187670D01*
X103136657Y-126110795D01*
X103237162Y-126042570D01*
X103327303Y-125981582D01*
X103401849Y-125931356D01*
X103455565Y-125895416D01*
X103483218Y-125877287D01*
X103485095Y-125876146D01*
X103511590Y-125878359D01*
X103563086Y-125895138D01*
X103629851Y-125923142D01*
X103651172Y-125933122D01*
X103746159Y-125976672D01*
X103853937Y-126023134D01*
X103947192Y-126060877D01*
X104016406Y-126088073D01*
X104069006Y-126109675D01*
X104096497Y-126122158D01*
X104098616Y-126123709D01*
X104102124Y-126146668D01*
X104111738Y-126200786D01*
X104126089Y-126278868D01*
X104143807Y-126373719D01*
X104163525Y-126478143D01*
X104183874Y-126584944D01*
X104203486Y-126686926D01*
X104220991Y-126776894D01*
X104235022Y-126847653D01*
X104244209Y-126892006D01*
X104246807Y-126902885D01*
X104253218Y-126914122D01*
X104267697Y-126922605D01*
X104295133Y-126928714D01*
X104340411Y-126932832D01*
X104408420Y-126935341D01*
X104504047Y-126936621D01*
X104632180Y-126937054D01*
X104684701Y-126937077D01*
X105111845Y-126937077D01*
X105132091Y-126834500D01*
X105143070Y-126777431D01*
X105159095Y-126692269D01*
X105178233Y-126589372D01*
X105198551Y-126479096D01*
X105204132Y-126448615D01*
X105223917Y-126346855D01*
X105243373Y-126258205D01*
X105260697Y-126190108D01*
X105274088Y-126150004D01*
X105278079Y-126143323D01*
X105306342Y-126126919D01*
X105361109Y-126103399D01*
X105431588Y-126077316D01*
X105446769Y-126072142D01*
X105540896Y-126037956D01*
X105647101Y-125995523D01*
X105742473Y-125953997D01*
X105742916Y-125953792D01*
X105892525Y-125884640D01*
X106561617Y-126339512D01*
X106854116Y-126047500D01*
X106941170Y-125959180D01*
X107017909Y-125878625D01*
X107080237Y-125810360D01*
X107124056Y-125758908D01*
X107145270Y-125728794D01*
X107146616Y-125724474D01*
X107136016Y-125699111D01*
X107106547Y-125647358D01*
X107061705Y-125574868D01*
X107004984Y-125487294D01*
X106941462Y-125392612D01*
X106876668Y-125296516D01*
X106820287Y-125210837D01*
X106775788Y-125141016D01*
X106746639Y-125092494D01*
X106736308Y-125070782D01*
X106745050Y-125044293D01*
X106768087Y-124994062D01*
X106800631Y-124930451D01*
X106804249Y-124923708D01*
X106847210Y-124838046D01*
X106868279Y-124779306D01*
X106868503Y-124742772D01*
X106848928Y-124723731D01*
X106848654Y-124723620D01*
X106825472Y-124714102D01*
X106770441Y-124691403D01*
X106687822Y-124657282D01*
X106581872Y-124613500D01*
X106456852Y-124561816D01*
X106317020Y-124503992D01*
X106181637Y-124447991D01*
X106032234Y-124386447D01*
X105893832Y-124329939D01*
X105770673Y-124280161D01*
X105667002Y-124238806D01*
X105587059Y-124207568D01*
X105535088Y-124188141D01*
X105515692Y-124182154D01*
X105493443Y-124197168D01*
X105457982Y-124236439D01*
X105418887Y-124288807D01*
X105295245Y-124437941D01*
X105153522Y-124554511D01*
X104996704Y-124637118D01*
X104827775Y-124684366D01*
X104649722Y-124694857D01*
X104567539Y-124687231D01*
X104397031Y-124645682D01*
X104246459Y-124574123D01*
X104117309Y-124476995D01*
X104011064Y-124358734D01*
X103929210Y-124223780D01*
X103873232Y-124076571D01*
X103844615Y-123921544D01*
X103844844Y-123763139D01*
X103875405Y-123605794D01*
X103937782Y-123453946D01*
X104033460Y-123312035D01*
X104087572Y-123252803D01*
X104226520Y-123139203D01*
X104378361Y-123060106D01*
X104538667Y-123014986D01*
X104703012Y-123003316D01*
X104866971Y-123024569D01*
X105026118Y-123078220D01*
X105176025Y-123163740D01*
X105312267Y-123280605D01*
X105418887Y-123411193D01*
X105459642Y-123465588D01*
X105494718Y-123504014D01*
X105515726Y-123517846D01*
X105538635Y-123510603D01*
X105593365Y-123490005D01*
X105675672Y-123457746D01*
X105781315Y-123415521D01*
X105906050Y-123365023D01*
X106045636Y-123307948D01*
X106181670Y-123251854D01*
X106331201Y-123189967D01*
X106469767Y-123132644D01*
X106593107Y-123081644D01*
X106696964Y-123038727D01*
X106777080Y-123005653D01*
X106829195Y-122984181D01*
X106848654Y-122976225D01*
X106868423Y-122957429D01*
X106868365Y-122921074D01*
X106847441Y-122862479D01*
X106804613Y-122776968D01*
X106804249Y-122776292D01*
X106771012Y-122711907D01*
X106746802Y-122659861D01*
X106736404Y-122630512D01*
X106736308Y-122629217D01*
X106746855Y-122607124D01*
X106776184Y-122558348D01*
X106820827Y-122488331D01*
X106877314Y-122402514D01*
X106941462Y-122307388D01*
X107006411Y-122210540D01*
X107062896Y-122123253D01*
X107107421Y-122051181D01*
X107136490Y-121999977D01*
X107146616Y-121975526D01*
X107133307Y-121953010D01*
X107096112Y-121907742D01*
X107039128Y-121844244D01*
X106966449Y-121767039D01*
X106882171Y-121680651D01*
X106854016Y-121652399D01*
X106561416Y-121360287D01*
X106235104Y-121582631D01*
X106134897Y-121650202D01*
X106044963Y-121709507D01*
X105970510Y-121757217D01*
X105916751Y-121790007D01*
X105888894Y-121804548D01*
X105886912Y-121804974D01*
X105860655Y-121797308D01*
X105807837Y-121776689D01*
X105737310Y-121746685D01*
X105690093Y-121725625D01*
X105599694Y-121686248D01*
X105508366Y-121649165D01*
X105431200Y-121620415D01*
X105407692Y-121612605D01*
X105344916Y-121590417D01*
X105296411Y-121568727D01*
X105278079Y-121556813D01*
X105266859Y-121530523D01*
X105250954Y-121473142D01*
X105232167Y-121392118D01*
X105212299Y-121294895D01*
X105204132Y-121251385D01*
X105183829Y-121140896D01*
X105164170Y-121034916D01*
X105147088Y-120943801D01*
X105134518Y-120877908D01*
X105132091Y-120865500D01*
X105111845Y-120762923D01*
X104684701Y-120762923D01*
X104544246Y-120763153D01*
X104437979Y-120764099D01*
X104361013Y-120766141D01*
X104308460Y-120769662D01*
X104275433Y-120775043D01*
X104257045Y-120782666D01*
X104248408Y-120792912D01*
X104246807Y-120797115D01*
X104241127Y-120822470D01*
X104229795Y-120878484D01*
X104214179Y-120957964D01*
X104195647Y-121053712D01*
X104175569Y-121158533D01*
X104155312Y-121265232D01*
X104136246Y-121366613D01*
X104119739Y-121455479D01*
X104107159Y-121524637D01*
X104099875Y-121566889D01*
X104098616Y-121576290D01*
X104081763Y-121584807D01*
X104036870Y-121603660D01*
X103972430Y-121629324D01*
X103947192Y-121639123D01*
X103849686Y-121678648D01*
X103741959Y-121725192D01*
X103651172Y-121766877D01*
X103581753Y-121797550D01*
X103524710Y-121817956D01*
X103489777Y-121824768D01*
X103485095Y-121823682D01*
X103462991Y-121809285D01*
X103413831Y-121776412D01*
X103342848Y-121728590D01*
X103255278Y-121669348D01*
X103156357Y-121602215D01*
X103136830Y-121588941D01*
X103021140Y-121511046D01*
X102933044Y-121453787D01*
X102868486Y-121414881D01*
X102823411Y-121392044D01*
X102793763Y-121382994D01*
X102775485Y-121385448D01*
X102775369Y-121385511D01*
X102751361Y-121404827D01*
X102704947Y-121447551D01*
X102640937Y-121509051D01*
X102564145Y-121584698D01*
X102479382Y-121669861D01*
X102469922Y-121679465D01*
X102365989Y-121786790D01*
X102289675Y-121869615D01*
X102239571Y-121929605D01*
X102214270Y-121968423D01*
X102211004Y-121985520D01*
X102225250Y-122010473D01*
X102258156Y-122062255D01*
X102306208Y-122135520D01*
X102365890Y-122224920D01*
X102433688Y-122325111D01*
X102449639Y-122348501D01*
X102676420Y-122680593D01*
X102608353Y-122830565D01*
X102568685Y-122921770D01*
X102528791Y-123019669D01*
X102496983Y-123103831D01*
X102495674Y-123107538D01*
X102471576Y-123173369D01*
X102451200Y-123224116D01*
X102438936Y-123248842D01*
X102438901Y-123248884D01*
X102416734Y-123256729D01*
X102362217Y-123270066D01*
X102281480Y-123287570D01*
X102180650Y-123307917D01*
X102065856Y-123329782D01*
X102056178Y-123331571D01*
X101937904Y-123353504D01*
X101830542Y-123373640D01*
X101740917Y-123390680D01*
X101675851Y-123403328D01*
X101642168Y-123410284D01*
X101641654Y-123410406D01*
X101627325Y-123414639D01*
X101616507Y-123422871D01*
X101608706Y-123440033D01*
X101603429Y-123471058D01*
X101600182Y-123520878D01*
X101598472Y-123594424D01*
X101597807Y-123696629D01*
X101597693Y-123832425D01*
X101597692Y-123850000D01*
X101597776Y-123989878D01*
G37*
X101597776Y-123989878D02*
X101598355Y-124095612D01*
X101599922Y-124172132D01*
X101602972Y-124224372D01*
X101607996Y-124257263D01*
X101615489Y-124275737D01*
X101625944Y-124284727D01*
X101639853Y-124289163D01*
X101641654Y-124289594D01*
X101674145Y-124296333D01*
X101738252Y-124308808D01*
X101827151Y-124325719D01*
X101934019Y-124345771D01*
X102052033Y-124367664D01*
X102056178Y-124368429D01*
X102171831Y-124390359D01*
X102274014Y-124410877D01*
X102356598Y-124428659D01*
X102413456Y-124442381D01*
X102438458Y-124450718D01*
X102438901Y-124451116D01*
X102451110Y-124475677D01*
X102471456Y-124526315D01*
X102495545Y-124592095D01*
X102495674Y-124592461D01*
X102526818Y-124675317D01*
X102566491Y-124773000D01*
X102606381Y-124865077D01*
X102608353Y-124869434D01*
X102676420Y-125019407D01*
X102449639Y-125351498D01*
X102380504Y-125453374D01*
X102318697Y-125545657D01*
X102267733Y-125623003D01*
X102231127Y-125680064D01*
X102212394Y-125711495D01*
X102211004Y-125714479D01*
X102217190Y-125737321D01*
X102247035Y-125779982D01*
X102301947Y-125844128D01*
X102383334Y-125931421D01*
X102469922Y-126020535D01*
X102555247Y-126106441D01*
X102633108Y-126183327D01*
X102698697Y-126246564D01*
X102747205Y-126291523D01*
X102773825Y-126313576D01*
X102775195Y-126314396D01*
X102793463Y-126316834D01*
X102823295Y-126307650D01*
X102868721Y-126284574D01*
X102933770Y-126245337D01*
X103022470Y-126187670D01*
X103136657Y-126110795D01*
X103237162Y-126042570D01*
X103327303Y-125981582D01*
X103401849Y-125931356D01*
X103455565Y-125895416D01*
X103483218Y-125877287D01*
X103485095Y-125876146D01*
X103511590Y-125878359D01*
X103563086Y-125895138D01*
X103629851Y-125923142D01*
X103651172Y-125933122D01*
X103746159Y-125976672D01*
X103853937Y-126023134D01*
X103947192Y-126060877D01*
X104016406Y-126088073D01*
X104069006Y-126109675D01*
X104096497Y-126122158D01*
X104098616Y-126123709D01*
X104102124Y-126146668D01*
X104111738Y-126200786D01*
X104126089Y-126278868D01*
X104143807Y-126373719D01*
X104163525Y-126478143D01*
X104183874Y-126584944D01*
X104203486Y-126686926D01*
X104220991Y-126776894D01*
X104235022Y-126847653D01*
X104244209Y-126892006D01*
X104246807Y-126902885D01*
X104253218Y-126914122D01*
X104267697Y-126922605D01*
X104295133Y-126928714D01*
X104340411Y-126932832D01*
X104408420Y-126935341D01*
X104504047Y-126936621D01*
X104632180Y-126937054D01*
X104684701Y-126937077D01*
X105111845Y-126937077D01*
X105132091Y-126834500D01*
X105143070Y-126777431D01*
X105159095Y-126692269D01*
X105178233Y-126589372D01*
X105198551Y-126479096D01*
X105204132Y-126448615D01*
X105223917Y-126346855D01*
X105243373Y-126258205D01*
X105260697Y-126190108D01*
X105274088Y-126150004D01*
X105278079Y-126143323D01*
X105306342Y-126126919D01*
X105361109Y-126103399D01*
X105431588Y-126077316D01*
X105446769Y-126072142D01*
X105540896Y-126037956D01*
X105647101Y-125995523D01*
X105742473Y-125953997D01*
X105742916Y-125953792D01*
X105892525Y-125884640D01*
X106561617Y-126339512D01*
X106854116Y-126047500D01*
X106941170Y-125959180D01*
X107017909Y-125878625D01*
X107080237Y-125810360D01*
X107124056Y-125758908D01*
X107145270Y-125728794D01*
X107146616Y-125724474D01*
X107136016Y-125699111D01*
X107106547Y-125647358D01*
X107061705Y-125574868D01*
X107004984Y-125487294D01*
X106941462Y-125392612D01*
X106876668Y-125296516D01*
X106820287Y-125210837D01*
X106775788Y-125141016D01*
X106746639Y-125092494D01*
X106736308Y-125070782D01*
X106745050Y-125044293D01*
X106768087Y-124994062D01*
X106800631Y-124930451D01*
X106804249Y-124923708D01*
X106847210Y-124838046D01*
X106868279Y-124779306D01*
X106868503Y-124742772D01*
X106848928Y-124723731D01*
X106848654Y-124723620D01*
X106825472Y-124714102D01*
X106770441Y-124691403D01*
X106687822Y-124657282D01*
X106581872Y-124613500D01*
X106456852Y-124561816D01*
X106317020Y-124503992D01*
X106181637Y-124447991D01*
X106032234Y-124386447D01*
X105893832Y-124329939D01*
X105770673Y-124280161D01*
X105667002Y-124238806D01*
X105587059Y-124207568D01*
X105535088Y-124188141D01*
X105515692Y-124182154D01*
X105493443Y-124197168D01*
X105457982Y-124236439D01*
X105418887Y-124288807D01*
X105295245Y-124437941D01*
X105153522Y-124554511D01*
X104996704Y-124637118D01*
X104827775Y-124684366D01*
X104649722Y-124694857D01*
X104567539Y-124687231D01*
X104397031Y-124645682D01*
X104246459Y-124574123D01*
X104117309Y-124476995D01*
X104011064Y-124358734D01*
X103929210Y-124223780D01*
X103873232Y-124076571D01*
X103844615Y-123921544D01*
X103844844Y-123763139D01*
X103875405Y-123605794D01*
X103937782Y-123453946D01*
X104033460Y-123312035D01*
X104087572Y-123252803D01*
X104226520Y-123139203D01*
X104378361Y-123060106D01*
X104538667Y-123014986D01*
X104703012Y-123003316D01*
X104866971Y-123024569D01*
X105026118Y-123078220D01*
X105176025Y-123163740D01*
X105312267Y-123280605D01*
X105418887Y-123411193D01*
X105459642Y-123465588D01*
X105494718Y-123504014D01*
X105515726Y-123517846D01*
X105538635Y-123510603D01*
X105593365Y-123490005D01*
X105675672Y-123457746D01*
X105781315Y-123415521D01*
X105906050Y-123365023D01*
X106045636Y-123307948D01*
X106181670Y-123251854D01*
X106331201Y-123189967D01*
X106469767Y-123132644D01*
X106593107Y-123081644D01*
X106696964Y-123038727D01*
X106777080Y-123005653D01*
X106829195Y-122984181D01*
X106848654Y-122976225D01*
X106868423Y-122957429D01*
X106868365Y-122921074D01*
X106847441Y-122862479D01*
X106804613Y-122776968D01*
X106804249Y-122776292D01*
X106771012Y-122711907D01*
X106746802Y-122659861D01*
X106736404Y-122630512D01*
X106736308Y-122629217D01*
X106746855Y-122607124D01*
X106776184Y-122558348D01*
X106820827Y-122488331D01*
X106877314Y-122402514D01*
X106941462Y-122307388D01*
X107006411Y-122210540D01*
X107062896Y-122123253D01*
X107107421Y-122051181D01*
X107136490Y-121999977D01*
X107146616Y-121975526D01*
X107133307Y-121953010D01*
X107096112Y-121907742D01*
X107039128Y-121844244D01*
X106966449Y-121767039D01*
X106882171Y-121680651D01*
X106854016Y-121652399D01*
X106561416Y-121360287D01*
X106235104Y-121582631D01*
X106134897Y-121650202D01*
X106044963Y-121709507D01*
X105970510Y-121757217D01*
X105916751Y-121790007D01*
X105888894Y-121804548D01*
X105886912Y-121804974D01*
X105860655Y-121797308D01*
X105807837Y-121776689D01*
X105737310Y-121746685D01*
X105690093Y-121725625D01*
X105599694Y-121686248D01*
X105508366Y-121649165D01*
X105431200Y-121620415D01*
X105407692Y-121612605D01*
X105344916Y-121590417D01*
X105296411Y-121568727D01*
X105278079Y-121556813D01*
X105266859Y-121530523D01*
X105250954Y-121473142D01*
X105232167Y-121392118D01*
X105212299Y-121294895D01*
X105204132Y-121251385D01*
X105183829Y-121140896D01*
X105164170Y-121034916D01*
X105147088Y-120943801D01*
X105134518Y-120877908D01*
X105132091Y-120865500D01*
X105111845Y-120762923D01*
X104684701Y-120762923D01*
X104544246Y-120763153D01*
X104437979Y-120764099D01*
X104361013Y-120766141D01*
X104308460Y-120769662D01*
X104275433Y-120775043D01*
X104257045Y-120782666D01*
X104248408Y-120792912D01*
X104246807Y-120797115D01*
X104241127Y-120822470D01*
X104229795Y-120878484D01*
X104214179Y-120957964D01*
X104195647Y-121053712D01*
X104175569Y-121158533D01*
X104155312Y-121265232D01*
X104136246Y-121366613D01*
X104119739Y-121455479D01*
X104107159Y-121524637D01*
X104099875Y-121566889D01*
X104098616Y-121576290D01*
X104081763Y-121584807D01*
X104036870Y-121603660D01*
X103972430Y-121629324D01*
X103947192Y-121639123D01*
X103849686Y-121678648D01*
X103741959Y-121725192D01*
X103651172Y-121766877D01*
X103581753Y-121797550D01*
X103524710Y-121817956D01*
X103489777Y-121824768D01*
X103485095Y-121823682D01*
X103462991Y-121809285D01*
X103413831Y-121776412D01*
X103342848Y-121728590D01*
X103255278Y-121669348D01*
X103156357Y-121602215D01*
X103136830Y-121588941D01*
X103021140Y-121511046D01*
X102933044Y-121453787D01*
X102868486Y-121414881D01*
X102823411Y-121392044D01*
X102793763Y-121382994D01*
X102775485Y-121385448D01*
X102775369Y-121385511D01*
X102751361Y-121404827D01*
X102704947Y-121447551D01*
X102640937Y-121509051D01*
X102564145Y-121584698D01*
X102479382Y-121669861D01*
X102469922Y-121679465D01*
X102365989Y-121786790D01*
X102289675Y-121869615D01*
X102239571Y-121929605D01*
X102214270Y-121968423D01*
X102211004Y-121985520D01*
X102225250Y-122010473D01*
X102258156Y-122062255D01*
X102306208Y-122135520D01*
X102365890Y-122224920D01*
X102433688Y-122325111D01*
X102449639Y-122348501D01*
X102676420Y-122680593D01*
X102608353Y-122830565D01*
X102568685Y-122921770D01*
X102528791Y-123019669D01*
X102496983Y-123103831D01*
X102495674Y-123107538D01*
X102471576Y-123173369D01*
X102451200Y-123224116D01*
X102438936Y-123248842D01*
X102438901Y-123248884D01*
X102416734Y-123256729D01*
X102362217Y-123270066D01*
X102281480Y-123287570D01*
X102180650Y-123307917D01*
X102065856Y-123329782D01*
X102056178Y-123331571D01*
X101937904Y-123353504D01*
X101830542Y-123373640D01*
X101740917Y-123390680D01*
X101675851Y-123403328D01*
X101642168Y-123410284D01*
X101641654Y-123410406D01*
X101627325Y-123414639D01*
X101616507Y-123422871D01*
X101608706Y-123440033D01*
X101603429Y-123471058D01*
X101600182Y-123520878D01*
X101598472Y-123594424D01*
X101597807Y-123696629D01*
X101597693Y-123832425D01*
X101597692Y-123850000D01*
X101597776Y-123989878D01*
G36*
X107957838Y-128095224D02*
G01*
X108008361Y-128172528D01*
X108053590Y-128209814D01*
X108135663Y-128239353D01*
X108200607Y-128241699D01*
X108287445Y-128236385D01*
X108375103Y-128036115D01*
X108419887Y-127938739D01*
X108455913Y-127875113D01*
X108487117Y-127842029D01*
X108517436Y-127836280D01*
X108550805Y-127854658D01*
X108572923Y-127874923D01*
X108608393Y-127933889D01*
X108610879Y-127998024D01*
X108583235Y-128056926D01*
X108528320Y-128100197D01*
X108508928Y-128107936D01*
X108448364Y-128145006D01*
X108422552Y-128187654D01*
X108400471Y-128246154D01*
X108484184Y-128246154D01*
X108541150Y-128240982D01*
X108589189Y-128220723D01*
X108644346Y-128178262D01*
X108651514Y-128171951D01*
X108700585Y-128124720D01*
X108726920Y-128084121D01*
X108739035Y-128033328D01*
X108743003Y-127991220D01*
X108743991Y-127915902D01*
X108731466Y-127862286D01*
X108712869Y-127828838D01*
X108671975Y-127776268D01*
X108627748Y-127739879D01*
X108572126Y-127716850D01*
X108497047Y-127704359D01*
X108394449Y-127699587D01*
X108342376Y-127699206D01*
X108279948Y-127700501D01*
X108279948Y-127818471D01*
X108313438Y-127819839D01*
X108318923Y-127823249D01*
X108311472Y-127845753D01*
X108291753Y-127894182D01*
X108263718Y-127958908D01*
X108257692Y-127972443D01*
X108216096Y-128054244D01*
X108179538Y-128099312D01*
X108145296Y-128109217D01*
X108110648Y-128085526D01*
X108095339Y-128065960D01*
X108064721Y-127995360D01*
X108069780Y-127929280D01*
X108107151Y-127873959D01*
X108173473Y-127835636D01*
X108226116Y-127823349D01*
X108279948Y-127818471D01*
X108279948Y-127700501D01*
X108220720Y-127701730D01*
X108130710Y-127711032D01*
X108065167Y-127729460D01*
X108016912Y-127759360D01*
X107978767Y-127803080D01*
X107966440Y-127822141D01*
X107934336Y-127908726D01*
X107932316Y-128003522D01*
X107957838Y-128095224D01*
G37*
X107957838Y-128095224D02*
X108008361Y-128172528D01*
X108053590Y-128209814D01*
X108135663Y-128239353D01*
X108200607Y-128241699D01*
X108287445Y-128236385D01*
X108375103Y-128036115D01*
X108419887Y-127938739D01*
X108455913Y-127875113D01*
X108487117Y-127842029D01*
X108517436Y-127836280D01*
X108550805Y-127854658D01*
X108572923Y-127874923D01*
X108608393Y-127933889D01*
X108610879Y-127998024D01*
X108583235Y-128056926D01*
X108528320Y-128100197D01*
X108508928Y-128107936D01*
X108448364Y-128145006D01*
X108422552Y-128187654D01*
X108400471Y-128246154D01*
X108484184Y-128246154D01*
X108541150Y-128240982D01*
X108589189Y-128220723D01*
X108644346Y-128178262D01*
X108651514Y-128171951D01*
X108700585Y-128124720D01*
X108726920Y-128084121D01*
X108739035Y-128033328D01*
X108743003Y-127991220D01*
X108743991Y-127915902D01*
X108731466Y-127862286D01*
X108712869Y-127828838D01*
X108671975Y-127776268D01*
X108627748Y-127739879D01*
X108572126Y-127716850D01*
X108497047Y-127704359D01*
X108394449Y-127699587D01*
X108342376Y-127699206D01*
X108279948Y-127700501D01*
X108279948Y-127818471D01*
X108313438Y-127819839D01*
X108318923Y-127823249D01*
X108311472Y-127845753D01*
X108291753Y-127894182D01*
X108263718Y-127958908D01*
X108257692Y-127972443D01*
X108216096Y-128054244D01*
X108179538Y-128099312D01*
X108145296Y-128109217D01*
X108110648Y-128085526D01*
X108095339Y-128065960D01*
X108064721Y-127995360D01*
X108069780Y-127929280D01*
X108107151Y-127873959D01*
X108173473Y-127835636D01*
X108226116Y-127823349D01*
X108279948Y-127818471D01*
X108279948Y-127700501D01*
X108220720Y-127701730D01*
X108130710Y-127711032D01*
X108065167Y-127729460D01*
X108016912Y-127759360D01*
X107978767Y-127803080D01*
X107966440Y-127822141D01*
X107934336Y-127908726D01*
X107932316Y-128003522D01*
X107957838Y-128095224D01*
G36*
X107946782Y-127420807D02*
G01*
X107956988Y-127444161D01*
X108001134Y-127499902D01*
X108064967Y-127547569D01*
X108133087Y-127577048D01*
X108166670Y-127581846D01*
X108213556Y-127565760D01*
X108238365Y-127530475D01*
X108253387Y-127492644D01*
X108256155Y-127475321D01*
X108236066Y-127466886D01*
X108192351Y-127450230D01*
X108172598Y-127442923D01*
X108104271Y-127401948D01*
X108070191Y-127342622D01*
X108071239Y-127266552D01*
X108072581Y-127260918D01*
X108091836Y-127220305D01*
X108129375Y-127190448D01*
X108189809Y-127170055D01*
X108277751Y-127157836D01*
X108397813Y-127152500D01*
X108461698Y-127152000D01*
X108562403Y-127151752D01*
X108631054Y-127150126D01*
X108674673Y-127145801D01*
X108700282Y-127137454D01*
X108714903Y-127123765D01*
X108725558Y-127103411D01*
X108726095Y-127102234D01*
X108742667Y-127063038D01*
X108748769Y-127043619D01*
X108730319Y-127040635D01*
X108679323Y-127038081D01*
X108602308Y-127036140D01*
X108505805Y-127034997D01*
X108435184Y-127034769D01*
X108298525Y-127035932D01*
X108194851Y-127040479D01*
X108118108Y-127049999D01*
X108062246Y-127066081D01*
X108021212Y-127090313D01*
X107988954Y-127124286D01*
X107966440Y-127157833D01*
X107936476Y-127238499D01*
X107929718Y-127332381D01*
X107946782Y-127420807D01*
G37*
X107946782Y-127420807D02*
X107956988Y-127444161D01*
X108001134Y-127499902D01*
X108064967Y-127547569D01*
X108133087Y-127577048D01*
X108166670Y-127581846D01*
X108213556Y-127565760D01*
X108238365Y-127530475D01*
X108253387Y-127492644D01*
X108256155Y-127475321D01*
X108236066Y-127466886D01*
X108192351Y-127450230D01*
X108172598Y-127442923D01*
X108104271Y-127401948D01*
X108070191Y-127342622D01*
X108071239Y-127266552D01*
X108072581Y-127260918D01*
X108091836Y-127220305D01*
X108129375Y-127190448D01*
X108189809Y-127170055D01*
X108277751Y-127157836D01*
X108397813Y-127152500D01*
X108461698Y-127152000D01*
X108562403Y-127151752D01*
X108631054Y-127150126D01*
X108674673Y-127145801D01*
X108700282Y-127137454D01*
X108714903Y-127123765D01*
X108725558Y-127103411D01*
X108726095Y-127102234D01*
X108742667Y-127063038D01*
X108748769Y-127043619D01*
X108730319Y-127040635D01*
X108679323Y-127038081D01*
X108602308Y-127036140D01*
X108505805Y-127034997D01*
X108435184Y-127034769D01*
X108298525Y-127035932D01*
X108194851Y-127040479D01*
X108118108Y-127049999D01*
X108062246Y-127066081D01*
X108021212Y-127090313D01*
X107988954Y-127124286D01*
X107966440Y-127157833D01*
X107936476Y-127238499D01*
X107929718Y-127332381D01*
X107946782Y-127420807D01*
G36*
X107943528Y-126737333D02*
G01*
X107969117Y-126793590D01*
X108000124Y-126837747D01*
X108034795Y-126870101D01*
X108079520Y-126892438D01*
X108140692Y-126906546D01*
X108224701Y-126914211D01*
X108337940Y-126917220D01*
X108412509Y-126917538D01*
X108703420Y-126917538D01*
X108726095Y-126867773D01*
X108742667Y-126828576D01*
X108748769Y-126809157D01*
X108730610Y-126805442D01*
X108681648Y-126802495D01*
X108610153Y-126800691D01*
X108553385Y-126800308D01*
X108471371Y-126798661D01*
X108406309Y-126794222D01*
X108366467Y-126787740D01*
X108358000Y-126782590D01*
X108366646Y-126747977D01*
X108388823Y-126693640D01*
X108418886Y-126630722D01*
X108451192Y-126570368D01*
X108480098Y-126523721D01*
X108499961Y-126501926D01*
X108500175Y-126501839D01*
X108536935Y-126503714D01*
X108572026Y-126520525D01*
X108600528Y-126550039D01*
X108610061Y-126593116D01*
X108608950Y-126629932D01*
X108608133Y-126682074D01*
X108620349Y-126709444D01*
X108652624Y-126725882D01*
X108658710Y-126727955D01*
X108704739Y-126735081D01*
X108732687Y-126716024D01*
X108746007Y-126666353D01*
X108748470Y-126612697D01*
X108730210Y-126516142D01*
X108704131Y-126466159D01*
X108642868Y-126404429D01*
X108567670Y-126371690D01*
X108488211Y-126368753D01*
X108414167Y-126396424D01*
X108367769Y-126438047D01*
X108341793Y-126479604D01*
X108308907Y-126544922D01*
X108275557Y-126621038D01*
X108270461Y-126633726D01*
X108233565Y-126717333D01*
X108201046Y-126765530D01*
X108168718Y-126781030D01*
X108132394Y-126766550D01*
X108104000Y-126741692D01*
X108069039Y-126682939D01*
X108066417Y-126618293D01*
X108093358Y-126559008D01*
X108147088Y-126516339D01*
X108160950Y-126510739D01*
X108211936Y-126478133D01*
X108249787Y-126430530D01*
X108280850Y-126370461D01*
X108192768Y-126370461D01*
X108138951Y-126373997D01*
X108096534Y-126389156D01*
X108051279Y-126422768D01*
X108016420Y-126455035D01*
X107967062Y-126505209D01*
X107940547Y-126544193D01*
X107929911Y-126586064D01*
X107928154Y-126633460D01*
X107943528Y-126737333D01*
G37*
X107943528Y-126737333D02*
X107969117Y-126793590D01*
X108000124Y-126837747D01*
X108034795Y-126870101D01*
X108079520Y-126892438D01*
X108140692Y-126906546D01*
X108224701Y-126914211D01*
X108337940Y-126917220D01*
X108412509Y-126917538D01*
X108703420Y-126917538D01*
X108726095Y-126867773D01*
X108742667Y-126828576D01*
X108748769Y-126809157D01*
X108730610Y-126805442D01*
X108681648Y-126802495D01*
X108610153Y-126800691D01*
X108553385Y-126800308D01*
X108471371Y-126798661D01*
X108406309Y-126794222D01*
X108366467Y-126787740D01*
X108358000Y-126782590D01*
X108366646Y-126747977D01*
X108388823Y-126693640D01*
X108418886Y-126630722D01*
X108451192Y-126570368D01*
X108480098Y-126523721D01*
X108499961Y-126501926D01*
X108500175Y-126501839D01*
X108536935Y-126503714D01*
X108572026Y-126520525D01*
X108600528Y-126550039D01*
X108610061Y-126593116D01*
X108608950Y-126629932D01*
X108608133Y-126682074D01*
X108620349Y-126709444D01*
X108652624Y-126725882D01*
X108658710Y-126727955D01*
X108704739Y-126735081D01*
X108732687Y-126716024D01*
X108746007Y-126666353D01*
X108748470Y-126612697D01*
X108730210Y-126516142D01*
X108704131Y-126466159D01*
X108642868Y-126404429D01*
X108567670Y-126371690D01*
X108488211Y-126368753D01*
X108414167Y-126396424D01*
X108367769Y-126438047D01*
X108341793Y-126479604D01*
X108308907Y-126544922D01*
X108275557Y-126621038D01*
X108270461Y-126633726D01*
X108233565Y-126717333D01*
X108201046Y-126765530D01*
X108168718Y-126781030D01*
X108132394Y-126766550D01*
X108104000Y-126741692D01*
X108069039Y-126682939D01*
X108066417Y-126618293D01*
X108093358Y-126559008D01*
X108147088Y-126516339D01*
X108160950Y-126510739D01*
X108211936Y-126478133D01*
X108249787Y-126430530D01*
X108280850Y-126370461D01*
X108192768Y-126370461D01*
X108138951Y-126373997D01*
X108096534Y-126389156D01*
X108051279Y-126422768D01*
X108016420Y-126455035D01*
X107967062Y-126505209D01*
X107940547Y-126544193D01*
X107929911Y-126586064D01*
X107928154Y-126633460D01*
X107943528Y-126737333D01*
G36*
X107946662Y-126245929D02*
G01*
X107998068Y-126248911D01*
X108076192Y-126251247D01*
X108174857Y-126252749D01*
X108278343Y-126253231D01*
X108628533Y-126253231D01*
X108690363Y-126191401D01*
X108728462Y-126148793D01*
X108743895Y-126111390D01*
X108742918Y-126060270D01*
X108740433Y-126039978D01*
X108733200Y-125976554D01*
X108729055Y-125924095D01*
X108728672Y-125911308D01*
X108731176Y-125868199D01*
X108737462Y-125806544D01*
X108740433Y-125782638D01*
X108745028Y-125723922D01*
X108735046Y-125684464D01*
X108704228Y-125645338D01*
X108690363Y-125631215D01*
X108628533Y-125569385D01*
X107973503Y-125569385D01*
X107950829Y-125619150D01*
X107934034Y-125662002D01*
X107928154Y-125687073D01*
X107946736Y-125693501D01*
X107998655Y-125699509D01*
X108078172Y-125704697D01*
X108179546Y-125708664D01*
X108265192Y-125710577D01*
X108602231Y-125715923D01*
X108608825Y-125762560D01*
X108604214Y-125804976D01*
X108589287Y-125825760D01*
X108561377Y-125831570D01*
X108501925Y-125836530D01*
X108418466Y-125840246D01*
X108318532Y-125842324D01*
X108267104Y-125842624D01*
X107971054Y-125842923D01*
X107949604Y-125904454D01*
X107935020Y-125948004D01*
X107928219Y-125971694D01*
X107928154Y-125972377D01*
X107946642Y-125974754D01*
X107997906Y-125977366D01*
X108075649Y-125979995D01*
X108173574Y-125982421D01*
X108265192Y-125984115D01*
X108602231Y-125989461D01*
X108602231Y-126106692D01*
X108294746Y-126112072D01*
X107987261Y-126117451D01*
X107957707Y-126174601D01*
X107937413Y-126216797D01*
X107928204Y-126241770D01*
X107928154Y-126242491D01*
X107946662Y-126245929D01*
G37*
X107946662Y-126245929D02*
X107998068Y-126248911D01*
X108076192Y-126251247D01*
X108174857Y-126252749D01*
X108278343Y-126253231D01*
X108628533Y-126253231D01*
X108690363Y-126191401D01*
X108728462Y-126148793D01*
X108743895Y-126111390D01*
X108742918Y-126060270D01*
X108740433Y-126039978D01*
X108733200Y-125976554D01*
X108729055Y-125924095D01*
X108728672Y-125911308D01*
X108731176Y-125868199D01*
X108737462Y-125806544D01*
X108740433Y-125782638D01*
X108745028Y-125723922D01*
X108735046Y-125684464D01*
X108704228Y-125645338D01*
X108690363Y-125631215D01*
X108628533Y-125569385D01*
X107973503Y-125569385D01*
X107950829Y-125619150D01*
X107934034Y-125662002D01*
X107928154Y-125687073D01*
X107946736Y-125693501D01*
X107998655Y-125699509D01*
X108078172Y-125704697D01*
X108179546Y-125708664D01*
X108265192Y-125710577D01*
X108602231Y-125715923D01*
X108608825Y-125762560D01*
X108604214Y-125804976D01*
X108589287Y-125825760D01*
X108561377Y-125831570D01*
X108501925Y-125836530D01*
X108418466Y-125840246D01*
X108318532Y-125842324D01*
X108267104Y-125842624D01*
X107971054Y-125842923D01*
X107949604Y-125904454D01*
X107935020Y-125948004D01*
X107928219Y-125971694D01*
X107928154Y-125972377D01*
X107946642Y-125974754D01*
X107997906Y-125977366D01*
X108075649Y-125979995D01*
X108173574Y-125982421D01*
X108265192Y-125984115D01*
X108602231Y-125989461D01*
X108602231Y-126106692D01*
X108294746Y-126112072D01*
X107987261Y-126117451D01*
X107957707Y-126174601D01*
X107937413Y-126216797D01*
X107928204Y-126241770D01*
X107928154Y-126242491D01*
X107946662Y-126245929D01*
G36*
X108090289Y-125452081D02*
G01*
X108236320Y-125451833D01*
X108348655Y-125450872D01*
X108432678Y-125448794D01*
X108493769Y-125445193D01*
X108537309Y-125439665D01*
X108568679Y-125431804D01*
X108593262Y-125421207D01*
X108607294Y-125413182D01*
X108683388Y-125346728D01*
X108731084Y-125262470D01*
X108748199Y-125169249D01*
X108732546Y-125075900D01*
X108704418Y-125020312D01*
X108655760Y-124961957D01*
X108596333Y-124922186D01*
X108518507Y-124898190D01*
X108414652Y-124887161D01*
X108338462Y-124885599D01*
X108332986Y-124885809D01*
X108332986Y-125022308D01*
X108420355Y-125023141D01*
X108478192Y-125026961D01*
X108516029Y-125035746D01*
X108543398Y-125051474D01*
X108564042Y-125070266D01*
X108603890Y-125133375D01*
X108607295Y-125201137D01*
X108574025Y-125265179D01*
X108569517Y-125270164D01*
X108546067Y-125291439D01*
X108518166Y-125304779D01*
X108476641Y-125312001D01*
X108412316Y-125314923D01*
X108341200Y-125315385D01*
X108251858Y-125314383D01*
X108192258Y-125310238D01*
X108153089Y-125301236D01*
X108125040Y-125285667D01*
X108110144Y-125272902D01*
X108072575Y-125213600D01*
X108068057Y-125145301D01*
X108096753Y-125080110D01*
X108107406Y-125067528D01*
X108131063Y-125046111D01*
X108159251Y-125032744D01*
X108201245Y-125025566D01*
X108266319Y-125022719D01*
X108332986Y-125022308D01*
X108332986Y-124885809D01*
X108215765Y-124890322D01*
X108123577Y-124906362D01*
X108054269Y-124936528D01*
X108000211Y-124983629D01*
X107972505Y-125020312D01*
X107942572Y-125086990D01*
X107928678Y-125164272D01*
X107932397Y-125236110D01*
X107947400Y-125276308D01*
X107951670Y-125292082D01*
X107935750Y-125302550D01*
X107893089Y-125309856D01*
X107828106Y-125315385D01*
X107755732Y-125321437D01*
X107712187Y-125329844D01*
X107687287Y-125345141D01*
X107670845Y-125371864D01*
X107663564Y-125388654D01*
X107636963Y-125452154D01*
X108090289Y-125452081D01*
G37*
X108090289Y-125452081D02*
X108236320Y-125451833D01*
X108348655Y-125450872D01*
X108432678Y-125448794D01*
X108493769Y-125445193D01*
X108537309Y-125439665D01*
X108568679Y-125431804D01*
X108593262Y-125421207D01*
X108607294Y-125413182D01*
X108683388Y-125346728D01*
X108731084Y-125262470D01*
X108748199Y-125169249D01*
X108732546Y-125075900D01*
X108704418Y-125020312D01*
X108655760Y-124961957D01*
X108596333Y-124922186D01*
X108518507Y-124898190D01*
X108414652Y-124887161D01*
X108338462Y-124885599D01*
X108332986Y-124885809D01*
X108332986Y-125022308D01*
X108420355Y-125023141D01*
X108478192Y-125026961D01*
X108516029Y-125035746D01*
X108543398Y-125051474D01*
X108564042Y-125070266D01*
X108603890Y-125133375D01*
X108607295Y-125201137D01*
X108574025Y-125265179D01*
X108569517Y-125270164D01*
X108546067Y-125291439D01*
X108518166Y-125304779D01*
X108476641Y-125312001D01*
X108412316Y-125314923D01*
X108341200Y-125315385D01*
X108251858Y-125314383D01*
X108192258Y-125310238D01*
X108153089Y-125301236D01*
X108125040Y-125285667D01*
X108110144Y-125272902D01*
X108072575Y-125213600D01*
X108068057Y-125145301D01*
X108096753Y-125080110D01*
X108107406Y-125067528D01*
X108131063Y-125046111D01*
X108159251Y-125032744D01*
X108201245Y-125025566D01*
X108266319Y-125022719D01*
X108332986Y-125022308D01*
X108332986Y-124885809D01*
X108215765Y-124890322D01*
X108123577Y-124906362D01*
X108054269Y-124936528D01*
X108000211Y-124983629D01*
X107972505Y-125020312D01*
X107942572Y-125086990D01*
X107928678Y-125164272D01*
X107932397Y-125236110D01*
X107947400Y-125276308D01*
X107951670Y-125292082D01*
X107935750Y-125302550D01*
X107893089Y-125309856D01*
X107828106Y-125315385D01*
X107755732Y-125321437D01*
X107712187Y-125329844D01*
X107687287Y-125345141D01*
X107670845Y-125371864D01*
X107663564Y-125388654D01*
X107636963Y-125452154D01*
X108090289Y-125452081D01*
G36*
X107934670Y-124563362D02*
G01*
X107967421Y-124652117D01*
X108025350Y-124724022D01*
X108066128Y-124752144D01*
X108140954Y-124782802D01*
X108195058Y-124782165D01*
X108231446Y-124749987D01*
X108237633Y-124738081D01*
X108256925Y-124686675D01*
X108251982Y-124660422D01*
X108219587Y-124651530D01*
X108201692Y-124651077D01*
X108135859Y-124634797D01*
X108089807Y-124592365D01*
X108067564Y-124533388D01*
X108073161Y-124467475D01*
X108102229Y-124413895D01*
X108118810Y-124395798D01*
X108138925Y-124382971D01*
X108169332Y-124374306D01*
X108216788Y-124368696D01*
X108288050Y-124365035D01*
X108389875Y-124362215D01*
X108422115Y-124361484D01*
X108532410Y-124358820D01*
X108610036Y-124355792D01*
X108661396Y-124351250D01*
X108692890Y-124344046D01*
X108710920Y-124333033D01*
X108721888Y-124317060D01*
X108726733Y-124306834D01*
X108743301Y-124263406D01*
X108748769Y-124237842D01*
X108730507Y-124229395D01*
X108675296Y-124224239D01*
X108582499Y-124222346D01*
X108451478Y-124223689D01*
X108431269Y-124224107D01*
X108311733Y-124227058D01*
X108224449Y-124230548D01*
X108162591Y-124235514D01*
X108119336Y-124242893D01*
X108087860Y-124253624D01*
X108061339Y-124268645D01*
X108049975Y-124276502D01*
X107999692Y-124321553D01*
X107960581Y-124371940D01*
X107957167Y-124378108D01*
X107930212Y-124468458D01*
X107934670Y-124563362D01*
G37*
X107934670Y-124563362D02*
X107967421Y-124652117D01*
X108025350Y-124724022D01*
X108066128Y-124752144D01*
X108140954Y-124782802D01*
X108195058Y-124782165D01*
X108231446Y-124749987D01*
X108237633Y-124738081D01*
X108256925Y-124686675D01*
X108251982Y-124660422D01*
X108219587Y-124651530D01*
X108201692Y-124651077D01*
X108135859Y-124634797D01*
X108089807Y-124592365D01*
X108067564Y-124533388D01*
X108073161Y-124467475D01*
X108102229Y-124413895D01*
X108118810Y-124395798D01*
X108138925Y-124382971D01*
X108169332Y-124374306D01*
X108216788Y-124368696D01*
X108288050Y-124365035D01*
X108389875Y-124362215D01*
X108422115Y-124361484D01*
X108532410Y-124358820D01*
X108610036Y-124355792D01*
X108661396Y-124351250D01*
X108692890Y-124344046D01*
X108710920Y-124333033D01*
X108721888Y-124317060D01*
X108726733Y-124306834D01*
X108743301Y-124263406D01*
X108748769Y-124237842D01*
X108730507Y-124229395D01*
X108675296Y-124224239D01*
X108582499Y-124222346D01*
X108451478Y-124223689D01*
X108431269Y-124224107D01*
X108311733Y-124227058D01*
X108224449Y-124230548D01*
X108162591Y-124235514D01*
X108119336Y-124242893D01*
X108087860Y-124253624D01*
X108061339Y-124268645D01*
X108049975Y-124276502D01*
X107999692Y-124321553D01*
X107960581Y-124371940D01*
X107957167Y-124378108D01*
X107930212Y-124468458D01*
X107934670Y-124563362D01*
G36*
X107936303Y-123903501D02*
G01*
X107964733Y-123980060D01*
X107965279Y-123980936D01*
X108000127Y-124028285D01*
X108040852Y-124063241D01*
X108093925Y-124087825D01*
X108165814Y-124104062D01*
X108262992Y-124113975D01*
X108391928Y-124119586D01*
X108410298Y-124120077D01*
X108687287Y-124127141D01*
X108718028Y-124067695D01*
X108738802Y-124024681D01*
X108748646Y-123998710D01*
X108748769Y-123997509D01*
X108730606Y-123993014D01*
X108681612Y-123989444D01*
X108610031Y-123987248D01*
X108552068Y-123986769D01*
X108458170Y-123986758D01*
X108399203Y-123982466D01*
X108371079Y-123967503D01*
X108369706Y-123935482D01*
X108390998Y-123880014D01*
X108430136Y-123796269D01*
X108462643Y-123734689D01*
X108490845Y-123703017D01*
X108521582Y-123693706D01*
X108523104Y-123693692D01*
X108576054Y-123709057D01*
X108604660Y-123754547D01*
X108608803Y-123824166D01*
X108608084Y-123874313D01*
X108622527Y-123900754D01*
X108657218Y-123917243D01*
X108701416Y-123926733D01*
X108726493Y-123913057D01*
X108730082Y-123907907D01*
X108744496Y-123859425D01*
X108746537Y-123791531D01*
X108736983Y-123721612D01*
X108719522Y-123672068D01*
X108661364Y-123603570D01*
X108580408Y-123564634D01*
X108517160Y-123556923D01*
X108460111Y-123562807D01*
X108413542Y-123584101D01*
X108372181Y-123626265D01*
X108330755Y-123694759D01*
X108283993Y-123795044D01*
X108281350Y-123801154D01*
X108239617Y-123891490D01*
X108205391Y-123947235D01*
X108174635Y-123971129D01*
X108143311Y-123965913D01*
X108107383Y-123934328D01*
X108099116Y-123924883D01*
X108067058Y-123861617D01*
X108068407Y-123796064D01*
X108099838Y-123738972D01*
X108158024Y-123701093D01*
X108169446Y-123697574D01*
X108224837Y-123663300D01*
X108251518Y-123619809D01*
X108277960Y-123556923D01*
X108209548Y-123556923D01*
X108110110Y-123576052D01*
X108018902Y-123632831D01*
X107988389Y-123662378D01*
X107949228Y-123729542D01*
X107931500Y-123814956D01*
X107936303Y-123903501D01*
G37*
X107936303Y-123903501D02*
X107964733Y-123980060D01*
X107965279Y-123980936D01*
X108000127Y-124028285D01*
X108040852Y-124063241D01*
X108093925Y-124087825D01*
X108165814Y-124104062D01*
X108262992Y-124113975D01*
X108391928Y-124119586D01*
X108410298Y-124120077D01*
X108687287Y-124127141D01*
X108718028Y-124067695D01*
X108738802Y-124024681D01*
X108748646Y-123998710D01*
X108748769Y-123997509D01*
X108730606Y-123993014D01*
X108681612Y-123989444D01*
X108610031Y-123987248D01*
X108552068Y-123986769D01*
X108458170Y-123986758D01*
X108399203Y-123982466D01*
X108371079Y-123967503D01*
X108369706Y-123935482D01*
X108390998Y-123880014D01*
X108430136Y-123796269D01*
X108462643Y-123734689D01*
X108490845Y-123703017D01*
X108521582Y-123693706D01*
X108523104Y-123693692D01*
X108576054Y-123709057D01*
X108604660Y-123754547D01*
X108608803Y-123824166D01*
X108608084Y-123874313D01*
X108622527Y-123900754D01*
X108657218Y-123917243D01*
X108701416Y-123926733D01*
X108726493Y-123913057D01*
X108730082Y-123907907D01*
X108744496Y-123859425D01*
X108746537Y-123791531D01*
X108736983Y-123721612D01*
X108719522Y-123672068D01*
X108661364Y-123603570D01*
X108580408Y-123564634D01*
X108517160Y-123556923D01*
X108460111Y-123562807D01*
X108413542Y-123584101D01*
X108372181Y-123626265D01*
X108330755Y-123694759D01*
X108283993Y-123795044D01*
X108281350Y-123801154D01*
X108239617Y-123891490D01*
X108205391Y-123947235D01*
X108174635Y-123971129D01*
X108143311Y-123965913D01*
X108107383Y-123934328D01*
X108099116Y-123924883D01*
X108067058Y-123861617D01*
X108068407Y-123796064D01*
X108099838Y-123738972D01*
X108158024Y-123701093D01*
X108169446Y-123697574D01*
X108224837Y-123663300D01*
X108251518Y-123619809D01*
X108277960Y-123556923D01*
X108209548Y-123556923D01*
X108110110Y-123576052D01*
X108018902Y-123632831D01*
X107988389Y-123662378D01*
X107949228Y-123729542D01*
X107931500Y-123814956D01*
X107936303Y-123903501D01*
G36*
X107802120Y-123009846D02*
G01*
X107881980Y-123015572D01*
X107929039Y-123022149D01*
X107949566Y-123031262D01*
X107949829Y-123044598D01*
X107947378Y-123048923D01*
X107929636Y-123106444D01*
X107930672Y-123181268D01*
X107948910Y-123257339D01*
X107972505Y-123304918D01*
X108010198Y-123353702D01*
X108052855Y-123389364D01*
X108107057Y-123413845D01*
X108179384Y-123429087D01*
X108276419Y-123437030D01*
X108404742Y-123439616D01*
X108429358Y-123439662D01*
X108705870Y-123439692D01*
X108727320Y-123378161D01*
X108741912Y-123334459D01*
X108748706Y-123310482D01*
X108748769Y-123309777D01*
X108730345Y-123307415D01*
X108679526Y-123305406D01*
X108602993Y-123303901D01*
X108507430Y-123303053D01*
X108449329Y-123302923D01*
X108334771Y-123302651D01*
X108252667Y-123301252D01*
X108196393Y-123297849D01*
X108159326Y-123291567D01*
X108134844Y-123281529D01*
X108116325Y-123266861D01*
X108107406Y-123257702D01*
X108071466Y-123194789D01*
X108068775Y-123126136D01*
X108099170Y-123063848D01*
X108110144Y-123052329D01*
X108130779Y-123035433D01*
X108155256Y-123023714D01*
X108190647Y-123016233D01*
X108244026Y-123012054D01*
X108322466Y-123010237D01*
X108430617Y-123009846D01*
X108705870Y-123009846D01*
X108727320Y-122948315D01*
X108741912Y-122904613D01*
X108748706Y-122880636D01*
X108748769Y-122879930D01*
X108730069Y-122878126D01*
X108677322Y-122876500D01*
X108595557Y-122875117D01*
X108489805Y-122874042D01*
X108365094Y-122873340D01*
X108226455Y-122873077D01*
X107691806Y-122873077D01*
X107638236Y-123000077D01*
X107802120Y-123009846D01*
G37*
X107802120Y-123009846D02*
X107881980Y-123015572D01*
X107929039Y-123022149D01*
X107949566Y-123031262D01*
X107949829Y-123044598D01*
X107947378Y-123048923D01*
X107929636Y-123106444D01*
X107930672Y-123181268D01*
X107948910Y-123257339D01*
X107972505Y-123304918D01*
X108010198Y-123353702D01*
X108052855Y-123389364D01*
X108107057Y-123413845D01*
X108179384Y-123429087D01*
X108276419Y-123437030D01*
X108404742Y-123439616D01*
X108429358Y-123439662D01*
X108705870Y-123439692D01*
X108727320Y-123378161D01*
X108741912Y-123334459D01*
X108748706Y-123310482D01*
X108748769Y-123309777D01*
X108730345Y-123307415D01*
X108679526Y-123305406D01*
X108602993Y-123303901D01*
X108507430Y-123303053D01*
X108449329Y-123302923D01*
X108334771Y-123302651D01*
X108252667Y-123301252D01*
X108196393Y-123297849D01*
X108159326Y-123291567D01*
X108134844Y-123281529D01*
X108116325Y-123266861D01*
X108107406Y-123257702D01*
X108071466Y-123194789D01*
X108068775Y-123126136D01*
X108099170Y-123063848D01*
X108110144Y-123052329D01*
X108130779Y-123035433D01*
X108155256Y-123023714D01*
X108190647Y-123016233D01*
X108244026Y-123012054D01*
X108322466Y-123010237D01*
X108430617Y-123009846D01*
X108705870Y-123009846D01*
X108727320Y-122948315D01*
X108741912Y-122904613D01*
X108748706Y-122880636D01*
X108748769Y-122879930D01*
X108730069Y-122878126D01*
X108677322Y-122876500D01*
X108595557Y-122875117D01*
X108489805Y-122874042D01*
X108365094Y-122873340D01*
X108226455Y-122873077D01*
X107691806Y-122873077D01*
X107638236Y-123000077D01*
X107802120Y-123009846D01*
G36*
X107909745Y-121384254D02*
G01*
X107961567Y-121461286D01*
X108036412Y-121520816D01*
X108131654Y-121556378D01*
X108201756Y-121563571D01*
X108231009Y-121562754D01*
X108253407Y-121555914D01*
X108273474Y-121537112D01*
X108295733Y-121500408D01*
X108324709Y-121439862D01*
X108364927Y-121349534D01*
X108365129Y-121349077D01*
X108403210Y-121265933D01*
X108437025Y-121197753D01*
X108462933Y-121151505D01*
X108477295Y-121134158D01*
X108477411Y-121134154D01*
X108508685Y-121149443D01*
X108543157Y-121185196D01*
X108567990Y-121226242D01*
X108572923Y-121247037D01*
X108555862Y-121303770D01*
X108513133Y-121352627D01*
X108466155Y-121376465D01*
X108431522Y-121399397D01*
X108392081Y-121444318D01*
X108358009Y-121497123D01*
X108339480Y-121543710D01*
X108338462Y-121553452D01*
X108355215Y-121564418D01*
X108398039Y-121565079D01*
X108455781Y-121557020D01*
X108517289Y-121541827D01*
X108571409Y-121521086D01*
X108573510Y-121520038D01*
X108660660Y-121457621D01*
X108719939Y-121376726D01*
X108749034Y-121284856D01*
X108745634Y-121189513D01*
X108707428Y-121098198D01*
X108704741Y-121094138D01*
X108639642Y-121022306D01*
X108554705Y-120975073D01*
X108443021Y-120948934D01*
X108411643Y-120945426D01*
X108263536Y-120939213D01*
X108194468Y-120946661D01*
X108194468Y-121134154D01*
X108237552Y-121136590D01*
X108250126Y-121149914D01*
X108240719Y-121183132D01*
X108218483Y-121235494D01*
X108190610Y-121294024D01*
X108189872Y-121295479D01*
X108163777Y-121345089D01*
X108146363Y-121365000D01*
X108128107Y-121360090D01*
X108104120Y-121339416D01*
X108069406Y-121286819D01*
X108066856Y-121230177D01*
X108092119Y-121179369D01*
X108140847Y-121144276D01*
X108194468Y-121134154D01*
X108194468Y-120946661D01*
X108145036Y-120951992D01*
X108051055Y-120984778D01*
X107985215Y-121030421D01*
X107918681Y-121112802D01*
X107885676Y-121203546D01*
X107883573Y-121296185D01*
X107909745Y-121384254D01*
G37*
X107909745Y-121384254D02*
X107961567Y-121461286D01*
X108036412Y-121520816D01*
X108131654Y-121556378D01*
X108201756Y-121563571D01*
X108231009Y-121562754D01*
X108253407Y-121555914D01*
X108273474Y-121537112D01*
X108295733Y-121500408D01*
X108324709Y-121439862D01*
X108364927Y-121349534D01*
X108365129Y-121349077D01*
X108403210Y-121265933D01*
X108437025Y-121197753D01*
X108462933Y-121151505D01*
X108477295Y-121134158D01*
X108477411Y-121134154D01*
X108508685Y-121149443D01*
X108543157Y-121185196D01*
X108567990Y-121226242D01*
X108572923Y-121247037D01*
X108555862Y-121303770D01*
X108513133Y-121352627D01*
X108466155Y-121376465D01*
X108431522Y-121399397D01*
X108392081Y-121444318D01*
X108358009Y-121497123D01*
X108339480Y-121543710D01*
X108338462Y-121553452D01*
X108355215Y-121564418D01*
X108398039Y-121565079D01*
X108455781Y-121557020D01*
X108517289Y-121541827D01*
X108571409Y-121521086D01*
X108573510Y-121520038D01*
X108660660Y-121457621D01*
X108719939Y-121376726D01*
X108749034Y-121284856D01*
X108745634Y-121189513D01*
X108707428Y-121098198D01*
X108704741Y-121094138D01*
X108639642Y-121022306D01*
X108554705Y-120975073D01*
X108443021Y-120948934D01*
X108411643Y-120945426D01*
X108263536Y-120939213D01*
X108194468Y-120946661D01*
X108194468Y-121134154D01*
X108237552Y-121136590D01*
X108250126Y-121149914D01*
X108240719Y-121183132D01*
X108218483Y-121235494D01*
X108190610Y-121294024D01*
X108189872Y-121295479D01*
X108163777Y-121345089D01*
X108146363Y-121365000D01*
X108128107Y-121360090D01*
X108104120Y-121339416D01*
X108069406Y-121286819D01*
X108066856Y-121230177D01*
X108092119Y-121179369D01*
X108140847Y-121144276D01*
X108194468Y-121134154D01*
X108194468Y-120946661D01*
X108145036Y-120951992D01*
X108051055Y-120984778D01*
X107985215Y-121030421D01*
X107918681Y-121112802D01*
X107885676Y-121203546D01*
X107883573Y-121296185D01*
X107909745Y-121384254D01*
G36*
X107897256Y-119866886D02*
G01*
X107945409Y-119958464D01*
X108022905Y-120026049D01*
X108072727Y-120050057D01*
X108147533Y-120068738D01*
X108242052Y-120078301D01*
X108345210Y-120079208D01*
X108445935Y-120071921D01*
X108533153Y-120056903D01*
X108595791Y-120034615D01*
X108606579Y-120027765D01*
X108687105Y-119946632D01*
X108735336Y-119850266D01*
X108749450Y-119745701D01*
X108727629Y-119639968D01*
X108714547Y-119610543D01*
X108674231Y-119553241D01*
X108620775Y-119502950D01*
X108613995Y-119498197D01*
X108581321Y-119478878D01*
X108546394Y-119466108D01*
X108500414Y-119458564D01*
X108434584Y-119454924D01*
X108340105Y-119453865D01*
X108318923Y-119453846D01*
X108312182Y-119453894D01*
X108312182Y-119649231D01*
X108401349Y-119650368D01*
X108460520Y-119654841D01*
X108498741Y-119664246D01*
X108525053Y-119680176D01*
X108533846Y-119688308D01*
X108567261Y-119735058D01*
X108565737Y-119780447D01*
X108536752Y-119826340D01*
X108505809Y-119853712D01*
X108460643Y-119869923D01*
X108389420Y-119879026D01*
X108381114Y-119879651D01*
X108252037Y-119881204D01*
X108156172Y-119864965D01*
X108094107Y-119831152D01*
X108066432Y-119779984D01*
X108064923Y-119761720D01*
X108072513Y-119713760D01*
X108098808Y-119680953D01*
X108149095Y-119660895D01*
X108228664Y-119651178D01*
X108312182Y-119649231D01*
X108312182Y-119453894D01*
X108218249Y-119454574D01*
X108147906Y-119457629D01*
X108099163Y-119464322D01*
X108063288Y-119475960D01*
X108031548Y-119493853D01*
X108025648Y-119497808D01*
X107946104Y-119564267D01*
X107899929Y-119636685D01*
X107881599Y-119724849D01*
X107880703Y-119754787D01*
X107897256Y-119866886D01*
G37*
X107897256Y-119866886D02*
X107945409Y-119958464D01*
X108022905Y-120026049D01*
X108072727Y-120050057D01*
X108147533Y-120068738D01*
X108242052Y-120078301D01*
X108345210Y-120079208D01*
X108445935Y-120071921D01*
X108533153Y-120056903D01*
X108595791Y-120034615D01*
X108606579Y-120027765D01*
X108687105Y-119946632D01*
X108735336Y-119850266D01*
X108749450Y-119745701D01*
X108727629Y-119639968D01*
X108714547Y-119610543D01*
X108674231Y-119553241D01*
X108620775Y-119502950D01*
X108613995Y-119498197D01*
X108581321Y-119478878D01*
X108546394Y-119466108D01*
X108500414Y-119458564D01*
X108434584Y-119454924D01*
X108340105Y-119453865D01*
X108318923Y-119453846D01*
X108312182Y-119453894D01*
X108312182Y-119649231D01*
X108401349Y-119650368D01*
X108460520Y-119654841D01*
X108498741Y-119664246D01*
X108525053Y-119680176D01*
X108533846Y-119688308D01*
X108567261Y-119735058D01*
X108565737Y-119780447D01*
X108536752Y-119826340D01*
X108505809Y-119853712D01*
X108460643Y-119869923D01*
X108389420Y-119879026D01*
X108381114Y-119879651D01*
X108252037Y-119881204D01*
X108156172Y-119864965D01*
X108094107Y-119831152D01*
X108066432Y-119779984D01*
X108064923Y-119761720D01*
X108072513Y-119713760D01*
X108098808Y-119680953D01*
X108149095Y-119660895D01*
X108228664Y-119651178D01*
X108312182Y-119649231D01*
X108312182Y-119453894D01*
X108218249Y-119454574D01*
X108147906Y-119457629D01*
X108099163Y-119464322D01*
X108063288Y-119475960D01*
X108031548Y-119493853D01*
X108025648Y-119497808D01*
X107946104Y-119564267D01*
X107899929Y-119636685D01*
X107881599Y-119724849D01*
X107880703Y-119754787D01*
X107897256Y-119866886D01*
G36*
X107905089Y-122121664D02*
G01*
X107941358Y-122184367D01*
X107977358Y-122227961D01*
X108015075Y-122259845D01*
X108061199Y-122281810D01*
X108122421Y-122295649D01*
X108205431Y-122303153D01*
X108316919Y-122306117D01*
X108397062Y-122306461D01*
X108692065Y-122306461D01*
X108766515Y-122140385D01*
X108443402Y-122130615D01*
X108322729Y-122126579D01*
X108235141Y-122122344D01*
X108174650Y-122117097D01*
X108135268Y-122110025D01*
X108111007Y-122100311D01*
X108095880Y-122087144D01*
X108092606Y-122082919D01*
X108067034Y-122018909D01*
X108077153Y-121954208D01*
X108104000Y-121915692D01*
X108123024Y-121900025D01*
X108147988Y-121889180D01*
X108185834Y-121882288D01*
X108243502Y-121878479D01*
X108327935Y-121876883D01*
X108415928Y-121876615D01*
X108526323Y-121876563D01*
X108604463Y-121874672D01*
X108657165Y-121868345D01*
X108691242Y-121854983D01*
X108713511Y-121831985D01*
X108730787Y-121796754D01*
X108748738Y-121749697D01*
X108768278Y-121698303D01*
X108421485Y-121704421D01*
X108296468Y-121706884D01*
X108204082Y-121709767D01*
X108137881Y-121713898D01*
X108091420Y-121720107D01*
X108058256Y-121729226D01*
X108031944Y-121742083D01*
X108008729Y-121757584D01*
X107934569Y-121832371D01*
X107891684Y-121923628D01*
X107881412Y-122022883D01*
X107905089Y-122121664D01*
G37*
X107905089Y-122121664D02*
X107941358Y-122184367D01*
X107977358Y-122227961D01*
X108015075Y-122259845D01*
X108061199Y-122281810D01*
X108122421Y-122295649D01*
X108205431Y-122303153D01*
X108316919Y-122306117D01*
X108397062Y-122306461D01*
X108692065Y-122306461D01*
X108766515Y-122140385D01*
X108443402Y-122130615D01*
X108322729Y-122126579D01*
X108235141Y-122122344D01*
X108174650Y-122117097D01*
X108135268Y-122110025D01*
X108111007Y-122100311D01*
X108095880Y-122087144D01*
X108092606Y-122082919D01*
X108067034Y-122018909D01*
X108077153Y-121954208D01*
X108104000Y-121915692D01*
X108123024Y-121900025D01*
X108147988Y-121889180D01*
X108185834Y-121882288D01*
X108243502Y-121878479D01*
X108327935Y-121876883D01*
X108415928Y-121876615D01*
X108526323Y-121876563D01*
X108604463Y-121874672D01*
X108657165Y-121868345D01*
X108691242Y-121854983D01*
X108713511Y-121831985D01*
X108730787Y-121796754D01*
X108748738Y-121749697D01*
X108768278Y-121698303D01*
X108421485Y-121704421D01*
X108296468Y-121706884D01*
X108204082Y-121709767D01*
X108137881Y-121713898D01*
X108091420Y-121720107D01*
X108058256Y-121729226D01*
X108031944Y-121742083D01*
X108008729Y-121757584D01*
X107934569Y-121832371D01*
X107891684Y-121923628D01*
X107881412Y-122022883D01*
X107905089Y-122121664D01*
G36*
X107894505Y-120618886D02*
G01*
X107931727Y-120693539D01*
X108000261Y-120759431D01*
X108025648Y-120777577D01*
X108058866Y-120797345D01*
X108094945Y-120810172D01*
X108143098Y-120817510D01*
X108212536Y-120820813D01*
X108304206Y-120821538D01*
X108429830Y-120818263D01*
X108524154Y-120806877D01*
X108594523Y-120785041D01*
X108648286Y-120750419D01*
X108692788Y-120700670D01*
X108695423Y-120697014D01*
X108722377Y-120647985D01*
X108735712Y-120588945D01*
X108739000Y-120513859D01*
X108739000Y-120391795D01*
X108857497Y-120391744D01*
X108923492Y-120390608D01*
X108962202Y-120383686D01*
X108985419Y-120365598D01*
X109004933Y-120330962D01*
X109008920Y-120322645D01*
X109027603Y-120283720D01*
X109039403Y-120253583D01*
X109040422Y-120231174D01*
X109026761Y-120215433D01*
X108994522Y-120205302D01*
X108939804Y-120199723D01*
X108858711Y-120197635D01*
X108747344Y-120197981D01*
X108601802Y-120199700D01*
X108558269Y-120200237D01*
X108408205Y-120202172D01*
X108310042Y-120203904D01*
X108310042Y-120391692D01*
X108393364Y-120392748D01*
X108447880Y-120397438D01*
X108483837Y-120408051D01*
X108511482Y-120426872D01*
X108524965Y-120439650D01*
X108564417Y-120491890D01*
X108567628Y-120538142D01*
X108535049Y-120585867D01*
X108533846Y-120587077D01*
X108508668Y-120606494D01*
X108474447Y-120618307D01*
X108421748Y-120624265D01*
X108341131Y-120626120D01*
X108323271Y-120626154D01*
X108212175Y-120621670D01*
X108135161Y-120607074D01*
X108088147Y-120580650D01*
X108067050Y-120540683D01*
X108064923Y-120517584D01*
X108074900Y-120462762D01*
X108107752Y-120425158D01*
X108167857Y-120402523D01*
X108259598Y-120392606D01*
X108310042Y-120391692D01*
X108310042Y-120203904D01*
X108292060Y-120204222D01*
X108204679Y-120206873D01*
X108140905Y-120210606D01*
X108095582Y-120215907D01*
X108063555Y-120223258D01*
X108039668Y-120233143D01*
X108018764Y-120246046D01*
X108010898Y-120251579D01*
X107936595Y-120324969D01*
X107894467Y-120417760D01*
X107882722Y-120525096D01*
X107894505Y-120618886D01*
G37*
X107894505Y-120618886D02*
X107931727Y-120693539D01*
X108000261Y-120759431D01*
X108025648Y-120777577D01*
X108058866Y-120797345D01*
X108094945Y-120810172D01*
X108143098Y-120817510D01*
X108212536Y-120820813D01*
X108304206Y-120821538D01*
X108429830Y-120818263D01*
X108524154Y-120806877D01*
X108594523Y-120785041D01*
X108648286Y-120750419D01*
X108692788Y-120700670D01*
X108695423Y-120697014D01*
X108722377Y-120647985D01*
X108735712Y-120588945D01*
X108739000Y-120513859D01*
X108739000Y-120391795D01*
X108857497Y-120391744D01*
X108923492Y-120390608D01*
X108962202Y-120383686D01*
X108985419Y-120365598D01*
X109004933Y-120330962D01*
X109008920Y-120322645D01*
X109027603Y-120283720D01*
X109039403Y-120253583D01*
X109040422Y-120231174D01*
X109026761Y-120215433D01*
X108994522Y-120205302D01*
X108939804Y-120199723D01*
X108858711Y-120197635D01*
X108747344Y-120197981D01*
X108601802Y-120199700D01*
X108558269Y-120200237D01*
X108408205Y-120202172D01*
X108310042Y-120203904D01*
X108310042Y-120391692D01*
X108393364Y-120392748D01*
X108447880Y-120397438D01*
X108483837Y-120408051D01*
X108511482Y-120426872D01*
X108524965Y-120439650D01*
X108564417Y-120491890D01*
X108567628Y-120538142D01*
X108535049Y-120585867D01*
X108533846Y-120587077D01*
X108508668Y-120606494D01*
X108474447Y-120618307D01*
X108421748Y-120624265D01*
X108341131Y-120626120D01*
X108323271Y-120626154D01*
X108212175Y-120621670D01*
X108135161Y-120607074D01*
X108088147Y-120580650D01*
X108067050Y-120540683D01*
X108064923Y-120517584D01*
X108074900Y-120462762D01*
X108107752Y-120425158D01*
X108167857Y-120402523D01*
X108259598Y-120392606D01*
X108310042Y-120391692D01*
X108310042Y-120203904D01*
X108292060Y-120204222D01*
X108204679Y-120206873D01*
X108140905Y-120210606D01*
X108095582Y-120215907D01*
X108063555Y-120223258D01*
X108039668Y-120233143D01*
X108018764Y-120246046D01*
X108010898Y-120251579D01*
X107936595Y-120324969D01*
X107894467Y-120417760D01*
X107882722Y-120525096D01*
X107894505Y-120618886D01*
%TD*%
M02*
