M48
; DRILL file {KiCad (5.1.8)-1} date 06/10/21 03:31:19
; FORMAT={-:-/ absolute / inch / decimal}
; #@! TF.CreationDate,2021-06-10T03:31:19+02:00
; #@! TF.GenerationSoftware,Kicad,Pcbnew,(5.1.8)-1
; #@! TF.FileFunction,Plated,1,2,PTH
FMAT,2
INCH
T1C0.0157
T2C0.0256
T3C0.0295
T4C0.0300
T5C0.0394
%
G90
G05
T1
X3.7992Y-5.4331
X3.8386Y-3.8189
X4.0673Y-4.1937
X4.0783Y-4.0638
X4.19Y-4.7
X4.2618Y-4.3602
X4.27Y-4.4882
X4.2815Y-4.6486
X4.3642Y-4.6457
X4.3886Y-4.563
X4.4823Y-4.4398
X4.539Y-4.9524
X4.6126Y-4.4878
X4.6941Y-4.2685
X4.7587Y-4.6016
X4.7843Y-4.648
X4.8Y-4.42
X4.8075Y-4.363
X4.8339Y-4.6492
X4.8689Y-4.8126
X4.8988Y-4.8366
X4.9244Y-4.0217
X4.9429Y-4.3736
X4.9524Y-4.3004
X4.9579Y-4.4433
X4.98Y-4.8559
X5.0327Y-5.0748
X5.0382Y-4.7075
X5.076Y-4.4154
X5.0767Y-4.6095
X5.1045Y-4.6628
X5.1115Y-4.8196
X5.1256Y-4.9272
X5.139Y-4.1736
X5.1555Y-4.7248
X5.1563Y-4.824
X5.1587Y-5.063
X5.1646Y-4.2882
X5.1665Y-4.2181
X5.1669Y-4.3555
X5.1728Y-4.663
X5.1957Y-4.1732
X5.1988Y-4.7366
X5.2209Y-4.6669
X5.2279Y-4.7101
X5.2314Y-4.6244
X5.2583Y-4.5386
X5.2748Y-4.5095
X5.2862Y-4.8579
X5.3217Y-4.4327
X5.3299Y-4.2752
X5.3346Y-5.1772
X5.335Y-4.5642
X5.3461Y-4.387
X5.3937Y-5.0984
X5.3969Y-4.3433
X5.4303Y-4.9587
X5.4496Y-5.2866
X5.4551Y-5.4374
X5.4839Y-4.4217
X5.6102Y-5.4374
X5.8661Y-5.4528
X5.8858Y-3.8189
T2
X4.5028Y-4.585
X4.5028Y-4.635
X4.5528Y-4.585
X4.5528Y-4.635
X4.6028Y-4.585
X4.6028Y-4.635
X4.6528Y-4.585
X4.6528Y-4.635
X4.7028Y-4.585
X4.7028Y-4.635
T4
X4.3843Y-3.9689
X4.3843Y-4.0673
X4.5417Y-3.9689
X4.5417Y-4.0673
X4.6992Y-3.9689
X4.6992Y-4.0673
X4.213Y-5.2248
X4.213Y-5.3232
X4.3705Y-5.2248
X4.3705Y-5.3232
X4.528Y-5.2248
X4.528Y-5.3232
T5
X4.0823Y-3.937
X4.1823Y-3.937
X5.748Y-3.937
X5.748Y-4.037
X5.748Y-4.137
X5.748Y-4.237
X5.748Y-4.337
X5.748Y-4.437
X5.748Y-4.537
X5.748Y-4.637
X5.748Y-4.737
X5.748Y-4.837
X5.748Y-4.937
X5.748Y-5.037
X5.748Y-5.137
X5.748Y-5.237
X5.748Y-5.337
X4.1516Y-4.3571
X4.1516Y-4.4571
X4.1516Y-4.5571
X3.937Y-3.937
X3.937Y-4.037
X3.937Y-4.137
X3.937Y-4.237
X3.937Y-4.337
X3.937Y-4.437
X3.937Y-4.537
X3.937Y-4.637
X3.937Y-4.737
X3.937Y-4.837
X3.937Y-4.937
X3.937Y-5.037
X3.937Y-5.137
X3.937Y-5.237
X3.937Y-5.337
X5.5224Y-4.8449
X5.5224Y-4.9449
X5.5224Y-5.0449
X5.5224Y-5.1449
X4.9043Y-3.937
X5.0043Y-3.937
X5.1043Y-3.937
X5.2043Y-3.937
X5.3043Y-3.937
X5.4043Y-3.937
X5.5043Y-3.937
X5.6043Y-3.937
X4.4091Y-4.8945
X4.5091Y-4.8945
X4.6091Y-4.8945
X4.7091Y-4.8945
X4.8091Y-4.8945
T3
G00X4.2937Y-3.9984
M15
G01X4.2937Y-4.0378
M16
G05
G00X4.7898Y-3.9984
M15
G01X4.7898Y-4.0378
M16
G05
G00X4.1224Y-5.2937
M15
G01X4.1224Y-5.2543
M16
G05
G00X4.6185Y-5.2937
M15
G01X4.6185Y-5.2543
M16
G05
T0
M30
